{"glyphs":{"0":{"ha":875,"x_min":72,"x_max":803,"o":"m 74 247 l 74 761 q 142 951 74 885 q 329 1017 211 1017 l 557 1017 q 790 864 746 1017 q 803 769 803 821 l 803 247 q 738 63 803 126 q 556 0 674 0 l 328 0 q 141 63 208 0 q 74 247 74 125 m 268 279 q 372 179 268 179 l 507 179 q 583 201 558 179 q 608 278 608 224 l 608 739 q 514 838 608 838 l 368 838 q 290 808 311 838 q 268 739 268 778 l 268 279 z "},"1":{"ha":515,"x_min":42,"x_max":432,"o":"m 432 1017 l 432 0 l 238 0 l 238 824 l 42 775 l 42 901 l 239 1017 l 432 1017 z "},"2":{"ha":817,"x_min":42,"x_max":765,"o":"m 42 850 l 42 994 q 464 1031 246 1031 q 693 938 618 1031 q 765 715 765 849 q 382 179 765 483 l 765 179 l 765 0 l 53 0 l 53 171 q 265 332 164 246 q 426 479 365 418 q 528 605 486 540 q 569 715 569 669 q 553 792 569 761 q 403 850 519 850 l 42 850 z "},"3":{"ha":810,"x_min":31,"x_max":733,"o":"m 471 -10 l 390 -10 q 364 -10 372 -10 q 317 -9 356 -10 q 265 -8 279 -8 q 219 -5 251 -7 q 170 0 188 -3 q 126 7 153 3 q 40 29 85 14 l 42 171 l 394 171 q 505 188 474 171 q 536 265 536 204 l 536 310 q 503 390 536 368 q 403 414 471 411 l 126 425 l 126 581 l 403 594 q 508 620 476 599 q 539 694 539 642 l 539 744 q 519 804 539 782 q 471 833 499 826 q 403 840 443 840 l 32 840 l 32 981 q 392 1021 146 1021 q 481 1019 438 1021 q 664 951 596 1017 q 732 775 732 886 l 732 703 q 626 506 732 544 q 732 297 732 461 l 732 239 q 665 54 732 118 q 471 -10 599 -10 z "},"4":{"ha":861,"x_min":21,"x_max":842,"o":"m 544 406 l 544 638 l 589 744 l 739 744 l 739 406 l 842 406 l 842 256 l 739 222 l 739 3 l 544 3 l 544 222 l 68 222 l 21 311 l 383 1017 l 597 1017 l 293 406 l 544 406 z "},"5":{"ha":828,"x_min":79,"x_max":768,"o":"m 289 608 q 438 644 333 644 q 545 642 475 644 q 668 604 615 639 q 768 389 768 540 l 768 246 q 650 28 768 92 q 510 -6 588 -6 q 290 0 368 -6 q 81 28 211 6 l 81 181 l 472 181 q 553 209 532 181 q 574 279 574 238 l 574 372 q 531 463 574 444 q 481 471 511 471 l 350 471 q 288 451 311 471 q 265 389 265 431 l 82 389 l 113 1017 l 731 1017 l 731 838 l 300 838 l 289 608 z "},"6":{"ha":844,"x_min":68,"x_max":785,"o":"m 69 533 q 83 724 69 640 q 118 862 96 808 q 172 950 140 915 q 308 1021 228 1014 q 418 1026 361 1026 q 750 993 569 1026 l 750 846 l 403 846 q 310 803 340 846 q 274 714 279 758 q 264 589 264 649 q 544 617 378 617 q 738 547 688 617 q 783 381 783 486 l 783 228 q 538 -1 783 -1 l 339 -1 q 143 103 201 -1 q 69 533 69 232 m 264 446 q 297 232 264 289 q 396 178 331 178 l 501 178 q 569 195 549 178 q 590 264 590 213 l 590 357 q 543 442 590 429 q 506 446 528 446 l 264 446 z "},"7":{"ha":769,"x_min":31,"x_max":739,"o":"m 32 838 l 32 1017 l 686 1017 l 739 928 l 399 0 l 186 0 l 499 838 l 32 838 z "},"8":{"ha":867,"x_min":78,"x_max":790,"o":"m 79 233 l 79 335 q 108 438 79 397 q 189 492 138 479 q 97 579 119 521 q 79 693 79 626 l 79 783 q 156 975 79 922 q 339 1024 225 1024 l 549 1024 q 730 967 671 1024 q 789 782 789 910 l 789 708 q 776 632 790 671 q 685 547 751 558 q 738 519 715 542 q 771 468 760 497 q 789 357 790 411 l 789 238 q 682 25 789 74 q 547 0 628 0 l 339 0 q 86 154 119 0 q 79 233 79 190 m 274 254 q 315 181 274 197 q 374 172 338 172 l 503 172 q 594 254 594 172 l 594 351 q 572 415 594 393 q 507 438 550 438 l 367 438 q 274 351 274 438 l 274 254 m 274 686 q 367 600 274 600 l 506 600 q 581 626 563 600 q 594 686 594 649 l 594 751 q 572 831 594 810 q 504 853 550 853 l 374 853 q 297 834 319 853 q 274 751 274 815 l 274 686 z "},"9":{"ha":844,"x_min":63,"x_max":779,"o":"m 425 -6 q 97 26 250 -6 l 97 174 l 444 174 q 536 217 507 174 q 574 306 567 261 q 583 432 583 371 q 303 403 469 403 q 108 472 160 403 q 64 640 64 535 l 64 792 q 310 1021 64 1021 l 508 1021 q 599 1008 560 1021 q 673 958 638 994 q 731 864 708 922 q 778 486 778 736 q 675 69 778 186 q 539 -1 618 6 q 425 -6 483 -6 m 257 663 q 276 592 257 611 q 342 574 296 574 l 583 574 q 549 789 583 731 q 451 842 517 842 l 344 842 q 278 824 299 842 q 257 756 257 807 l 257 663 z "},"\u0000":{"ha":985,"x_min":104,"x_max":881,"o":"m 861 703 l 511 369 l 861 35 l 861 703 m 143 18 l 847 18 l 496 356 l 143 18 m 125 31 l 481 369 l 125 704 l 125 31 m 849 719 l 139 719 l 496 383 l 849 719 m 106 0 l 106 738 l 881 738 l 881 0 l 106 0 z "},"\r":{"ha":1054,"x_min":0,"x_max":0,"o":""}," ":{"ha":347,"x_min":0,"x_max":0,"o":""},"!":{"ha":379,"x_min":89,"x_max":288,"o":"m 93 32 l 93 157 q 126 192 93 192 l 249 192 q 272 182 263 192 q 281 157 281 172 l 281 32 q 249 0 281 0 l 126 0 q 102 9 111 0 q 93 32 93 18 m 90 1015 l 286 1015 l 265 272 l 107 272 l 90 1015 z "},"\"":{"ha":617,"x_min":89,"x_max":529,"o":"m 90 1017 l 278 1017 l 278 924 l 264 738 l 106 738 l 90 924 l 90 1017 m 340 1017 l 528 1017 l 528 924 l 514 738 l 356 738 l 340 924 l 340 1017 z "},"#":{"ha":1001,"x_min":21,"x_max":983,"o":"m 21 292 l 42 425 l 253 425 l 282 593 l 68 593 l 90 726 l 306 726 l 357 1017 l 490 1017 l 439 726 l 611 726 l 661 1017 l 794 1017 l 744 726 l 982 726 l 963 593 l 724 593 l 694 424 l 933 424 l 915 290 l 667 290 l 615 0 l 482 0 l 533 290 l 361 292 l 310 0 l 176 0 l 228 292 l 21 292 m 386 425 l 561 424 l 590 593 l 415 593 l 386 425 z "},"$":{"ha":792,"x_min":57,"x_max":735,"o":"m 331 1144 l 449 1144 l 449 1024 q 697 985 578 1015 l 697 833 q 440 847 499 846 q 375 847 381 847 q 283 829 313 847 q 253 747 253 811 l 253 697 q 280 622 253 644 q 364 600 307 600 l 493 600 q 708 474 653 600 q 735 331 735 411 l 735 263 q 644 40 735 101 q 457 -11 568 -11 q 449 -11 453 -11 l 449 -125 l 331 -125 l 331 -8 q 90 31 203 -1 l 90 181 q 414 168 311 168 q 540 256 540 168 l 540 310 q 520 381 540 357 q 447 406 500 406 l 321 406 q 203 426 253 406 q 126 475 153 446 q 82 543 99 504 q 58 675 58 604 l 58 763 q 331 1025 60 1017 l 331 1144 z "},"%":{"ha":1336,"x_min":44,"x_max":1293,"o":"m 44 667 l 44 836 q 87 972 44 928 q 232 1017 129 1017 l 372 1017 q 513 972 471 1017 q 556 836 556 928 l 556 667 q 513 529 556 574 q 369 485 471 485 l 229 485 q 87 529 129 485 q 44 667 44 574 m 181 689 q 194 636 181 651 q 247 621 208 621 l 350 621 q 415 650 406 621 q 419 689 419 664 l 419 813 q 405 867 419 853 q 353 881 390 881 l 250 881 q 195 867 210 881 q 181 813 181 853 l 181 689 m 289 0 l 910 1017 l 1049 1017 l 433 0 l 289 0 m 782 185 l 782 354 q 799 454 782 415 q 968 536 833 536 l 1108 536 q 1250 491 1207 536 q 1293 354 1293 446 l 1293 185 q 1250 49 1293 93 q 1106 4 1207 4 l 965 4 q 824 49 865 4 q 782 185 782 93 m 918 208 q 931 156 918 171 q 985 140 944 140 l 1086 140 q 1143 156 1129 140 q 1157 208 1157 171 l 1157 332 q 1128 394 1157 383 q 1089 400 1114 400 l 988 400 q 933 385 947 400 q 918 332 918 371 l 918 208 z "},"&":{"ha":943,"x_min":35,"x_max":921,"o":"m 444 844 q 351 800 351 844 q 394 708 351 768 l 629 388 l 797 546 l 865 464 l 782 315 l 731 254 l 919 0 l 692 0 l 593 133 l 503 53 q 331 -8 435 -8 q 221 13 276 -8 q 88 119 140 42 q 36 281 36 197 q 153 513 36 411 l 249 597 l 178 700 q 132 825 132 765 q 181 953 132 901 q 288 1014 231 1006 q 436 1024 351 1024 q 672 986 521 1024 l 672 844 l 444 844 m 274 394 q 219 306 219 349 q 244 231 219 263 q 294 187 269 200 q 333 174 318 174 q 356 174 349 174 q 415 204 388 178 l 486 272 l 346 458 l 274 394 z "},"'":{"ha":311,"x_min":57,"x_max":254,"o":"m 58 1017 l 254 1017 l 254 924 l 240 738 l 74 738 l 58 924 l 58 1017 z "},"(":{"ha":524,"x_min":78,"x_max":504,"o":"m 164 -25 q 148 15 164 -25 q 106 183 132 54 q 79 428 79 313 q 92 635 79 544 q 127 797 106 726 q 175 933 149 868 q 226 1044 201 999 q 310 1178 281 1142 l 322 1194 l 504 1194 q 428 1056 472 1146 q 353 883 383 965 q 299 681 324 800 q 274 464 274 563 q 286 277 274 365 q 319 117 299 189 q 364 -20 339 46 q 414 -135 389 -86 q 492 -274 464 -235 l 504 -292 l 322 -292 q 242 -181 289 -258 q 164 -25 196 -104 z "},")":{"ha":524,"x_min":21,"x_max":447,"o":"m 171 6 q 186 47 171 6 q 226 210 201 88 q 251 424 251 333 q 244 581 251 515 q 222 705 236 647 q 192 819 208 763 q 156 923 175 875 q 117 1014 136 971 q 81 1089 99 1057 q 29 1182 44 1157 l 21 1194 l 203 1194 q 283 1072 236 1154 q 361 908 329 989 q 419 703 393 828 q 446 465 446 579 q 433 254 446 350 q 398 86 419 158 q 350 -50 376 14 q 299 -157 324 -114 q 215 -278 244 -246 l 203 -292 l 21 -292 q 97 -162 53 -247 q 171 6 140 -76 z "},"*":{"ha":593,"x_min":51,"x_max":542,"o":"m 53 786 l 53 864 l 246 897 l 253 779 l 53 786 m 132 578 l 165 768 l 281 739 l 206 554 l 132 578 m 231 1000 l 306 1026 l 399 857 l 289 811 l 231 1000 m 264 649 l 329 747 l 485 622 l 440 560 l 264 649 m 332 793 l 499 903 l 542 838 l 408 703 l 332 793 z "},"+":{"ha":671,"x_min":46,"x_max":625,"o":"m 47 413 l 47 576 l 253 576 l 253 783 l 417 783 l 417 576 l 625 576 l 625 413 l 417 413 l 417 206 l 253 206 l 253 413 l 47 413 z "},",":{"ha":363,"x_min":89,"x_max":275,"o":"m 90 35 l 90 156 q 125 193 90 193 l 242 193 q 275 156 275 193 l 275 -15 q 256 -85 275 -58 q 211 -119 238 -112 q 154 -129 179 -129 q 115 -126 129 -129 l 97 -122 l 97 -56 q 126 -49 115 -56 q 140 -19 140 -40 l 140 0 l 125 0 q 100 9 110 0 q 90 35 90 18 z "},"-":{"ha":492,"x_min":28,"x_max":464,"o":"m 28 321 l 28 485 l 464 485 l 464 321 l 28 321 z "},".":{"ha":365,"x_min":89,"x_max":278,"o":"m 90 32 l 90 157 q 124 192 90 192 l 243 192 q 278 157 278 192 l 278 32 q 243 0 278 0 l 124 0 q 99 9 108 0 q 90 32 90 18 z "},"/":{"ha":633,"x_min":21,"x_max":614,"o":"m 21 -100 l 411 1069 l 613 1069 l 222 -100 l 21 -100 z "},":":{"ha":365,"x_min":89,"x_max":278,"o":"m 90 32 l 90 157 q 124 192 90 192 l 243 192 q 278 157 278 192 l 278 32 q 243 0 278 0 l 124 0 q 99 9 108 0 q 90 32 90 18 m 90 578 l 90 703 q 124 738 90 738 l 243 738 q 278 703 278 738 l 278 578 q 243 546 278 546 l 124 546 q 97 558 103 546 q 90 578 90 569 z "},";":{"ha":367,"x_min":89,"x_max":279,"o":"m 90 35 l 90 156 q 99 183 90 172 q 125 193 108 193 l 242 193 q 275 156 275 193 l 275 -15 q 256 -85 275 -58 q 211 -119 238 -112 q 154 -129 179 -129 q 115 -126 129 -129 l 97 -122 l 97 -56 q 126 -49 115 -56 q 140 -19 140 -40 l 140 0 l 125 0 q 100 10 110 0 q 90 35 90 19 m 92 579 l 92 704 q 125 739 92 739 l 244 739 q 279 704 279 739 l 279 579 q 244 547 279 547 l 125 547 q 98 558 104 547 q 92 579 92 569 z "},"<":{"ha":625,"x_min":51,"x_max":574,"o":"m 53 400 l 53 579 l 574 781 l 574 600 l 260 490 l 574 368 l 574 186 l 53 400 z "},"=":{"ha":649,"x_min":28,"x_max":621,"o":"m 28 256 l 28 419 l 621 419 l 621 256 l 28 256 m 28 554 l 28 718 l 621 718 l 621 554 l 28 554 z "},">":{"ha":625,"x_min":51,"x_max":574,"o":"m 53 186 l 53 368 l 367 490 l 53 600 l 53 781 l 574 579 l 574 400 l 53 186 z "},"?":{"ha":753,"x_min":21,"x_max":713,"o":"m 21 992 q 339 1028 208 1028 q 413 1026 374 1028 q 642 942 567 1026 q 713 754 713 863 l 713 653 q 449 393 713 393 q 397 396 424 393 l 397 271 l 240 271 l 240 542 l 399 542 q 519 656 519 547 l 519 729 q 483 818 519 790 q 367 846 446 846 l 21 846 l 21 992 m 225 157 q 258 192 225 192 l 379 192 q 413 157 413 192 l 413 32 q 379 0 413 0 l 258 0 q 234 9 243 0 q 225 32 225 18 l 225 157 z "},"@":{"ha":1206,"x_min":68,"x_max":1118,"o":"m 356 711 l 622 711 q 814 653 757 711 q 865 494 865 600 l 865 0 l 740 0 l 713 82 q 702 72 713 82 q 672 49 692 63 q 628 21 653 35 q 491 -12 568 -12 q 367 42 414 -12 q 319 174 319 97 l 319 232 q 372 374 319 325 q 522 424 425 424 l 710 424 q 711 468 711 453 q 710 483 711 483 q 690 541 710 526 q 624 556 671 556 l 356 556 q 236 496 258 556 q 225 431 225 469 l 225 31 q 311 -114 225 -87 q 356 -119 332 -119 l 818 -119 q 930 -83 899 -119 q 961 31 961 -46 l 961 665 q 922 785 961 743 q 818 828 883 828 l 257 828 l 257 946 q 438 972 321 960 q 613 983 554 983 q 679 983 671 983 l 818 983 q 1025 913 940 983 q 1117 665 1117 835 l 1117 31 q 1045 -201 1117 -124 q 825 -278 974 -278 l 356 -278 q 149 -206 228 -278 q 69 15 69 -135 l 69 438 q 235 693 69 639 q 356 711 288 711 m 547 143 q 549 143 549 143 q 551 143 550 143 q 710 204 646 143 l 710 314 l 544 299 q 483 235 483 293 q 483 216 483 233 q 483 197 483 199 q 501 159 483 175 q 547 143 518 143 z "},"A":{"ha":961,"x_min":47,"x_max":942,"o":"m 47 0 l 390 1017 l 611 1017 l 942 0 l 735 0 l 663 225 l 329 225 l 256 0 l 47 0 m 381 397 l 617 397 l 503 761 l 381 397 z "},"B":{"ha":839,"x_min":83,"x_max":807,"o":"m 85 0 l 85 1017 l 504 1017 q 721 941 651 1017 q 790 744 790 865 q 756 603 790 667 q 651 528 721 540 q 763 453 718 515 q 807 299 807 392 q 735 76 807 153 q 507 0 664 0 l 85 0 m 613 307 q 585 410 613 369 q 500 450 557 450 l 279 450 l 279 172 l 500 171 q 613 307 613 171 m 279 614 l 492 614 q 572 644 544 614 q 599 733 599 674 q 568 819 599 793 q 492 844 538 844 l 279 844 l 279 614 z "},"C":{"ha":793,"x_min":57,"x_max":758,"o":"m 128 892 q 282 1013 183 983 q 404 1028 336 1028 q 758 982 603 1028 l 758 829 q 748 831 758 829 q 720 833 738 832 q 679 837 703 835 q 627 841 656 839 q 571 844 599 843 q 454 849 506 849 q 374 842 403 849 q 319 817 346 836 q 281 761 293 799 q 253 504 253 681 q 294 249 253 328 q 450 171 335 171 q 714 179 581 171 l 758 182 l 758 31 q 436 -8 633 -8 q 404 -8 421 -8 q 138 125 218 -7 q 58 517 58 257 q 128 892 58 778 z "},"D":{"ha":919,"x_min":83,"x_max":869,"o":"m 85 0 l 85 1017 l 517 1017 q 869 504 869 1017 q 718 65 869 188 q 517 0 638 0 l 85 0 m 675 506 q 594 818 675 758 q 501 844 558 844 l 279 844 l 279 174 l 501 174 q 675 506 675 174 z "},"E":{"ha":788,"x_min":81,"x_max":750,"o":"m 156 979 q 224 1008 190 1000 q 278 1017 258 1017 q 479 1012 299 1017 q 749 994 660 1007 l 749 833 l 347 833 q 283 808 296 833 q 275 756 275 789 l 275 597 l 686 583 l 686 422 l 275 410 l 275 251 q 304 188 275 199 q 361 179 325 179 l 749 179 l 749 19 q 406 0 679 10 l 315 -4 q 290 -4 304 -4 q 251 -2 275 -4 q 194 13 228 0 q 136 46 161 25 q 81 200 81 96 l 81 806 q 156 979 81 932 z "},"F":{"ha":788,"x_min":81,"x_max":750,"o":"m 81 0 l 81 803 q 221 1007 81 968 q 276 1017 256 1017 q 478 1012 297 1017 q 749 994 660 1007 l 749 833 l 347 833 q 283 808 296 833 q 275 756 275 789 l 275 597 l 686 583 l 686 422 l 275 410 l 275 0 l 81 0 z "},"G":{"ha":853,"x_min":57,"x_max":797,"o":"m 92 203 q 81 239 92 203 q 65 347 71 275 q 58 513 58 418 q 66 681 58 608 q 95 822 74 754 q 154 933 117 889 q 390 1028 233 1028 q 591 1019 508 1028 q 781 983 674 1010 l 781 832 q 758 835 779 832 q 701 841 736 838 q 624 847 665 844 q 436 856 524 856 q 289 781 325 856 q 253 508 253 707 q 286 243 253 310 q 428 175 321 175 q 513 191 469 175 q 579 222 557 207 l 601 239 l 601 421 l 460 421 l 460 544 q 701 578 542 578 q 796 575 746 578 l 796 0 l 657 0 l 604 68 q 500 8 556 22 q 244 17 349 -29 q 148 88 183 43 q 92 203 113 132 z "},"H":{"ha":883,"x_min":83,"x_max":822,"o":"m 85 0 l 85 1017 l 279 1017 l 279 581 l 628 581 l 628 1017 l 822 1017 l 822 0 l 628 0 l 628 403 l 279 403 l 279 0 l 85 0 z "},"I":{"ha":340,"x_min":83,"x_max":279,"o":"m 85 0 l 85 1017 l 279 1017 l 279 0 l 85 0 z "},"J":{"ha":494,"x_min":36,"x_max":433,"o":"m 360 25 q 202 -7 307 -7 q 38 32 97 -7 l 40 183 q 112 179 88 179 q 147 181 136 179 q 239 314 238 183 l 239 1017 l 433 1017 l 433 229 q 430 156 433 186 q 409 85 426 125 q 360 25 392 46 z "},"K":{"ha":872,"x_min":83,"x_max":838,"o":"m 85 0 l 85 1017 l 271 1017 l 271 592 l 353 592 l 611 1017 l 838 1017 l 526 507 l 838 0 l 611 0 l 353 419 l 272 419 l 272 0 l 85 0 z "},"L":{"ha":749,"x_min":83,"x_max":714,"o":"m 85 197 l 85 1017 l 279 1017 l 279 251 q 308 188 279 199 q 365 179 329 179 l 714 179 l 714 0 l 296 0 q 85 197 85 0 z "},"M":{"ha":1176,"x_min":57,"x_max":1121,"o":"m 58 0 l 147 1017 l 418 1017 l 588 322 l 756 1017 l 1025 1017 l 1119 0 l 928 0 l 861 679 l 697 0 l 481 0 l 310 679 l 250 0 l 58 0 z "},"N":{"ha":942,"x_min":83,"x_max":881,"o":"m 85 0 l 85 1017 l 282 1017 l 685 360 l 685 1017 l 879 1017 l 879 0 l 685 0 l 281 650 l 281 0 l 85 0 z "},"O":{"ha":932,"x_min":68,"x_max":886,"o":"m 91 251 q 86 276 91 251 q 75 363 81 300 q 69 513 69 425 q 80 680 69 601 q 108 813 90 758 q 157 907 126 868 q 219 968 188 946 q 296 1003 250 990 q 448 1024 368 1024 q 565 1021 528 1024 q 642 1009 601 1018 q 713 983 683 1000 q 772 941 742 967 q 821 876 801 915 q 856 785 840 836 q 886 544 886 682 q 876 333 886 407 q 849 205 865 258 q 803 113 832 151 q 744 52 775 75 q 668 17 713 29 q 397 -3 565 -14 q 272 18 311 1 q 205 53 233 35 q 157 99 176 72 q 119 165 138 126 q 91 251 101 203 m 279 710 q 276 692 279 710 q 268 622 272 674 q 264 493 264 571 q 269 360 264 415 q 288 267 275 306 q 328 208 301 228 q 478 174 375 174 q 624 210 575 174 q 692 501 692 261 q 674 717 692 664 q 642 792 657 769 q 601 826 628 814 q 500 844 558 844 q 419 842 442 844 q 370 833 396 840 q 330 812 344 826 q 301 772 315 797 q 279 710 286 747 z "},"P":{"ha":836,"x_min":71,"x_max":792,"o":"m 71 0 l 71 1017 l 508 1017 q 728 932 660 1017 q 790 703 790 856 q 772 550 790 614 q 726 452 753 486 q 657 400 699 418 q 536 375 603 375 q 379 388 488 375 q 265 403 271 400 l 265 0 l 71 0 m 493 844 l 265 844 l 265 547 l 493 547 q 547 560 526 547 q 594 701 594 588 q 493 844 593 844 z "},"Q":{"ha":932,"x_min":68,"x_max":886,"o":"m 78 321 q 74 368 78 321 q 69 497 69 415 q 76 644 69 579 q 93 760 82 710 q 122 849 104 810 q 160 915 140 888 q 210 963 181 943 q 266 994 239 982 q 331 1013 293 1006 q 459 1024 392 1024 q 563 1021 526 1024 q 641 1009 600 1018 q 712 983 682 1000 q 771 941 742 967 q 819 876 800 915 q 856 785 839 836 q 886 501 886 682 q 822 144 886 269 q 717 38 789 79 q 476 -6 643 -4 q 238 33 307 -6 q 132 138 163 74 q 78 321 88 226 m 279 710 q 276 692 279 710 q 268 622 272 674 q 264 493 264 571 q 269 360 264 415 q 288 267 275 306 q 326 208 301 228 q 469 174 375 174 q 606 199 563 174 q 671 294 650 224 q 692 472 692 364 q 687 637 692 581 q 669 731 682 693 q 642 792 657 769 q 600 826 628 814 q 499 844 558 844 q 417 842 440 844 q 369 833 394 840 q 329 812 343 826 q 301 772 315 797 q 279 710 286 747 m 753 -242 q 660 -250 703 -250 q 576 -237 618 -250 q 499 -201 533 -224 q 442 -137 465 -178 q 417 -46 419 -97 l 526 -46 q 644 -101 560 -101 q 753 -85 690 -101 l 753 -242 z "},"R":{"ha":843,"x_min":71,"x_max":824,"o":"m 515 1017 q 714 949 649 1017 q 793 700 793 868 q 711 440 793 504 q 671 414 685 419 q 631 400 657 408 l 824 0 l 604 0 l 436 385 l 265 404 l 265 0 l 71 0 l 71 1017 l 515 1017 m 267 557 l 497 557 q 574 585 551 557 q 597 697 597 613 q 572 813 597 782 q 497 844 547 844 l 267 844 l 267 557 z "},"S":{"ha":819,"x_min":68,"x_max":775,"o":"m 69 675 l 69 763 q 149 969 69 908 q 344 1025 221 1024 q 415 1025 361 1025 q 572 1014 468 1025 q 738 985 675 1003 l 738 832 q 485 846 579 846 q 385 846 392 846 q 293 829 322 846 q 264 747 264 813 l 264 697 q 288 619 264 639 q 372 600 311 600 l 533 600 q 746 474 692 600 q 774 331 774 410 l 774 263 q 650 19 774 76 q 493 -11 586 -11 q 100 31 242 -11 l 100 183 q 367 168 253 168 q 499 171 481 168 q 538 182 518 174 q 579 256 579 200 l 579 310 q 533 399 579 382 q 488 406 515 406 l 332 406 q 69 675 69 406 z "},"T":{"ha":824,"x_min":43,"x_max":796,"o":"m 43 838 l 43 1017 l 794 1017 l 794 838 l 513 838 l 513 0 l 318 0 l 318 838 l 43 838 z "},"U":{"ha":922,"x_min":83,"x_max":861,"o":"m 476 -7 l 457 -7 q 235 28 290 -7 q 176 77 210 44 q 126 157 143 110 q 85 444 85 274 l 85 1017 l 279 1017 l 279 444 q 306 249 279 311 q 399 178 329 193 q 487 172 429 172 q 583 193 544 172 q 665 444 665 238 l 665 1017 l 861 1017 l 861 444 q 797 128 861 226 q 756 72 776 93 q 705 34 736 50 q 651 10 674 18 q 592 -1 629 3 q 476 -7 544 -7 z "},"V":{"ha":951,"x_min":47,"x_max":926,"o":"m 47 1017 l 254 1017 l 481 256 l 719 1017 l 926 1017 l 592 0 l 367 0 l 47 1017 z "},"W":{"ha":1378,"x_min":47,"x_max":1354,"o":"m 47 1017 l 254 1017 l 479 263 l 663 1017 l 871 1017 l 800 754 l 961 258 l 1147 1017 l 1353 1017 l 1074 0 l 849 0 l 711 417 l 592 0 l 367 0 l 47 1017 z "},"X":{"ha":890,"x_min":47,"x_max":865,"o":"m 47 1017 l 263 1017 l 454 669 l 650 1017 l 865 1017 l 560 510 l 858 0 l 643 0 l 454 342 l 267 0 l 51 0 l 350 510 l 47 1017 z "},"Y":{"ha":911,"x_min":47,"x_max":886,"o":"m 551 0 l 357 0 l 357 315 l 47 1017 l 258 1017 l 457 529 l 675 1017 l 886 1017 l 551 315 l 551 0 z "},"Z":{"ha":772,"x_min":36,"x_max":738,"o":"m 38 0 l 38 179 l 503 838 l 38 838 l 38 1017 l 738 1017 l 738 838 l 294 179 l 738 179 l 738 0 l 38 0 z "},"[":{"ha":463,"x_min":89,"x_max":444,"o":"m 90 -14 l 90 908 q 139 1090 90 1018 q 325 1169 193 1169 l 443 1169 l 443 1006 l 371 1006 q 285 885 285 1006 l 285 -7 q 371 -128 285 -128 l 443 -128 l 443 -292 l 325 -292 q 222 -273 265 -292 q 153 -227 178 -254 q 114 -160 129 -200 q 90 -14 90 -97 z "},"\\":{"ha":633,"x_min":21,"x_max":614,"o":"m 21 1069 l 222 1069 l 613 -100 l 411 -100 l 21 1069 z "},"]":{"ha":463,"x_min":21,"x_max":375,"o":"m 21 -128 l 94 -128 q 181 -7 181 -128 l 181 885 q 94 1006 181 1006 l 21 1006 l 21 1169 l 140 1169 q 360 1019 315 1169 q 375 908 375 971 l 375 -14 q 333 -196 375 -133 q 140 -292 271 -292 l 21 -292 l 21 -128 z "},"^":{"ha":533,"x_min":51,"x_max":482,"o":"m 53 738 l 203 925 l 347 925 l 481 738 l 351 738 l 271 821 l 183 738 l 53 738 z "},"_":{"ha":936,"x_min":28,"x_max":908,"o":"m 28 -1 l 28 163 l 908 163 l 908 -1 l 28 -1 z "},"`":{"ha":338,"x_min":21,"x_max":318,"o":"m 21 931 l 192 931 l 317 738 l 190 738 l 21 931 z "},"a":{"ha":721,"x_min":42,"x_max":669,"o":"m 67 701 q 404 751 193 751 q 601 698 532 751 q 669 514 669 644 l 669 0 l 515 0 l 475 81 q 440 51 469 71 q 357 11 410 31 q 256 -8 304 -8 q 97 51 153 -8 q 42 188 42 110 l 42 257 q 94 403 42 346 q 257 459 147 460 q 421 458 367 458 q 475 460 475 458 q 475 494 475 482 q 475 507 475 506 q 451 580 475 563 q 357 597 428 597 q 67 582 286 597 l 67 701 m 236 215 q 254 160 236 174 q 307 147 272 147 q 384 162 342 147 q 450 190 426 176 l 475 206 l 475 340 l 296 326 q 236 251 236 321 l 236 215 z "},"b":{"ha":772,"x_min":63,"x_max":722,"o":"m 257 1090 l 257 700 q 481 749 361 749 q 633 700 582 749 q 704 567 688 650 q 721 365 721 485 q 665 89 721 186 q 481 -8 610 -8 q 360 17 421 -8 q 258 75 299 42 l 224 0 l 64 0 l 64 1090 l 257 1090 m 431 158 q 503 206 479 158 q 526 359 526 254 q 515 514 526 464 q 483 580 503 564 q 431 596 464 596 q 258 568 329 596 l 258 203 q 431 158 329 158 z "},"c":{"ha":686,"x_min":51,"x_max":646,"o":"m 53 369 q 70 556 53 481 q 122 672 88 632 q 197 728 156 711 q 296 744 239 744 q 635 701 500 744 l 635 581 q 424 589 503 589 q 330 586 346 589 q 294 572 314 583 q 267 538 275 561 q 247 376 247 481 q 260 225 247 271 q 299 165 274 179 q 381 150 325 150 q 607 160 493 150 l 644 163 l 644 40 q 519 1 581 7 q 363 -7 429 -7 l 354 -7 q 296 -7 301 -7 q 124 67 186 -7 q 53 369 53 149 z "},"d":{"ha":772,"x_min":51,"x_max":711,"o":"m 53 349 q 53 432 53 349 q 74 583 53 515 q 121 682 94 651 q 293 749 178 749 q 406 735 343 749 q 517 700 468 722 l 517 1090 l 711 1090 l 711 0 l 550 0 l 517 75 q 415 17 476 42 q 293 -8 354 -8 q 108 87 164 -8 q 53 349 53 182 m 290 580 q 281 572 290 580 q 259 514 271 564 q 247 359 247 464 q 271 206 247 254 q 344 158 294 158 q 517 203 446 158 l 517 568 q 344 596 444 596 q 290 580 310 596 z "},"e":{"ha":729,"x_min":51,"x_max":688,"o":"m 251 735 q 363 743 300 743 q 460 741 425 743 q 530 733 494 739 q 588 715 565 726 q 631 683 610 703 q 663 635 651 663 q 688 491 688 572 q 664 368 688 410 q 482 289 618 289 l 247 289 q 256 211 247 240 q 286 169 264 182 q 333 152 308 156 q 465 149 357 149 q 674 164 574 149 l 674 32 q 548 3 611 8 q 461 -4 485 -3 q 403 -6 438 -6 q 296 -7 357 -7 q 106 79 158 -7 q 53 359 53 165 q 95 634 53 553 q 251 735 138 715 m 493 485 q 474 574 493 554 q 399 594 456 594 q 320 591 342 594 q 278 572 299 588 q 253 524 258 556 q 247 463 247 492 q 247 429 247 435 l 432 429 q 493 485 493 429 z "},"f":{"ha":560,"x_min":21,"x_max":540,"o":"m 21 589 l 21 714 l 136 738 l 136 875 q 186 1035 136 978 q 347 1092 236 1092 q 540 1058 458 1092 l 540 943 l 407 944 q 335 903 343 946 q 331 829 331 879 l 331 738 l 499 738 l 499 589 l 331 589 l 331 0 l 136 0 l 136 589 l 21 589 z "},"g":{"ha":778,"x_min":49,"x_max":758,"o":"m 281 207 q 225 175 225 207 q 240 145 225 153 q 281 138 254 138 l 507 138 q 667 83 610 138 q 725 -82 725 28 l 725 -161 q 588 -362 725 -322 q 494 -375 547 -375 l 286 -375 q 74 -256 124 -375 q 56 -161 56 -215 l 56 -68 l 121 0 q 69 54 89 17 q 49 140 49 92 q 70 224 49 189 q 135 274 92 260 q 54 478 54 325 q 310 740 54 740 l 758 740 l 758 624 l 676 599 q 680 590 676 597 q 685 578 683 582 q 689 568 686 575 q 693 556 692 561 q 697 542 694 550 q 699 525 699 533 q 701 506 700 517 q 704 453 704 486 q 698 388 704 419 q 674 322 692 356 q 631 264 657 288 q 451 207 568 207 l 281 207 m 251 -137 q 273 -203 251 -187 q 339 -219 294 -219 l 453 -219 q 517 -199 501 -219 q 532 -142 532 -179 l 532 -87 q 515 -37 532 -54 q 460 -19 499 -21 l 310 -19 l 251 -15 l 251 -137 m 249 478 q 338 364 249 364 l 415 364 q 510 472 510 364 q 469 574 510 551 q 414 585 449 585 l 340 585 q 267 556 286 585 q 249 478 249 526 z "},"h":{"ha":764,"x_min":63,"x_max":713,"o":"m 64 0 l 64 1088 l 257 1088 l 257 658 q 418 743 357 731 q 492 750 451 750 q 713 492 713 750 l 713 0 l 518 0 l 518 494 q 436 594 518 594 q 342 580 381 594 q 258 531 303 565 l 258 0 l 64 0 z "},"i":{"ha":315,"x_min":51,"x_max":264,"o":"m 53 847 l 53 969 q 86 1006 53 1006 l 232 1006 q 263 969 263 1006 l 263 847 q 232 815 263 815 l 86 815 q 62 824 71 815 q 53 847 53 832 m 60 0 l 60 738 l 254 738 l 254 0 l 60 0 z "},"j":{"ha":336,"x_min":63,"x_max":275,"o":"m 64 847 l 64 969 q 97 1006 64 1006 l 243 1006 q 267 995 258 1006 q 275 969 275 985 l 275 847 q 243 815 275 815 l 97 815 q 73 824 82 815 q 64 847 64 832 m 72 -375 l 72 738 l 267 738 l 267 -6 q 267 -76 267 -19 q 215 -375 267 -262 l 72 -375 z "},"k":{"ha":774,"x_min":63,"x_max":754,"o":"m 64 0 l 64 1086 l 258 1086 l 258 490 l 299 490 l 507 738 l 754 738 l 478 417 l 754 0 l 522 0 l 299 342 l 258 342 l 258 0 l 64 0 z "},"l":{"ha":435,"x_min":63,"x_max":415,"o":"m 64 263 l 64 1088 l 258 1088 l 258 293 q 274 190 258 219 q 322 149 289 161 q 415 119 406 119 l 415 0 l 254 0 q 112 60 160 0 q 64 263 64 121 z "},"m":{"ha":1215,"x_min":63,"x_max":1165,"o":"m 514 492 q 432 592 514 592 q 340 578 376 592 q 258 529 304 564 l 258 0 l 64 0 l 64 738 l 219 738 l 258 658 q 286 678 263 661 q 332 708 310 694 q 397 735 354 722 q 488 749 439 749 q 679 653 631 749 q 944 749 810 749 q 1164 489 1164 749 l 1164 0 l 969 0 l 969 492 q 922 586 969 567 q 888 592 907 592 q 707 533 776 592 l 708 490 l 708 0 l 514 0 l 514 492 z "},"n":{"ha":764,"x_min":63,"x_max":713,"o":"m 492 750 q 713 492 713 750 l 713 0 l 518 0 l 518 494 q 436 594 518 594 q 342 580 381 594 q 258 531 303 565 l 258 0 l 64 0 l 64 738 l 219 738 l 258 658 q 419 743 360 732 q 492 750 451 750 z "},"o":{"ha":778,"x_min":51,"x_max":726,"o":"m 53 354 q 64 515 53 450 q 99 624 75 579 q 164 696 122 669 q 389 744 240 744 q 652 661 579 744 q 725 365 725 578 q 653 72 725 151 q 389 -7 582 -7 q 125 78 200 -7 q 53 354 53 160 m 276 550 q 267 538 276 550 q 253 481 258 525 q 247 363 247 438 q 254 246 247 288 q 280 183 261 204 q 322 156 299 161 q 386 150 346 150 q 447 153 426 150 q 485 167 467 156 q 513 201 504 178 q 531 337 531 251 q 527 462 531 422 q 515 528 524 501 q 489 567 507 556 q 399 588 457 588 q 317 582 342 589 q 276 550 293 575 z "},"p":{"ha":772,"x_min":63,"x_max":722,"o":"m 257 664 q 359 721 297 696 q 484 746 421 746 q 594 719 547 746 q 669 642 642 693 q 721 372 721 544 q 654 61 721 147 q 481 -11 596 -11 q 368 2 431 -11 q 257 36 306 15 l 257 -375 l 64 -375 l 64 738 l 224 738 l 257 664 m 431 142 q 483 157 464 142 q 526 364 526 193 q 503 531 526 483 q 431 579 479 579 q 257 535 328 579 l 257 169 q 431 142 329 142 z "},"q":{"ha":771,"x_min":51,"x_max":708,"o":"m 53 372 q 322 746 53 746 q 538 733 426 746 q 708 704 650 719 l 708 -375 l 514 -375 l 514 40 q 322 -14 433 -14 q 112 81 171 -14 q 53 372 53 176 m 253 481 q 251 462 253 481 q 248 424 249 443 q 247 369 247 406 q 248 310 247 333 q 251 255 249 288 q 262 206 254 222 q 281 171 269 189 q 354 139 303 139 q 437 145 406 139 q 514 169 468 151 l 514 597 l 361 597 q 282 558 306 597 q 253 481 257 518 z "},"r":{"ha":579,"x_min":63,"x_max":553,"o":"m 64 0 l 64 738 l 228 738 l 258 644 q 469 744 363 744 q 551 736 529 744 l 551 549 q 446 553 513 553 q 335 535 379 553 q 258 471 292 518 l 258 0 l 64 0 z "},"s":{"ha":706,"x_min":42,"x_max":665,"o":"m 233 744 q 628 707 563 744 l 628 585 l 293 585 q 247 574 258 585 q 236 533 236 563 l 236 500 q 250 460 236 468 q 293 453 264 453 l 468 453 q 581 426 536 453 q 664 263 664 379 l 664 186 q 613 38 664 82 q 483 -7 561 -7 q 72 33 133 -7 l 72 154 l 421 154 q 469 201 469 154 l 469 236 q 459 272 469 261 q 421 283 449 283 l 249 283 q 42 482 42 283 l 42 546 q 233 744 42 744 z "},"t":{"ha":529,"x_min":21,"x_max":500,"o":"m 21 590 l 21 699 l 140 739 l 172 944 l 335 944 l 335 739 l 500 739 l 500 590 l 335 590 l 335 294 q 350 190 335 219 q 397 149 365 161 q 490 119 481 119 l 490 0 l 321 0 q 140 264 140 0 l 140 590 l 21 590 z "},"u":{"ha":764,"x_min":51,"x_max":701,"o":"m 247 738 l 247 243 q 329 144 247 144 q 451 171 401 144 q 507 208 476 185 l 507 738 l 701 738 l 701 0 l 544 0 l 507 78 q 472 57 494 71 q 438 35 450 43 q 405 17 425 28 q 367 1 385 7 q 272 -12 324 -12 q 53 247 53 -12 l 53 738 l 247 738 z "},"v":{"ha":783,"x_min":21,"x_max":764,"o":"m 21 738 l 229 738 l 390 228 l 556 738 l 764 738 l 496 0 l 278 0 l 21 738 z "},"w":{"ha":1147,"x_min":21,"x_max":1128,"o":"m 21 738 l 229 738 l 376 228 l 508 738 l 703 738 l 651 539 l 774 228 l 919 738 l 1128 738 l 889 0 l 672 0 l 561 267 l 478 0 l 257 0 l 21 738 z "},"x":{"ha":794,"x_min":25,"x_max":769,"o":"m 25 0 l 281 369 l 25 738 l 261 738 l 396 517 l 535 738 l 769 738 l 511 365 l 758 0 l 535 0 l 397 218 l 261 0 l 25 0 z "},"y":{"ha":803,"x_min":22,"x_max":779,"o":"m 22 738 l 226 738 l 354 221 q 422 168 368 168 q 428 167 426 167 l 575 738 l 778 738 l 522 -233 l 421 -375 l 282 -375 l 386 0 q 167 188 217 0 l 22 738 z "},"z":{"ha":658,"x_min":31,"x_max":628,"o":"m 32 574 l 32 738 l 628 738 l 628 574 l 311 165 l 628 165 l 628 1 l 53 1 l 53 164 l 383 574 l 32 574 z "},"{":{"ha":446,"x_min":21,"x_max":426,"o":"m 124 610 l 124 911 q 199 1100 124 1031 q 425 1169 274 1169 l 425 1006 q 343 973 368 1006 q 318 850 318 940 l 318 599 q 185 464 318 479 q 281 419 244 453 q 317 333 317 385 l 317 0 q 419 -136 317 -136 q 425 -136 422 -136 l 425 -292 q 192 -230 263 -292 q 122 -53 122 -168 l 122 317 q 95 372 122 354 q 33 390 68 390 q 21 390 28 390 l 21 536 q 114 574 96 543 q 124 610 124 589 z "},"|":{"ha":343,"x_min":90,"x_max":256,"o":"m 90 -100 l 90 1069 l 254 1069 l 254 -100 l 90 -100 z "},"}":{"ha":446,"x_min":21,"x_max":426,"o":"m 26 -136 q 105 -103 79 -136 q 131 0 131 -69 l 131 333 q 166 419 131 385 q 263 464 201 453 q 129 599 129 479 l 129 850 q 103 973 129 940 q 21 1006 78 1006 l 21 1169 q 248 1100 172 1169 q 324 911 324 1031 l 324 610 q 357 551 324 567 q 425 536 385 540 l 425 390 q 399 390 419 390 q 351 372 378 390 q 325 317 325 354 l 325 -53 q 254 -230 325 -168 q 21 -292 183 -292 l 21 -136 q 26 -136 24 -136 z "},"~":{"ha":582,"x_min":51,"x_max":531,"o":"m 100 863 q 109 871 100 863 q 151 897 118 879 q 218 914 185 914 q 296 890 251 914 q 367 865 340 865 q 371 865 368 865 q 496 921 429 865 l 529 838 q 422 747 469 765 q 369 738 397 738 q 291 762 340 738 q 223 786 242 786 q 194 785 204 786 q 174 781 185 785 q 157 776 164 778 q 139 767 150 774 q 123 759 128 761 q 105 749 118 757 q 86 738 92 740 l 53 814 q 100 863 82 846 z "},"¡":{"ha":383,"x_min":90,"x_max":289,"o":"m 97 488 l 97 608 q 131 640 97 638 l 249 640 q 274 626 267 639 q 282 604 282 614 l 282 488 q 250 450 281 450 l 131 450 q 97 488 97 450 m 90 -375 l 110 365 l 269 365 l 289 -375 l 90 -375 z "},"¢":{"ha":676,"x_min":42,"x_max":635,"o":"m 113 65 q 95 85 113 65 q 60 181 78 106 q 42 369 42 257 q 60 558 42 482 q 192 731 92 694 q 262 746 232 746 q 296 746 292 746 l 296 881 l 415 881 l 415 742 q 625 700 536 729 l 625 579 q 414 589 492 589 q 319 587 336 589 q 284 574 303 585 q 256 538 265 563 q 236 376 236 482 q 249 224 236 271 q 288 163 263 178 q 369 149 314 149 q 596 158 482 149 l 635 161 l 635 39 q 413 -7 549 -4 l 413 -132 l 293 -132 l 293 -8 q 191 8 233 -8 q 113 65 149 25 z "},"£":{"ha":808,"x_min":51,"x_max":757,"o":"m 53 0 l 53 150 l 144 179 l 144 436 l 53 436 l 53 536 l 144 567 l 144 671 q 164 838 144 788 q 200 915 183 889 q 241 959 217 942 q 292 988 265 976 q 353 1006 318 1000 q 475 1017 414 1017 q 710 1000 571 1017 l 757 994 l 757 839 l 494 839 q 419 835 443 839 q 373 817 394 832 q 345 772 351 801 q 339 688 339 742 l 339 567 l 647 544 l 647 436 l 339 436 l 339 179 l 756 179 l 756 0 l 53 0 z "},"¤":{"ha":619,"x_min":53,"x_max":567,"o":"m 185 614 q 308 653 240 653 q 433 614 376 653 l 497 679 l 567 614 l 499 544 q 529 427 529 494 q 489 303 529 360 l 556 236 l 490 167 l 417 238 q 306 207 367 207 q 190 243 244 207 l 126 176 l 58 246 l 124 313 q 89 431 89 368 q 119 544 89 494 l 54 608 l 121 676 l 185 614 m 309 544 q 286 544 309 544 q 230 511 263 544 q 197 431 197 478 q 230 351 197 385 q 309 317 263 317 q 388 351 356 317 q 421 431 421 385 q 388 511 421 478 q 309 544 356 544 z "},"¥":{"ha":881,"x_min":21,"x_max":861,"o":"m 729 469 l 729 356 l 525 356 l 525 306 l 729 306 l 729 193 l 525 193 l 525 0 l 331 0 l 331 193 l 136 193 l 136 306 l 331 306 l 331 356 l 136 356 l 136 469 l 283 469 l 21 1017 l 233 1017 l 431 558 l 646 1017 l 860 1017 l 575 469 l 729 469 z "},"¦":{"ha":344,"x_min":90,"x_max":256,"o":"m 90 -100 l 90 356 l 254 356 l 254 -100 l 90 -100 m 90 596 l 90 1069 l 254 1069 l 254 596 l 90 596 z "},"§":{"ha":751,"x_min":57,"x_max":696,"o":"m 58 819 l 58 886 q 172 1076 58 1036 q 275 1089 208 1089 q 466 1081 342 1089 q 642 1063 590 1074 l 642 925 l 307 925 q 258 904 271 925 q 253 875 253 893 l 253 826 q 308 779 253 779 l 479 779 q 645 736 594 779 q 694 604 696 693 l 694 556 q 614 407 694 428 q 693 269 693 393 l 693 192 q 501 -11 693 -11 q 281 -3 406 -11 q 110 15 157 4 l 110 153 l 439 153 q 490 165 479 153 q 500 196 500 178 l 500 251 q 487 288 500 278 q 442 297 474 297 l 269 297 q 113 334 165 297 q 60 467 60 371 l 60 515 q 96 649 60 615 q 143 675 114 665 q 58 819 58 711 m 253 508 q 265 464 253 472 q 315 453 283 453 l 435 453 q 488 464 479 453 q 500 510 500 479 l 500 563 q 471 618 500 611 q 435 622 457 622 l 315 622 q 265 609 276 622 q 253 560 253 596 l 253 508 z "},"¨":{"ha":622,"x_min":51,"x_max":571,"o":"m 77 751 q 65 763 77 751 q 53 808 53 775 q 77 865 53 842 q 135 889 101 889 q 192 865 168 889 q 215 808 215 842 q 192 751 215 775 q 135 726 168 726 q 77 751 101 726 m 431 751 q 419 763 431 751 q 407 808 407 775 q 431 865 407 842 q 489 889 456 889 q 546 865 522 889 q 569 808 569 842 q 546 751 569 775 q 489 726 522 726 q 431 751 456 726 z "},"©":{"ha":1111,"x_min":57,"x_max":1056,"o":"m 58 524 q 67 660 58 593 q 98 797 75 728 q 159 912 121 865 q 262 988 197 958 q 411 1017 326 1017 l 733 1017 q 873 986 814 1017 q 966 909 932 956 q 1021 793 1000 863 q 1054 511 1054 679 q 972 135 1054 269 q 733 0 889 0 l 411 0 q 163 122 254 0 q 58 524 58 260 m 185 514 q 208 315 185 401 q 283 174 231 229 q 411 119 336 119 l 725 119 q 830 158 786 119 q 901 285 874 196 q 928 511 928 374 q 899 768 928 693 q 811 881 864 856 q 733 897 776 897 l 411 897 q 253 824 313 897 q 185 514 185 739 m 310 507 q 510 810 310 810 q 636 801 561 810 q 765 776 711 792 l 765 674 q 540 690 649 690 q 461 648 485 690 q 438 508 438 606 q 462 367 438 411 q 546 324 486 324 q 774 346 647 324 l 774 243 q 517 204 678 204 q 326 357 367 204 q 310 507 310 418 z "},"ª":{"ha":508,"x_min":31,"x_max":478,"o":"m 32 364 l 32 461 l 478 461 l 478 364 l 32 364 m 49 989 q 281 1025 158 1025 q 383 1012 340 1025 q 451 963 425 999 q 476 868 476 926 l 476 525 l 363 525 l 326 588 q 275 545 319 571 q 185 519 231 519 q 72 558 113 519 q 32 647 32 596 l 32 696 q 69 791 32 754 q 181 828 107 828 q 291 828 256 828 q 326 828 326 828 q 327 863 328 850 q 317 888 326 875 q 251 907 303 907 q 125 901 199 907 q 49 896 51 896 l 49 989 m 172 674 q 185 640 172 649 q 224 632 199 632 q 275 640 249 632 q 314 658 301 649 l 326 667 l 326 749 l 215 739 q 172 693 172 736 l 172 674 z "},"«":{"ha":806,"x_min":51,"x_max":754,"o":"m 53 492 l 339 774 l 446 668 l 264 492 l 449 310 l 346 203 l 53 492 m 357 492 l 643 774 l 750 668 l 569 492 l 754 310 l 650 203 l 357 492 z "},"¬":{"ha":686,"x_min":46,"x_max":640,"o":"m 47 333 l 47 489 l 639 489 l 639 221 l 483 221 l 483 333 l 47 333 z "},"­":{"ha":492,"x_min":28,"x_max":464,"o":"m 28 321 l 28 485 l 464 485 l 464 321 l 28 321 z "},"®":{"ha":1111,"x_min":57,"x_max":1056,"o":"m 58 524 q 67 660 58 593 q 98 797 75 728 q 159 912 121 865 q 262 988 197 958 q 411 1017 326 1017 l 733 1017 q 873 986 814 1017 q 966 909 932 956 q 1021 793 1000 863 q 1054 511 1054 679 q 972 135 1054 269 q 733 0 889 0 l 411 0 q 163 122 254 0 q 58 524 58 260 m 185 514 q 208 315 185 401 q 283 174 231 229 q 411 119 336 119 l 725 119 q 830 158 786 119 q 901 285 874 196 q 928 511 928 374 q 899 768 928 693 q 811 881 864 856 q 733 897 776 897 l 411 897 q 253 824 313 897 q 185 514 185 739 m 597 806 q 783 619 783 806 q 754 492 783 531 q 675 439 725 453 l 796 213 l 658 213 l 543 433 l 471 450 l 471 213 l 344 213 l 344 806 l 597 806 m 471 542 l 575 542 q 643 555 629 542 q 657 615 657 568 q 638 674 657 663 q 575 686 619 686 l 471 686 l 471 542 z "},"¯":{"ha":510,"x_min":51,"x_max":458,"o":"m 53 738 l 53 847 l 458 847 l 458 738 l 53 738 z "},"°":{"ha":386,"x_min":51,"x_max":335,"o":"m 72 806 q 62 823 72 806 q 53 878 53 839 q 72 949 53 917 q 123 1001 90 982 q 194 1021 156 1021 q 265 1001 232 1021 q 316 949 297 982 q 335 878 335 917 q 316 806 335 839 q 265 755 297 774 q 194 736 232 736 q 123 755 156 736 q 72 806 90 774 m 194 940 q 182 940 194 940 q 151 922 169 940 q 132 882 132 903 q 140 847 132 861 q 189 817 158 817 q 237 835 219 817 q 254 878 254 853 q 237 922 254 903 q 194 940 219 940 z "},"±":{"ha":694,"x_min":58,"x_max":638,"o":"m 60 97 l 60 261 l 638 261 l 638 97 l 60 97 m 60 531 l 60 694 l 265 694 l 265 900 l 429 900 l 429 694 l 638 694 l 638 531 l 429 531 l 429 322 l 265 322 l 265 531 l 60 531 z "},"²":{"ha":556,"x_min":32,"x_max":513,"o":"m 33 1065 q 32 1098 32 1065 q 32 1150 32 1131 l 33 1178 q 272 1204 182 1204 q 402 1189 363 1204 q 465 1146 442 1174 q 513 1001 513 1092 q 272 664 513 856 l 511 664 l 511 525 l 38 525 l 38 657 q 272 843 200 771 q 333 917 306 876 q 360 994 360 957 q 336 1048 360 1031 q 254 1065 313 1065 l 33 1065 z "},"³":{"ha":567,"x_min":31,"x_max":506,"o":"m 268 518 q 38 546 113 518 l 39 657 l 260 657 q 335 668 315 657 q 354 713 354 679 l 354 729 q 332 777 354 764 q 265 792 310 790 l 94 799 l 94 918 l 265 928 q 335 942 314 929 q 357 986 357 956 l 357 1003 q 334 1047 357 1035 q 265 1058 311 1058 l 32 1058 l 32 1168 q 265 1197 110 1197 q 329 1197 296 1197 q 458 1150 411 1196 q 506 1029 506 1104 l 506 988 q 426 858 506 885 q 506 721 506 828 l 506 689 q 322 518 506 518 l 268 518 z "},"´":{"ha":338,"x_min":21,"x_max":318,"o":"m 21 738 l 147 931 l 317 931 l 147 738 l 21 738 z "},"µ":{"ha":817,"x_min":94,"x_max":744,"o":"m 290 738 l 290 243 q 371 144 290 144 q 494 171 443 144 q 550 208 519 185 l 550 738 l 744 738 l 744 0 l 588 0 l 550 78 q 522 61 542 74 q 492 44 501 49 q 466 30 483 39 q 436 15 449 21 q 290 6 357 -15 l 290 -375 l 96 -375 l 96 247 l 96 738 l 290 738 z "},"¶":{"ha":801,"x_min":42,"x_max":782,"o":"m 42 693 l 42 822 q 103 967 42 917 q 258 1017 164 1017 l 782 1017 l 782 872 l 708 872 l 708 0 l 567 0 l 567 875 l 475 875 l 475 -375 l 333 -375 l 333 517 q 322 510 333 517 q 258 493 294 493 q 97 549 151 493 q 42 693 42 606 m 183 710 q 210 646 183 661 q 267 635 232 635 l 333 635 l 333 876 l 267 876 q 200 856 217 876 q 183 794 183 836 l 183 710 z "},"·":{"ha":365,"x_min":89,"x_max":278,"o":"m 90 472 l 90 597 q 124 632 90 632 l 243 632 q 278 597 278 632 l 278 472 q 243 440 278 440 l 124 440 q 97 451 103 440 q 90 472 90 463 z "},"¸":{"ha":339,"x_min":51,"x_max":288,"o":"m 156 -51 l 286 -51 q 272 -167 286 -125 q 131 -247 246 -247 l 53 -247 l 53 -164 l 114 -143 q 149 -113 142 -132 q 156 -51 156 -94 z "},"¹":{"ha":375,"x_min":17,"x_max":308,"o":"m 307 1194 l 307 525 l 157 525 l 157 1058 l 17 1026 l 17 1118 l 158 1194 l 307 1194 z "},"º":{"ha":547,"x_min":31,"x_max":518,"o":"m 276 519 q 207 519 276 519 q 85 575 139 519 q 32 772 32 631 q 84 967 32 913 q 274 1022 136 1022 q 465 967 413 1022 q 517 769 517 911 q 465 574 517 628 q 276 519 413 519 m 50 367 l 50 463 l 497 463 l 497 367 l 50 367 m 202 879 q 196 872 202 879 q 186 839 190 865 q 182 760 182 813 q 193 681 182 708 q 221 647 204 654 q 271 640 238 640 q 318 643 304 640 q 344 658 332 646 q 367 753 367 678 q 358 858 367 829 q 331 894 349 886 q 279 901 314 901 q 229 897 244 901 q 202 879 214 893 z "},"»":{"ha":806,"x_min":51,"x_max":754,"o":"m 53 310 l 238 492 l 57 668 l 163 774 l 449 492 l 156 203 l 53 310 m 357 310 l 542 492 l 361 668 l 468 774 l 754 492 l 461 203 l 357 310 z "},"¼":{"ha":1293,"x_min":17,"x_max":1272,"o":"m 307 1025 l 307 354 l 157 354 l 157 888 l 17 856 l 17 947 l 158 1025 l 307 1025 m 243 0 l 817 1046 l 958 1046 l 385 0 l 243 0 m 1054 279 l 1054 421 l 1088 489 l 1204 489 l 1204 279 l 1272 279 l 1272 161 l 1204 136 l 1204 1 l 1054 1 l 1054 136 l 732 136 l 701 201 l 939 668 l 1097 668 l 904 279 l 1054 279 z "},"½":{"ha":1376,"x_min":17,"x_max":1335,"o":"m 307 1025 l 307 354 l 157 354 l 157 888 l 17 856 l 17 947 l 158 1025 l 307 1025 m 233 0 l 807 1046 l 947 1046 l 374 0 l 233 0 m 850 540 q 850 573 850 540 q 850 625 850 606 l 850 653 q 1117 679 1000 679 q 1284 624 1233 679 q 1335 476 1335 569 q 1092 139 1335 332 l 1333 139 l 1333 0 l 856 0 l 856 133 q 1093 324 1022 251 q 1154 399 1126 357 q 1182 475 1182 440 q 1158 525 1182 510 q 1074 540 1133 540 l 850 540 z "},"¾":{"ha":1450,"x_min":31,"x_max":1399,"o":"m 32 999 q 242 1026 108 1026 q 332 1026 283 1026 q 463 980 415 1026 q 510 858 510 933 l 510 817 q 431 688 510 715 q 510 550 510 657 l 510 518 q 325 349 510 349 q 293 349 318 349 q 260 349 268 349 q 231 349 253 349 q 201 349 210 349 q 172 351 192 350 q 143 353 153 351 q 117 356 133 354 q 89 361 100 358 q 38 376 57 369 l 39 486 l 263 488 q 340 499 319 488 q 360 542 360 510 l 360 560 q 337 606 360 593 q 268 621 314 619 l 94 628 l 94 747 l 268 758 q 340 772 318 760 q 361 815 361 785 l 361 833 q 338 877 361 865 q 268 889 314 889 l 32 889 l 32 999 m 386 0 l 960 1046 l 1100 1046 l 526 0 l 386 0 m 1182 276 l 1182 421 l 1213 490 l 1331 490 l 1331 276 l 1397 276 l 1397 161 l 1331 136 l 1331 1 l 1182 1 l 1182 136 l 858 136 l 826 201 l 1064 668 l 1221 668 l 1026 276 l 1182 276 z "},"¿":{"ha":754,"x_min":42,"x_max":735,"o":"m 733 -190 q 733 -249 733 -190 q 733 -321 733 -307 l 733 -336 q 415 -374 546 -374 q 360 -372 379 -374 q 340 -371 340 -371 q 201 -347 261 -371 q 108 -282 142 -322 q 42 -97 42 -201 l 42 6 q 119 206 40 140 q 306 261 186 261 q 356 260 329 261 l 356 385 l 514 385 l 515 114 q 422 114 461 114 q 342 113 382 114 q 274 82 303 111 q 244 -6 246 53 q 243 -76 243 -64 q 278 -160 243 -129 q 381 -192 314 -192 q 388 -192 385 -192 l 733 -190 m 342 621 q 376 656 342 654 l 493 656 q 517 646 508 654 q 526 624 526 638 l 526 500 q 494 465 525 467 l 374 465 q 342 500 343 468 l 342 621 z "},"À":{"ha":961,"x_min":47,"x_max":942,"o":"m 268 1300 l 439 1300 l 564 1107 l 438 1107 l 268 1300 m 47 0 l 390 1017 l 611 1017 l 942 0 l 735 0 l 663 225 l 329 225 l 256 0 l 47 0 m 381 397 l 617 397 l 503 761 l 381 397 z "},"Á":{"ha":961,"x_min":47,"x_max":942,"o":"m 438 1107 l 564 1300 l 733 1300 l 564 1107 l 438 1107 m 47 0 l 390 1017 l 611 1017 l 942 0 l 735 0 l 663 225 l 329 225 l 256 0 l 47 0 m 381 397 l 617 397 l 503 761 l 381 397 z "},"Â":{"ha":961,"x_min":47,"x_max":942,"o":"m 286 1107 l 436 1294 l 581 1294 l 715 1107 l 586 1107 l 504 1190 l 417 1107 l 286 1107 m 47 0 l 390 1017 l 611 1017 l 942 0 l 735 0 l 663 225 l 329 225 l 256 0 l 47 0 m 381 397 l 617 397 l 503 761 l 381 397 z "},"Ã":{"ha":961,"x_min":47,"x_max":942,"o":"m 583 1232 q 706 1285 636 1232 l 739 1201 q 583 1107 653 1107 q 500 1131 549 1107 q 433 1156 451 1156 q 400 1153 414 1156 q 378 1149 386 1151 q 356 1141 369 1147 q 338 1132 343 1135 q 317 1119 333 1129 q 296 1107 301 1110 l 263 1183 q 431 1281 351 1281 q 510 1256 464 1279 q 568 1232 556 1232 q 583 1232 581 1232 m 47 0 l 390 1017 l 611 1017 l 942 0 l 735 0 l 663 225 l 329 225 l 256 0 l 47 0 m 381 397 l 617 397 l 503 761 l 381 397 z "},"Ä":{"ha":961,"x_min":47,"x_max":942,"o":"m 324 1107 q 307 1107 324 1107 q 266 1131 290 1107 q 242 1183 242 1156 q 253 1231 242 1211 q 318 1270 278 1271 q 382 1247 358 1269 q 406 1190 406 1224 q 382 1131 406 1156 q 324 1107 358 1107 m 620 1131 q 608 1143 620 1131 q 596 1189 596 1156 q 620 1246 596 1222 q 678 1269 644 1269 q 736 1247 713 1269 q 760 1190 760 1224 q 736 1131 760 1156 q 678 1107 713 1107 q 620 1131 644 1107 m 47 0 l 390 1017 l 611 1017 l 942 0 l 735 0 l 663 225 l 329 225 l 256 0 l 47 0 m 381 397 l 617 397 l 503 761 l 381 397 z "},"Å":{"ha":961,"x_min":47,"x_max":942,"o":"m 360 1166 q 360 1141 360 1166 q 379 1084 360 1117 q 431 1033 399 1051 q 502 1014 464 1014 q 572 1033 540 1014 q 623 1084 604 1051 q 642 1166 642 1117 q 601 1257 642 1215 q 501 1299 560 1299 q 401 1257 443 1299 q 360 1166 360 1215 m 442 1162 q 442 1171 442 1162 q 459 1199 442 1181 q 501 1217 476 1217 q 544 1199 526 1217 q 561 1156 561 1181 q 544 1114 561 1131 q 501 1097 526 1097 q 458 1114 476 1097 q 447 1133 451 1122 q 442 1162 442 1143 m 47 0 l 390 1017 l 611 1017 l 942 0 l 735 0 l 663 225 l 329 225 l 256 0 l 47 0 m 381 397 l 617 397 l 503 761 l 381 397 z "},"Æ":{"ha":1325,"x_min":31,"x_max":1278,"o":"m 689 1011 q 753 1017 725 1015 q 801 1018 782 1018 q 843 1017 821 1018 q 1278 994 1189 1007 l 1278 833 l 889 833 q 828 808 839 833 q 818 757 819 789 l 818 594 l 1214 579 l 1214 419 l 818 407 l 818 250 q 844 189 818 200 q 883 181 864 181 q 904 181 901 181 l 1278 181 l 1278 18 q 946 -1 1207 8 l 858 -6 q 826 -6 846 -6 q 776 -1 807 -6 q 706 19 744 3 q 646 74 668 36 q 624 168 624 113 l 624 269 l 381 269 l 247 0 l 32 0 l 425 799 q 546 953 476 904 q 689 1011 614 1001 m 624 440 l 624 775 l 463 440 l 624 440 z "},"Ç":{"ha":793,"x_min":57,"x_max":758,"o":"m 261 -51 l 392 -51 q 358 -203 392 -160 q 236 -247 325 -247 l 158 -247 l 158 -164 l 219 -143 q 253 -113 246 -132 q 261 -51 261 -94 m 128 892 q 282 1013 183 983 q 404 1028 336 1028 q 758 982 603 1028 l 758 829 q 748 831 758 829 q 720 833 738 832 q 679 837 703 835 q 627 841 656 839 q 571 844 599 843 q 454 849 506 849 q 374 842 403 849 q 319 817 346 836 q 281 761 293 799 q 253 508 253 681 q 292 254 253 325 q 450 171 336 171 q 714 179 581 171 l 758 182 l 758 31 q 436 -8 633 -8 q 404 -8 421 -8 q 138 125 218 -7 q 58 517 58 257 q 128 892 58 778 z "},"È":{"ha":788,"x_min":81,"x_max":750,"o":"m 228 1297 l 399 1297 l 524 1104 l 397 1104 l 228 1297 m 81 200 l 81 806 q 156 978 81 932 q 290 1017 218 1017 q 478 1012 296 1017 q 749 994 660 1007 l 749 833 l 347 833 q 283 808 296 833 q 275 756 275 789 l 275 597 l 686 583 l 686 422 l 275 410 l 275 251 q 304 188 275 199 q 361 179 325 179 l 749 179 l 749 19 q 406 0 679 10 l 315 -4 q 290 -4 304 -4 q 251 -2 275 -4 q 194 13 228 0 q 136 46 161 25 q 81 200 81 96 z "},"É":{"ha":788,"x_min":81,"x_max":750,"o":"m 382 1104 l 508 1296 l 678 1296 l 508 1104 l 382 1104 m 81 200 l 81 806 q 156 978 81 932 q 290 1017 218 1017 q 478 1012 296 1017 q 749 994 660 1007 l 749 833 l 347 833 q 283 808 296 833 q 275 756 275 789 l 275 597 l 686 583 l 686 422 l 275 410 l 275 251 q 304 188 275 199 q 361 179 325 179 l 749 179 l 749 19 q 406 0 679 10 l 315 -4 q 290 -4 304 -4 q 251 -2 275 -4 q 194 13 228 0 q 136 46 161 25 q 81 200 81 96 z "},"Ê":{"ha":788,"x_min":81,"x_max":750,"o":"m 226 1107 l 376 1294 l 521 1294 l 656 1107 l 526 1107 l 444 1190 l 357 1107 l 226 1107 m 81 200 l 81 806 q 156 978 81 932 q 290 1017 218 1017 q 478 1012 296 1017 q 749 994 660 1007 l 749 833 l 347 833 q 283 808 296 833 q 275 756 275 789 l 275 597 l 686 583 l 686 422 l 275 410 l 275 251 q 304 188 275 199 q 361 179 325 179 l 749 179 l 749 19 q 406 0 679 10 l 315 -4 q 290 -4 304 -4 q 251 -2 275 -4 q 194 13 228 0 q 136 46 161 25 q 81 200 81 96 z "},"Ë":{"ha":788,"x_min":81,"x_max":750,"o":"m 199 1128 q 187 1141 199 1128 q 175 1186 175 1153 q 199 1243 175 1219 q 258 1267 224 1267 q 315 1243 292 1267 q 339 1186 339 1219 q 315 1128 339 1153 q 258 1104 292 1104 q 199 1128 224 1104 m 553 1128 q 541 1141 553 1128 q 529 1186 529 1153 q 553 1243 529 1219 q 612 1267 578 1267 q 669 1243 646 1267 q 693 1186 693 1219 q 669 1128 693 1153 q 612 1104 646 1104 q 553 1128 578 1104 m 81 200 l 81 806 q 156 978 81 932 q 290 1017 218 1017 q 478 1012 296 1017 q 749 994 660 1007 l 749 833 l 347 833 q 283 808 296 833 q 275 756 275 789 l 275 597 l 686 583 l 686 422 l 275 410 l 275 251 q 304 188 275 199 q 361 179 325 179 l 749 179 l 749 19 q 406 0 679 10 l 315 -4 q 290 -4 304 -4 q 251 -2 275 -4 q 194 13 228 0 q 136 46 161 25 q 81 200 81 96 z "},"Ì":{"ha":340,"x_min":-51,"x_max":279,"o":"m -51 1300 l 119 1300 l 244 1107 l 118 1107 l -51 1300 m 85 0 l 85 1017 l 279 1017 l 279 0 l 85 0 z "},"Í":{"ha":340,"x_min":83,"x_max":415,"o":"m 118 1107 l 244 1300 l 414 1300 l 244 1107 l 118 1107 m 85 0 l 85 1017 l 279 1017 l 279 0 l 85 0 z "},"Î":{"ha":340,"x_min":-33,"x_max":396,"o":"m -33 1107 l 117 1294 l 261 1294 l 396 1107 l 267 1107 l 185 1190 l 97 1107 l -33 1107 m 85 0 l 85 1017 l 279 1017 l 279 0 l 85 0 z "},"Ï":{"ha":340,"x_min":-78,"x_max":440,"o":"m -53 1131 q -66 1143 -53 1131 q -78 1189 -78 1156 q -53 1246 -78 1222 q 5 1269 -29 1269 q 63 1247 39 1269 q 86 1190 86 1224 q 63 1131 86 1156 q 5 1107 39 1107 q -53 1131 -29 1107 m 301 1131 q 290 1143 301 1131 q 278 1189 278 1156 q 301 1246 278 1222 q 359 1269 325 1269 q 417 1247 393 1269 q 440 1190 440 1224 q 417 1131 440 1156 q 359 1107 393 1107 q 301 1131 325 1107 m 85 0 l 85 1017 l 279 1017 l 279 0 l 85 0 z "},"Ð":{"ha":919,"x_min":-7,"x_max":869,"o":"m -6 472 l -6 564 l 85 564 l 85 1017 q 517 1017 85 1017 q 865 613 833 1017 q 869 476 869 561 q 849 299 869 390 q 786 140 828 208 q 517 0 700 0 l 85 0 l 85 472 l -6 472 m 601 215 q 621 236 601 215 q 656 328 640 257 q 672 502 672 400 q 660 672 672 604 q 625 775 649 739 q 501 842 583 842 l 279 842 l 279 564 l 433 564 l 433 472 l 279 472 l 279 174 l 501 174 q 601 215 563 174 z "},"Ñ":{"ha":942,"x_min":83,"x_max":881,"o":"m 564 1232 q 688 1285 618 1232 l 721 1201 q 565 1107 633 1107 q 507 1120 536 1107 q 453 1144 478 1133 q 419 1156 429 1156 q 401 1156 408 1156 q 381 1153 393 1156 q 360 1149 368 1151 q 338 1141 351 1147 q 319 1132 325 1135 q 298 1119 314 1129 q 278 1107 282 1110 l 243 1183 q 411 1281 332 1281 q 491 1256 446 1279 q 549 1232 536 1232 q 564 1232 561 1232 m 85 0 l 85 1017 l 282 1017 l 685 360 l 685 1017 l 879 1017 l 879 0 l 685 0 l 281 650 l 281 0 l 85 0 z "},"Ò":{"ha":932,"x_min":68,"x_max":886,"o":"m 246 1300 l 415 1300 l 542 1107 l 415 1107 l 246 1300 m 91 251 q 86 276 91 251 q 75 363 81 300 q 69 513 69 425 q 80 680 69 601 q 108 813 90 758 q 157 907 126 868 q 219 968 188 946 q 296 1003 250 990 q 448 1024 368 1024 q 565 1021 528 1024 q 642 1009 601 1018 q 713 983 683 1000 q 772 941 742 967 q 821 876 801 915 q 856 785 840 836 q 886 544 886 682 q 876 333 886 407 q 849 205 865 258 q 803 113 832 151 q 744 52 775 75 q 668 17 713 29 q 397 -3 565 -14 q 272 18 311 1 q 205 53 233 35 q 157 99 176 72 q 119 165 138 126 q 91 251 101 203 m 279 710 q 276 692 279 710 q 268 622 272 674 q 264 493 264 571 q 269 360 264 415 q 288 267 275 306 q 328 208 301 228 q 478 174 375 174 q 624 210 575 174 q 692 501 692 261 q 674 717 692 664 q 642 792 657 769 q 601 826 628 814 q 500 844 558 844 q 419 842 442 844 q 370 833 396 840 q 330 812 344 826 q 301 772 315 797 q 279 710 286 747 z "},"Ó":{"ha":932,"x_min":68,"x_max":886,"o":"m 415 1107 l 540 1300 l 711 1300 l 542 1107 l 415 1107 m 91 251 q 86 276 91 251 q 75 363 81 300 q 69 513 69 425 q 80 680 69 601 q 108 813 90 758 q 157 907 126 868 q 219 968 188 946 q 296 1003 250 990 q 448 1024 368 1024 q 565 1021 528 1024 q 642 1009 601 1018 q 713 983 683 1000 q 772 941 742 967 q 821 876 801 915 q 856 785 840 836 q 886 544 886 682 q 876 333 886 407 q 849 205 865 258 q 803 113 832 151 q 744 52 775 75 q 668 17 713 29 q 397 -3 565 -14 q 272 18 311 1 q 205 53 233 35 q 157 99 176 72 q 119 165 138 126 q 91 251 101 203 m 279 710 q 276 692 279 710 q 268 622 272 674 q 264 493 264 571 q 269 360 264 415 q 288 267 275 306 q 328 208 301 228 q 478 174 375 174 q 624 210 575 174 q 692 501 692 261 q 674 717 692 664 q 642 792 657 769 q 601 826 628 814 q 500 844 558 844 q 419 842 442 844 q 370 833 396 840 q 330 812 344 826 q 301 772 315 797 q 279 710 286 747 z "},"Ô":{"ha":932,"x_min":68,"x_max":886,"o":"m 264 1107 l 413 1294 l 557 1294 l 692 1107 l 563 1107 l 481 1190 l 394 1107 l 264 1107 m 91 251 q 86 276 91 251 q 75 363 81 300 q 69 513 69 425 q 80 680 69 601 q 108 813 90 758 q 157 907 126 868 q 219 968 188 946 q 296 1003 250 990 q 448 1024 368 1024 q 565 1021 528 1024 q 642 1009 601 1018 q 713 983 683 1000 q 772 941 742 967 q 821 876 801 915 q 856 785 840 836 q 886 544 886 682 q 876 333 886 407 q 849 205 865 258 q 803 113 832 151 q 744 52 775 75 q 668 17 713 29 q 397 -3 565 -14 q 272 18 311 1 q 205 53 233 35 q 157 99 176 72 q 119 165 138 126 q 91 251 101 203 m 279 710 q 276 692 279 710 q 268 622 272 674 q 264 493 264 571 q 269 360 264 415 q 288 267 275 306 q 328 208 301 228 q 478 174 375 174 q 624 210 575 174 q 692 501 692 261 q 674 717 692 664 q 642 792 657 769 q 601 826 628 814 q 500 844 558 844 q 419 842 442 844 q 370 833 396 840 q 330 812 344 826 q 301 772 315 797 q 279 710 286 747 z "},"Õ":{"ha":932,"x_min":68,"x_max":886,"o":"m 560 1232 q 683 1285 614 1232 l 717 1201 q 561 1107 631 1107 q 477 1131 525 1107 q 410 1156 429 1156 q 377 1153 390 1156 q 356 1149 364 1151 q 334 1141 347 1147 q 315 1132 321 1135 q 294 1119 310 1129 q 274 1107 278 1110 l 239 1183 q 407 1281 328 1281 q 488 1256 442 1279 q 545 1232 533 1232 q 560 1232 557 1232 m 91 251 q 86 276 91 251 q 75 363 81 300 q 69 513 69 425 q 80 680 69 601 q 108 813 90 758 q 157 907 126 868 q 219 968 188 946 q 296 1003 250 990 q 448 1024 368 1024 q 565 1021 528 1024 q 642 1009 601 1018 q 713 983 683 1000 q 772 941 742 967 q 821 876 801 915 q 856 785 840 836 q 886 544 886 682 q 876 333 886 407 q 849 205 865 258 q 803 113 832 151 q 744 52 775 75 q 668 17 713 29 q 397 -3 565 -14 q 272 18 311 1 q 205 53 233 35 q 157 99 176 72 q 119 165 138 126 q 91 251 101 203 m 279 710 q 276 692 279 710 q 268 622 272 674 q 264 493 264 571 q 269 360 264 415 q 288 267 275 306 q 328 208 301 228 q 478 174 375 174 q 624 210 575 174 q 692 501 692 261 q 674 717 692 664 q 642 792 657 769 q 601 826 628 814 q 500 844 558 844 q 419 842 442 844 q 370 833 396 840 q 330 812 344 826 q 301 772 315 797 q 279 710 286 747 z "},"Ö":{"ha":932,"x_min":68,"x_max":886,"o":"m 231 1148 q 225 1157 231 1148 q 219 1189 219 1167 q 231 1231 219 1211 q 294 1270 254 1271 q 358 1247 335 1269 q 382 1190 382 1224 q 358 1131 382 1156 q 307 1107 335 1107 q 260 1118 279 1107 q 231 1148 242 1129 m 656 1107 q 639 1107 656 1107 q 598 1131 622 1107 q 574 1183 574 1156 q 585 1231 574 1211 q 649 1269 608 1269 q 713 1247 689 1269 q 736 1190 736 1224 q 713 1131 736 1156 q 656 1107 689 1107 m 91 251 q 86 276 91 251 q 75 363 81 300 q 69 513 69 425 q 80 680 69 601 q 108 813 90 758 q 157 907 126 868 q 219 968 188 946 q 296 1003 250 990 q 448 1024 368 1024 q 565 1021 528 1024 q 642 1009 601 1018 q 713 983 683 1000 q 772 941 742 967 q 821 876 801 915 q 856 785 840 836 q 886 544 886 682 q 876 333 886 407 q 849 205 865 258 q 803 113 832 151 q 744 52 775 75 q 668 17 713 29 q 397 -3 565 -14 q 272 18 311 1 q 205 53 233 35 q 157 99 176 72 q 119 165 138 126 q 91 251 101 203 m 279 710 q 276 692 279 710 q 268 622 272 674 q 264 493 264 571 q 269 360 264 415 q 288 267 275 306 q 328 208 301 228 q 478 174 375 174 q 624 210 575 174 q 692 501 692 261 q 674 717 692 664 q 642 792 657 769 q 601 826 628 814 q 500 844 558 844 q 419 842 442 844 q 370 833 396 840 q 330 812 344 826 q 301 772 315 797 q 279 710 286 747 z "},"×":{"ha":640,"x_min":58,"x_max":585,"o":"m 60 347 l 206 493 l 60 640 l 175 756 l 321 610 l 468 757 l 585 642 l 438 493 l 583 347 l 468 232 l 321 378 l 176 232 l 60 347 z "},"Ø":{"ha":943,"x_min":72,"x_max":893,"o":"m 163 907 q 224 968 193 946 q 300 1003 256 990 q 485 1024 374 1024 q 738 974 658 1024 l 768 1017 l 872 1017 l 801 915 q 893 501 893 794 q 810 114 893 224 q 674 17 756 40 q 494 -6 599 -6 q 326 6 390 -6 q 213 51 261 18 l 176 0 l 74 0 l 153 115 q 76 513 76 231 q 163 907 76 794 m 288 723 q 284 698 288 723 q 275 622 279 674 q 271 471 271 571 q 290 313 271 371 l 628 815 q 485 844 590 844 q 336 811 369 844 q 288 723 297 772 m 485 174 q 587 186 549 174 q 651 235 625 199 q 688 335 678 272 q 699 529 699 397 q 672 731 699 661 l 328 217 q 485 174 371 174 z "},"Ù":{"ha":922,"x_min":83,"x_max":861,"o":"m 240 1300 l 410 1300 l 536 1107 l 410 1107 l 240 1300 m 476 -7 l 457 -7 q 235 28 290 -7 q 176 77 210 44 q 126 157 143 110 q 85 444 85 274 l 85 1017 l 279 1017 l 279 444 q 306 249 279 311 q 399 178 329 193 q 487 172 429 172 q 583 193 544 172 q 665 444 665 238 l 665 1017 l 861 1017 l 861 444 q 797 128 861 226 q 756 72 776 93 q 705 34 736 50 q 651 10 674 18 q 592 -1 629 3 q 476 -7 544 -7 z "},"Ú":{"ha":922,"x_min":83,"x_max":861,"o":"m 410 1107 l 535 1300 l 706 1300 l 536 1107 l 410 1107 m 476 -7 l 457 -7 q 235 28 290 -7 q 176 77 210 44 q 126 157 143 110 q 85 444 85 274 l 85 1017 l 279 1017 l 279 444 q 306 249 279 311 q 399 178 329 193 q 487 172 429 172 q 583 193 544 172 q 665 444 665 238 l 665 1017 l 861 1017 l 861 444 q 797 128 861 226 q 756 72 776 93 q 705 34 736 50 q 651 10 674 18 q 592 -1 629 3 q 476 -7 544 -7 z "},"Û":{"ha":922,"x_min":83,"x_max":861,"o":"m 258 1107 l 408 1294 l 553 1294 l 686 1107 l 558 1107 l 476 1190 l 389 1107 l 258 1107 m 476 -7 l 457 -7 q 235 28 290 -7 q 176 77 210 44 q 126 157 143 110 q 85 444 85 274 l 85 1017 l 279 1017 l 279 444 q 306 249 279 311 q 399 178 329 193 q 487 172 429 172 q 583 193 544 172 q 665 444 665 238 l 665 1017 l 861 1017 l 861 444 q 797 128 861 226 q 756 72 776 93 q 705 34 736 50 q 651 10 674 18 q 592 -1 629 3 q 476 -7 544 -7 z "},"Ü":{"ha":922,"x_min":83,"x_max":861,"o":"m 296 1107 q 279 1107 296 1107 q 238 1131 263 1107 q 214 1183 214 1156 q 225 1231 214 1211 q 290 1269 249 1269 q 354 1247 331 1269 q 378 1190 378 1224 q 353 1131 378 1156 q 296 1107 329 1107 m 592 1131 q 580 1143 592 1131 q 568 1189 568 1156 q 592 1246 568 1222 q 651 1269 617 1269 q 708 1247 685 1269 q 731 1190 731 1224 q 707 1131 731 1156 q 650 1107 683 1107 q 592 1131 617 1107 m 476 -7 l 457 -7 q 235 28 290 -7 q 176 77 210 44 q 126 157 143 110 q 85 444 85 274 l 85 1017 l 279 1017 l 279 444 q 306 249 279 311 q 399 178 329 193 q 487 172 429 172 q 583 193 544 172 q 665 444 665 238 l 665 1017 l 861 1017 l 861 444 q 797 128 861 226 q 756 72 776 93 q 705 34 736 50 q 651 10 674 18 q 592 -1 629 3 q 476 -7 544 -7 z "},"Ý":{"ha":911,"x_min":47,"x_max":886,"o":"m 403 1107 l 529 1300 l 700 1300 l 531 1107 l 403 1107 m 551 0 l 357 0 l 357 315 l 47 1017 l 258 1017 l 457 529 l 675 1017 l 886 1017 l 551 315 l 551 0 z "},"Þ":{"ha":758,"x_min":63,"x_max":708,"o":"m 485 207 q 459 206 485 207 q 394 206 432 206 q 258 233 357 206 l 258 0 l 64 0 l 64 1013 l 258 1013 l 258 817 l 463 817 q 707 521 707 815 q 593 238 707 299 q 485 207 539 208 m 401 379 q 417 378 403 378 q 450 383 432 378 q 483 401 468 388 q 511 519 511 429 q 463 635 510 615 q 401 644 439 644 l 258 644 l 258 378 l 401 379 z "},"ß":{"ha":794,"x_min":63,"x_max":775,"o":"m 396 1085 q 710 949 628 1085 q 736 878 733 908 q 739 826 739 849 q 732 768 739 804 q 653 614 718 685 q 615 577 639 599 q 582 544 592 556 q 553 490 553 515 q 576 447 553 464 q 631 416 599 431 q 697 382 664 401 q 752 326 729 363 q 775 242 775 290 l 775 199 q 699 31 775 78 q 542 -11 632 -11 q 333 15 453 -11 l 333 153 q 493 146 458 146 q 553 165 528 146 q 581 224 579 185 l 581 257 q 504 331 581 300 q 442 359 474 343 q 388 407 410 375 q 367 494 367 439 q 392 587 367 549 q 489 683 418 625 q 546 800 546 733 q 404 908 546 908 q 322 889 354 908 q 258 717 258 853 l 258 0 l 64 0 l 64 786 q 151 999 64 914 q 396 1085 238 1085 z "},"à":{"ha":721,"x_min":42,"x_max":669,"o":"m 139 1028 l 308 1028 l 435 835 l 308 835 l 139 1028 m 67 703 q 404 751 193 751 q 601 698 532 751 q 669 514 669 644 l 669 0 l 515 0 l 475 81 q 440 51 469 71 q 357 11 410 31 q 256 -8 304 -8 q 97 51 153 -8 q 42 188 42 110 l 42 257 q 94 403 42 346 q 257 460 147 460 q 421 460 367 460 q 475 460 475 460 q 475 495 475 483 q 475 507 475 507 q 451 580 475 563 q 357 597 428 597 q 67 582 286 597 l 67 703 m 236 215 q 254 160 236 174 q 307 147 272 147 q 384 162 342 147 q 450 190 426 176 l 475 206 l 475 340 l 296 326 q 236 251 236 321 l 236 215 z "},"á":{"ha":721,"x_min":42,"x_max":669,"o":"m 306 835 l 431 1028 l 601 1028 l 432 835 l 306 835 m 67 703 q 404 751 193 751 q 601 698 532 751 q 669 514 669 644 l 669 0 l 515 0 l 475 81 q 440 51 469 71 q 357 11 410 31 q 256 -8 304 -8 q 97 51 153 -8 q 42 188 42 110 l 42 257 q 94 403 42 346 q 257 460 147 460 q 421 460 367 460 q 475 460 475 460 q 475 495 475 483 q 475 507 475 507 q 451 580 475 563 q 357 597 428 597 q 67 582 286 597 l 67 703 m 236 215 q 254 160 236 174 q 307 147 272 147 q 384 162 342 147 q 450 190 426 176 l 475 206 l 475 340 l 296 326 q 236 251 236 321 l 236 215 z "},"â":{"ha":721,"x_min":42,"x_max":669,"o":"m 156 835 l 304 1022 l 449 1022 l 583 835 l 454 835 l 372 918 l 286 835 l 156 835 m 67 703 q 404 751 193 751 q 601 698 532 751 q 669 514 669 644 l 669 0 l 515 0 l 475 81 q 440 51 469 71 q 357 11 410 31 q 256 -8 304 -8 q 97 51 153 -8 q 42 188 42 110 l 42 257 q 94 403 42 346 q 257 460 147 460 q 421 460 367 460 q 475 460 475 460 q 475 495 475 483 q 475 507 475 507 q 451 580 475 563 q 357 597 428 597 q 67 582 286 597 l 67 703 m 236 215 q 254 160 236 174 q 307 147 272 147 q 384 162 342 147 q 450 190 426 176 l 475 206 l 475 340 l 296 326 q 236 251 236 321 l 236 215 z "},"ã":{"ha":721,"x_min":42,"x_max":669,"o":"m 449 960 q 571 1013 501 960 l 604 929 q 449 835 518 835 q 365 859 414 835 q 298 883 317 883 q 265 881 279 883 q 243 877 251 879 q 222 869 235 875 q 203 860 208 863 q 183 847 199 857 q 161 835 167 838 l 128 911 q 294 1008 215 1008 q 375 983 329 1007 q 433 960 421 960 q 449 960 446 960 m 67 703 q 404 751 193 751 q 601 698 532 751 q 669 514 669 644 l 669 0 l 515 0 l 475 81 q 440 51 469 71 q 357 11 410 31 q 256 -8 304 -8 q 97 51 153 -8 q 42 188 42 110 l 42 257 q 94 403 42 346 q 257 460 147 460 q 421 460 367 460 q 475 460 475 460 q 475 495 475 483 q 475 507 475 507 q 451 580 475 563 q 357 597 428 597 q 67 582 286 597 l 67 703 m 236 215 q 254 160 236 174 q 307 147 272 147 q 384 162 342 147 q 450 190 426 176 l 475 206 l 475 340 l 296 326 q 236 251 236 321 l 236 215 z "},"ä":{"ha":721,"x_min":42,"x_max":669,"o":"m 134 859 q 122 871 134 859 q 110 917 110 883 q 134 974 110 950 q 192 999 158 999 q 249 975 225 999 q 272 917 272 951 q 249 859 272 883 q 192 835 225 835 q 134 859 158 835 m 488 859 q 476 871 488 859 q 464 917 464 883 q 488 974 464 950 q 538 999 513 999 q 578 992 563 999 q 603 975 593 985 q 626 917 626 951 q 603 859 626 883 q 546 835 579 835 q 488 859 513 835 m 67 703 q 404 751 193 751 q 601 698 532 751 q 669 514 669 644 l 669 0 l 515 0 l 475 81 q 440 51 469 71 q 357 11 410 31 q 256 -8 304 -8 q 97 51 153 -8 q 42 188 42 110 l 42 257 q 94 403 42 346 q 257 460 147 460 q 421 460 367 460 q 475 460 475 460 q 475 495 475 483 q 475 507 475 507 q 451 580 475 563 q 357 597 428 597 q 67 582 286 597 l 67 703 m 236 215 q 254 160 236 174 q 307 147 272 147 q 384 162 342 147 q 450 190 426 176 l 475 206 l 475 340 l 296 326 q 236 251 236 321 l 236 215 z "},"å":{"ha":721,"x_min":42,"x_max":669,"o":"m 271 857 q 261 867 271 857 q 240 903 251 876 q 229 963 229 929 q 249 1030 229 997 q 301 1081 268 1063 q 372 1100 333 1100 q 442 1081 410 1100 q 492 1030 474 1063 q 511 958 511 997 q 492 886 511 918 q 442 835 474 854 q 376 817 410 817 q 316 827 342 817 q 271 857 290 838 m 371 1018 q 358 1018 371 1018 q 328 1000 346 1018 q 311 965 311 982 q 314 938 311 947 q 322 922 317 929 q 335 910 328 915 q 374 899 351 899 q 413 916 396 899 q 431 958 431 933 q 413 1001 431 983 q 371 1018 396 1018 m 67 703 q 404 751 193 751 q 601 698 532 751 q 669 514 669 644 l 669 0 l 515 0 l 475 81 q 440 51 469 71 q 357 11 410 31 q 256 -8 304 -8 q 97 51 153 -8 q 42 188 42 110 l 42 257 q 94 403 42 346 q 257 460 147 460 q 421 460 367 460 q 475 460 475 460 q 475 495 475 483 q 475 507 475 507 q 451 580 475 563 q 357 597 428 597 q 67 582 286 597 l 67 703 m 236 215 q 254 160 236 174 q 307 147 272 147 q 384 162 342 147 q 450 190 426 176 l 475 206 l 475 340 l 296 326 q 236 251 236 321 l 236 215 z "},"æ":{"ha":1169,"x_min":42,"x_max":1129,"o":"m 42 192 l 42 240 q 90 382 42 325 q 255 442 143 443 q 421 442 367 442 q 475 443 475 442 q 475 493 475 476 q 475 511 475 510 q 451 583 475 565 q 366 601 428 601 q 67 585 304 601 l 67 706 q 403 756 183 754 q 596 696 539 754 q 687 737 636 726 q 812 747 738 747 q 931 742 886 747 q 1017 722 976 738 q 1081 678 1058 707 q 1129 488 1129 617 q 1078 351 1129 392 q 922 310 1026 310 l 689 310 q 724 184 689 215 q 844 153 760 153 q 1115 167 1015 153 l 1115 36 q 992 8 1067 18 q 738 -3 896 -3 q 616 21 661 -3 q 536 93 571 44 q 426 31 524 67 q 254 -4 328 -4 q 97 55 153 -4 q 42 192 42 114 m 236 215 q 258 160 236 171 q 308 151 275 151 q 384 166 342 151 q 450 194 426 181 l 475 208 l 475 326 l 296 313 q 236 238 236 307 l 236 215 m 826 599 l 819 599 q 746 594 756 599 q 726 584 736 589 q 711 572 715 579 q 701 551 707 564 q 689 450 689 528 q 689 442 689 446 l 872 442 q 935 497 935 442 q 917 582 935 565 q 826 599 899 599 z "},"ç":{"ha":686,"x_min":51,"x_max":646,"o":"m 53 369 q 70 556 53 481 q 122 672 88 632 q 197 729 156 713 q 296 746 239 746 q 635 700 496 746 l 635 581 q 425 589 503 589 q 331 587 347 589 q 294 574 314 585 q 267 538 275 563 q 247 376 247 482 q 260 224 247 271 q 299 163 274 178 q 381 149 325 149 q 607 158 493 149 l 644 161 l 644 39 q 519 0 581 6 q 363 -8 429 -8 l 354 -8 q 296 -8 301 -8 q 124 65 186 -8 q 53 369 53 149 m 322 -53 l 453 -53 q 419 -205 453 -161 q 297 -249 386 -249 l 219 -249 l 219 -165 l 281 -144 q 315 -115 308 -133 q 322 -53 322 -96 z "},"è":{"ha":729,"x_min":51,"x_max":688,"o":"m 147 1019 l 318 1019 l 443 828 l 317 828 l 147 1019 m 251 735 q 363 743 300 743 q 460 741 425 743 q 530 733 494 739 q 588 715 565 726 q 631 683 610 703 q 663 635 651 663 q 688 491 688 572 q 664 368 688 410 q 482 289 618 289 l 247 289 q 256 211 247 240 q 286 169 264 182 q 333 152 308 156 q 465 149 357 149 q 674 164 574 149 l 674 32 q 548 3 611 8 q 461 -4 485 -3 q 403 -6 438 -6 q 296 -7 357 -7 q 106 79 158 -7 q 53 359 53 165 q 95 634 53 553 q 251 735 138 715 m 432 429 q 493 485 493 429 q 474 574 493 554 q 399 594 456 594 q 320 591 342 594 q 278 572 299 588 q 253 524 258 556 q 247 463 247 492 q 247 429 247 435 l 432 429 z "},"é":{"ha":729,"x_min":51,"x_max":688,"o":"m 311 828 l 436 1019 l 607 1019 l 438 828 l 311 828 m 251 735 q 363 743 300 743 q 460 741 425 743 q 530 733 494 739 q 588 715 565 726 q 631 683 610 703 q 663 635 651 663 q 688 491 688 572 q 664 368 688 410 q 482 289 618 289 l 247 289 q 256 211 247 240 q 286 169 264 182 q 333 152 308 156 q 465 149 357 149 q 674 164 574 149 l 674 32 q 548 3 611 8 q 461 -4 485 -3 q 403 -6 438 -6 q 296 -7 357 -7 q 106 79 158 -7 q 53 359 53 165 q 95 634 53 553 q 251 735 138 715 m 432 429 q 493 485 493 429 q 474 574 493 554 q 399 594 456 594 q 320 591 342 594 q 278 572 299 588 q 253 524 258 556 q 247 463 247 492 q 247 429 247 435 l 432 429 z "},"ê":{"ha":729,"x_min":51,"x_max":688,"o":"m 156 828 l 306 1017 l 450 1017 l 585 828 l 456 828 l 374 911 l 286 828 l 156 828 m 251 735 q 363 743 300 743 q 460 741 425 743 q 530 733 494 739 q 588 715 565 726 q 631 683 610 703 q 663 635 651 663 q 688 491 688 572 q 664 368 688 410 q 482 289 618 289 l 247 289 q 256 211 247 240 q 286 169 264 182 q 333 152 308 156 q 465 149 357 149 q 674 164 574 149 l 674 32 q 548 3 611 8 q 461 -4 485 -3 q 403 -6 438 -6 q 296 -7 357 -7 q 106 79 158 -7 q 53 359 53 165 q 95 634 53 553 q 251 735 138 715 m 432 429 q 493 485 493 429 q 474 574 493 554 q 399 594 456 594 q 320 591 342 594 q 278 572 299 588 q 253 524 258 556 q 247 463 247 492 q 247 429 247 435 l 432 429 z "},"ë":{"ha":729,"x_min":51,"x_max":688,"o":"m 134 852 q 122 864 134 852 q 110 910 110 876 q 134 967 110 943 q 192 992 158 992 q 249 968 225 992 q 272 910 272 944 q 249 852 272 876 q 192 828 225 828 q 134 852 158 828 m 488 852 q 476 864 488 852 q 464 910 464 876 q 488 967 464 943 q 538 992 513 992 q 577 985 563 992 q 603 968 592 978 q 626 910 626 944 q 603 852 626 876 q 546 828 579 828 q 488 852 513 828 m 251 735 q 363 743 300 743 q 460 741 425 743 q 530 733 494 739 q 588 715 565 726 q 631 683 610 703 q 663 635 651 663 q 688 491 688 572 q 664 368 688 410 q 482 289 618 289 l 247 289 q 256 211 247 240 q 286 169 264 182 q 333 152 308 156 q 465 149 357 149 q 674 164 574 149 l 674 32 q 548 3 611 8 q 461 -4 485 -3 q 403 -6 438 -6 q 296 -7 357 -7 q 106 79 158 -7 q 53 359 53 165 q 95 634 53 553 q 251 735 138 715 m 432 429 q 493 485 493 429 q 474 574 493 554 q 399 594 456 594 q 320 591 342 594 q 278 572 299 588 q 253 524 258 556 q 247 463 247 492 q 247 429 247 435 l 432 429 z "},"ì":{"ha":319,"x_min":-72,"x_max":258,"o":"m -72 1019 l 99 1019 l 224 828 l 97 828 l -72 1019 m 64 0 l 64 738 l 258 738 l 258 0 l 64 0 z "},"í":{"ha":319,"x_min":63,"x_max":394,"o":"m 97 828 l 224 1019 l 393 1019 l 224 828 l 97 828 m 64 0 l 64 738 l 258 738 l 258 0 l 64 0 z "},"î":{"ha":319,"x_min":-54,"x_max":375,"o":"m -54 828 l 96 1017 l 240 1017 l 375 828 l 246 828 l 164 911 l 76 828 l -54 828 m 64 0 l 64 738 l 258 738 l 258 0 l 64 0 z "},"ï":{"ha":319,"x_min":-99,"x_max":419,"o":"m -74 852 q -86 864 -74 852 q -99 910 -99 876 q -74 967 -99 943 q -16 992 -50 992 q 42 968 18 992 q 65 910 65 944 q 42 852 65 876 q -16 828 18 828 q -74 852 -50 828 m 280 852 q 268 864 280 852 q 256 910 256 876 q 280 967 256 943 q 338 992 304 992 q 396 968 372 992 q 419 910 419 944 q 396 852 419 876 q 338 828 372 828 q 280 852 304 828 m 64 0 l 64 738 l 258 738 l 258 0 l 64 0 z "},"ð":{"ha":750,"x_min":42,"x_max":710,"o":"m 301 0 q 101 88 161 0 q 42 363 42 176 q 103 644 42 550 q 301 738 165 738 l 379 738 q 483 724 460 738 q 404 858 458 808 l 246 785 l 207 864 l 307 910 q 164 929 254 929 q 132 928 149 929 l 132 1088 q 488 1004 363 1088 l 617 1064 l 657 983 l 563 940 q 683 675 653 839 q 708 367 708 538 q 447 0 708 0 l 301 0 m 278 544 q 268 538 278 544 q 247 488 258 531 q 236 365 236 446 q 247 244 236 285 q 277 193 258 204 q 333 182 296 182 l 417 182 q 496 221 478 182 q 514 374 514 260 q 497 523 514 488 q 417 558 479 558 l 333 558 q 278 544 297 558 z "},"ñ":{"ha":764,"x_min":63,"x_max":713,"o":"m 469 958 q 593 1011 524 958 l 626 928 q 471 833 540 833 q 388 858 436 833 q 319 882 339 882 q 287 880 300 882 q 265 876 274 878 q 244 867 257 874 q 226 858 231 861 q 205 846 221 856 q 183 833 189 836 l 149 910 q 317 1007 238 1007 q 397 982 351 1006 q 455 958 443 958 q 469 958 467 958 m 64 0 l 64 738 l 219 738 l 258 658 q 419 743 360 732 q 492 750 451 750 q 713 492 713 750 l 713 0 l 518 0 l 518 494 q 436 594 518 594 q 342 580 381 594 q 258 531 303 565 l 258 0 l 64 0 z "},"ò":{"ha":778,"x_min":51,"x_max":726,"o":"m 163 1019 l 333 1019 l 458 828 l 332 828 l 163 1019 m 53 354 q 64 515 53 450 q 99 624 75 579 q 164 696 122 669 q 389 744 240 744 q 652 661 579 744 q 725 365 725 578 q 653 72 725 151 q 389 -7 582 -7 q 125 78 200 -7 q 53 354 53 160 m 276 550 q 267 538 276 550 q 253 481 258 525 q 247 363 247 438 q 254 246 247 288 q 280 183 261 204 q 322 156 299 161 q 386 150 346 150 q 447 153 426 150 q 485 167 467 156 q 513 201 504 178 q 531 331 531 251 q 528 447 531 411 q 519 510 526 483 q 503 551 513 536 q 478 575 494 565 q 396 589 450 589 q 317 582 342 589 q 276 550 293 575 z "},"ó":{"ha":778,"x_min":51,"x_max":726,"o":"m 326 828 l 451 1019 l 622 1019 l 453 828 l 326 828 m 53 354 q 64 515 53 450 q 99 624 75 579 q 164 696 122 669 q 389 744 240 744 q 652 661 579 744 q 725 365 725 578 q 653 72 725 151 q 389 -7 582 -7 q 125 78 200 -7 q 53 354 53 160 m 276 550 q 267 538 276 550 q 253 481 258 525 q 247 363 247 438 q 254 246 247 288 q 280 183 261 204 q 322 156 299 161 q 386 150 346 150 q 447 153 426 150 q 485 167 467 156 q 513 201 504 178 q 531 331 531 251 q 528 447 531 411 q 519 510 526 483 q 503 551 513 536 q 478 575 494 565 q 396 589 450 589 q 317 582 342 589 q 276 550 293 575 z "},"ô":{"ha":778,"x_min":51,"x_max":726,"o":"m 178 828 l 328 1017 l 472 1017 l 607 828 l 478 828 l 396 911 l 308 828 l 178 828 m 53 354 q 64 515 53 450 q 99 624 75 579 q 164 696 122 669 q 389 744 240 744 q 652 661 579 744 q 725 365 725 578 q 653 72 725 151 q 389 -7 582 -7 q 125 78 200 -7 q 53 354 53 160 m 276 550 q 267 538 276 550 q 253 481 258 525 q 247 363 247 438 q 254 246 247 288 q 280 183 261 204 q 322 156 299 161 q 386 150 346 150 q 447 153 426 150 q 485 167 467 156 q 513 201 504 178 q 531 331 531 251 q 528 447 531 411 q 519 510 526 483 q 503 551 513 536 q 478 575 494 565 q 396 589 450 589 q 317 582 342 589 q 276 550 293 575 z "},"õ":{"ha":778,"x_min":51,"x_max":726,"o":"m 476 953 q 600 1006 531 953 l 633 922 q 478 828 547 828 q 394 852 443 828 q 326 876 346 876 q 294 874 307 876 q 272 870 281 872 q 251 862 264 868 q 233 853 238 856 q 212 840 228 850 q 190 828 196 831 l 156 904 q 324 1001 244 1001 q 404 976 358 1000 q 462 953 450 953 q 476 953 474 953 m 53 354 q 64 515 53 450 q 99 624 75 579 q 164 696 122 669 q 389 744 240 744 q 652 661 579 744 q 725 365 725 578 q 653 72 725 151 q 389 -7 582 -7 q 125 78 200 -7 q 53 354 53 160 m 276 550 q 267 538 276 550 q 253 481 258 525 q 247 363 247 438 q 254 246 247 288 q 280 183 261 204 q 322 156 299 161 q 386 150 346 150 q 447 153 426 150 q 485 167 467 156 q 513 201 504 178 q 531 331 531 251 q 528 447 531 411 q 519 510 526 483 q 503 551 513 536 q 478 575 494 565 q 396 589 450 589 q 317 582 342 589 q 276 550 293 575 z "},"ö":{"ha":778,"x_min":51,"x_max":726,"o":"m 155 852 q 143 864 155 852 q 131 910 131 876 q 155 967 131 943 q 213 992 179 992 q 271 968 247 992 q 294 910 294 944 q 271 852 294 876 q 213 828 247 828 q 155 852 179 828 m 509 852 q 497 864 509 852 q 485 910 485 876 q 509 967 485 943 q 567 992 533 992 q 625 968 601 992 q 649 910 649 944 q 625 852 649 876 q 567 828 601 828 q 509 852 533 828 m 53 354 q 64 515 53 450 q 99 624 75 579 q 164 696 122 669 q 389 744 240 744 q 652 661 579 744 q 725 365 725 578 q 653 72 725 151 q 389 -7 582 -7 q 125 78 200 -7 q 53 354 53 160 m 276 550 q 267 538 276 550 q 253 481 258 525 q 247 363 247 438 q 254 246 247 288 q 280 183 261 204 q 322 156 299 161 q 386 150 346 150 q 447 153 426 150 q 485 167 467 156 q 513 201 504 178 q 531 331 531 251 q 528 447 531 411 q 519 510 526 483 q 503 551 513 536 q 478 575 494 565 q 396 589 450 589 q 317 582 342 589 q 276 550 293 575 z "},"÷":{"ha":690,"x_min":51,"x_max":639,"o":"m 53 408 l 53 572 l 639 572 l 639 408 l 53 408 m 292 342 l 394 342 q 428 308 428 342 l 428 215 q 394 183 428 183 l 292 183 q 268 192 278 183 q 258 215 258 200 l 258 308 q 292 342 258 342 m 292 792 l 394 792 q 428 757 428 792 l 428 664 q 394 632 428 632 l 292 632 q 261 651 269 632 q 258 664 258 657 l 258 757 q 292 792 258 792 z "},"ø":{"ha":807,"x_min":53,"x_max":747,"o":"m 128 93 q 68 342 68 174 q 101 593 68 510 q 206 710 135 676 q 410 744 276 744 q 614 706 543 744 l 640 738 l 747 738 l 676 650 q 740 359 740 567 q 669 72 740 151 q 404 -7 597 -7 q 188 38 263 -7 l 157 0 l 53 0 l 128 93 m 291 550 q 282 538 291 550 q 268 481 274 525 q 263 369 263 438 q 275 272 263 301 l 501 565 q 417 589 476 589 q 333 582 357 589 q 291 550 308 575 m 399 150 q 435 150 399 150 q 495 164 471 150 q 528 201 519 178 q 546 346 546 251 q 532 474 546 440 l 301 178 q 399 150 326 150 z "},"ù":{"ha":764,"x_min":51,"x_max":701,"o":"m 150 1019 l 321 1019 l 446 828 l 319 828 l 150 1019 m 53 247 l 53 738 l 247 738 l 247 243 q 329 144 247 144 q 423 158 385 144 q 507 208 461 172 l 507 738 l 701 738 l 701 0 l 544 0 l 507 78 q 472 57 494 71 q 438 35 450 43 q 405 17 425 28 q 367 1 385 7 q 272 -12 324 -12 q 53 247 53 -12 z "},"ú":{"ha":764,"x_min":51,"x_max":701,"o":"m 314 828 l 439 1019 l 610 1019 l 440 828 l 314 828 m 53 247 l 53 738 l 247 738 l 247 243 q 329 144 247 144 q 423 158 385 144 q 507 208 461 172 l 507 738 l 701 738 l 701 0 l 544 0 l 507 78 q 472 57 494 71 q 438 35 450 43 q 405 17 425 28 q 367 1 385 7 q 272 -12 324 -12 q 53 247 53 -12 z "},"û":{"ha":764,"x_min":51,"x_max":701,"o":"m 163 828 l 313 1017 l 457 1017 l 592 828 l 463 828 l 381 911 l 293 828 l 163 828 m 53 247 l 53 738 l 247 738 l 247 243 q 329 144 247 144 q 423 158 385 144 q 507 208 461 172 l 507 738 l 701 738 l 701 0 l 544 0 l 507 78 q 472 57 494 71 q 438 35 450 43 q 405 17 425 28 q 367 1 385 7 q 272 -12 324 -12 q 53 247 53 -12 z "},"ü":{"ha":764,"x_min":51,"x_max":701,"o":"m 142 852 q 130 864 142 852 q 118 910 118 876 q 142 967 118 943 q 201 992 167 992 q 258 968 235 992 q 282 910 282 944 q 258 852 282 876 q 201 828 235 828 q 142 852 167 828 m 497 852 q 484 864 497 852 q 472 910 472 876 q 497 967 472 943 q 555 992 521 992 q 613 968 589 992 q 636 910 636 944 q 613 852 636 876 q 555 828 589 828 q 497 852 521 828 m 53 247 l 53 738 l 247 738 l 247 243 q 329 144 247 144 q 423 158 385 144 q 507 208 461 172 l 507 738 l 701 738 l 701 0 l 544 0 l 507 78 q 472 57 494 71 q 438 35 450 43 q 405 17 425 28 q 367 1 385 7 q 272 -12 324 -12 q 53 247 53 -12 z "},"ý":{"ha":803,"x_min":22,"x_max":779,"o":"m 338 828 l 463 1019 l 633 1019 l 464 828 l 338 828 m 22 738 l 226 738 l 354 221 q 371 188 361 196 q 386 176 381 179 q 399 170 392 172 q 411 168 407 168 q 422 167 415 168 q 428 167 428 167 l 575 738 l 778 738 l 522 -233 l 421 -375 l 282 -375 l 386 0 q 167 188 217 0 l 22 738 z "},"þ":{"ha":772,"x_min":72,"x_max":732,"o":"m 268 1086 l 268 657 q 370 716 310 690 q 490 742 431 742 q 731 367 731 742 q 664 56 731 140 q 490 -18 606 -18 q 377 -5 439 -18 q 268 33 315 8 l 268 -375 l 74 -375 l 74 1086 l 268 1086 m 439 576 q 268 528 342 572 l 268 161 q 439 135 328 139 q 492 150 472 135 q 536 382 536 188 q 439 576 536 576 z "},"ÿ":{"ha":803,"x_min":22,"x_max":779,"o":"m 166 852 q 154 864 166 852 q 142 910 142 876 q 166 967 142 943 q 224 992 190 992 q 281 968 257 992 q 304 910 304 944 q 281 852 304 876 q 224 828 257 828 q 166 852 190 828 m 520 852 q 508 864 520 852 q 496 910 496 876 q 520 967 496 943 q 578 992 544 992 q 635 968 611 992 q 658 910 658 944 q 635 852 658 876 q 578 828 611 828 q 520 852 544 828 m 22 738 l 226 738 l 354 221 q 371 188 361 196 q 386 176 381 179 q 399 170 392 172 q 411 168 407 168 q 422 167 415 168 q 428 167 428 167 l 575 738 l 778 738 l 522 -233 l 421 -375 l 282 -375 l 386 0 q 167 188 217 0 l 22 738 z "},"Ā":{"ha":961,"x_min":47,"x_max":942,"o":"m 299 1107 l 299 1217 l 704 1217 l 704 1107 l 299 1107 m 47 0 l 390 1017 l 611 1017 l 942 0 l 735 0 l 663 225 l 329 225 l 256 0 l 47 0 m 381 397 l 617 397 l 503 761 l 381 397 z "},"ā":{"ha":721,"x_min":42,"x_max":669,"o":"m 172 835 l 172 944 l 578 944 l 578 835 l 172 835 m 67 703 q 404 751 193 751 q 601 698 532 751 q 669 514 669 644 l 669 0 l 515 0 l 475 81 q 440 51 469 71 q 357 11 410 31 q 256 -8 304 -8 q 97 51 153 -8 q 42 188 42 110 l 42 257 q 94 403 42 346 q 257 460 147 460 q 421 460 367 460 q 475 460 475 460 q 475 495 475 483 q 475 507 475 507 q 451 580 475 563 q 357 597 428 597 q 67 582 286 597 l 67 703 m 236 215 q 254 160 236 174 q 307 147 272 147 q 384 162 342 147 q 450 190 426 176 l 475 206 l 475 340 l 296 326 q 236 251 236 321 l 236 215 z "},"Ă":{"ha":961,"x_min":47,"x_max":942,"o":"m 342 1265 l 422 1265 q 444 1209 422 1231 q 502 1188 465 1188 q 560 1208 539 1188 q 581 1265 581 1229 l 661 1265 q 615 1150 661 1193 q 500 1107 568 1107 q 387 1151 432 1107 q 342 1265 342 1194 m 47 0 l 390 1017 l 611 1017 l 942 0 l 735 0 l 663 225 l 329 225 l 256 0 l 47 0 m 381 397 l 617 397 l 503 761 l 381 397 z "},"ă":{"ha":721,"x_min":42,"x_max":669,"o":"m 215 993 l 296 993 q 318 937 296 958 q 376 915 340 915 q 433 936 413 915 q 454 993 454 957 l 535 993 q 489 878 535 921 q 375 835 443 835 q 261 878 307 835 q 215 993 215 922 m 67 703 q 404 751 193 751 q 601 698 532 751 q 669 514 669 644 l 669 0 l 515 0 l 475 81 q 440 51 469 71 q 357 11 410 31 q 256 -8 304 -8 q 97 51 153 -8 q 42 188 42 110 l 42 257 q 94 403 42 346 q 257 460 147 460 q 421 460 367 460 q 475 460 475 460 q 475 495 475 483 q 475 507 475 507 q 451 580 475 563 q 357 597 428 597 q 67 582 286 597 l 67 703 m 236 215 q 254 160 236 174 q 307 147 272 147 q 384 162 342 147 q 450 190 426 176 l 475 206 l 475 340 l 296 326 q 236 251 236 321 l 236 215 z "},"Ą":{"ha":961,"x_min":47,"x_max":942,"o":"m 893 -258 q 853 -262 875 -262 q 799 -251 832 -262 q 742 -211 767 -240 q 706 -132 706 -167 q 804 1 706 -49 l 882 1 q 824 -124 790 -68 q 893 -151 843 -154 l 893 -258 m 47 0 l 390 1017 l 611 1017 l 942 0 l 735 0 l 663 225 l 329 225 l 256 0 l 47 0 m 381 397 l 617 397 l 503 761 l 381 397 z "},"ą":{"ha":721,"x_min":42,"x_max":669,"o":"m 646 -258 q 607 -264 628 -264 q 553 -253 586 -264 q 494 -211 519 -242 q 458 -132 458 -168 q 557 0 458 -50 l 635 0 q 579 -58 589 -35 q 569 -96 569 -82 q 574 -120 568 -110 q 592 -137 581 -131 q 646 -153 613 -154 l 646 -258 m 67 703 q 404 751 193 751 q 601 698 532 751 q 669 514 669 644 l 669 0 l 515 0 l 475 81 q 440 51 469 71 q 357 11 410 31 q 256 -8 304 -8 q 97 51 153 -8 q 42 188 42 110 l 42 257 q 94 403 42 346 q 257 460 147 460 q 421 460 367 460 q 475 460 475 460 q 475 495 475 483 q 475 507 475 507 q 451 580 475 563 q 357 597 428 597 q 67 582 286 597 l 67 703 m 236 215 q 254 160 236 174 q 307 147 272 147 q 384 162 342 147 q 450 190 426 176 l 475 206 l 475 340 l 296 326 q 236 251 236 321 l 236 215 z "},"Ć":{"ha":793,"x_min":57,"x_max":758,"o":"m 397 1111 l 524 1303 l 693 1303 l 524 1111 l 397 1111 m 128 892 q 282 1013 183 983 q 404 1028 336 1028 q 758 982 603 1028 l 758 829 q 748 831 758 829 q 720 833 738 832 q 679 837 703 835 q 627 841 656 839 q 571 844 599 843 q 454 849 506 849 q 374 842 403 849 q 319 817 346 836 q 281 761 293 799 q 253 508 253 681 q 292 254 253 325 q 450 171 336 171 q 714 179 581 171 l 758 182 l 758 31 q 436 -8 633 -8 q 404 -8 421 -8 q 138 125 218 -7 q 58 517 58 257 q 128 892 58 778 z "},"ć":{"ha":686,"x_min":51,"x_max":646,"o":"m 318 829 l 443 1022 l 614 1022 l 444 829 l 318 829 m 53 369 q 70 556 53 481 q 122 672 88 632 q 197 728 156 711 q 296 744 239 744 q 635 700 500 744 l 635 581 q 427 589 503 589 q 338 587 351 589 q 306 578 324 585 q 279 558 288 572 q 263 519 271 544 q 247 374 247 478 q 260 225 247 271 q 299 165 274 179 q 381 150 325 150 q 607 160 493 150 l 644 163 l 644 40 q 519 1 581 7 q 363 -7 429 -7 l 354 -7 q 296 -7 301 -7 q 124 67 186 -7 q 53 369 53 149 z "},"Ĉ":{"ha":793,"x_min":57,"x_max":758,"o":"m 244 1111 l 394 1300 l 539 1300 l 674 1111 l 544 1111 l 463 1194 l 375 1111 l 244 1111 m 128 892 q 282 1013 183 983 q 404 1028 336 1028 q 758 982 603 1028 l 758 829 q 748 831 758 829 q 720 833 738 832 q 679 837 703 835 q 627 841 656 839 q 571 844 599 843 q 454 849 506 849 q 374 842 403 849 q 319 817 346 836 q 281 761 293 799 q 253 508 253 681 q 292 254 253 325 q 450 171 336 171 q 714 179 581 171 l 758 182 l 758 31 q 436 -8 633 -8 q 404 -8 421 -8 q 138 125 218 -7 q 58 517 58 257 q 128 892 58 778 z "},"ĉ":{"ha":686,"x_min":51,"x_max":646,"o":"m 161 829 l 310 1017 l 454 1017 l 589 829 l 460 829 l 378 913 l 292 829 l 161 829 m 53 369 q 70 556 53 481 q 122 672 88 632 q 197 728 156 711 q 296 744 239 744 q 635 700 500 744 l 635 581 q 427 589 503 589 q 338 587 351 589 q 306 578 324 585 q 279 558 288 572 q 263 519 271 544 q 247 374 247 478 q 260 225 247 271 q 299 165 274 179 q 381 150 325 150 q 607 160 493 150 l 644 163 l 644 40 q 519 1 581 7 q 363 -7 429 -7 l 354 -7 q 296 -7 301 -7 q 124 67 186 -7 q 53 369 53 149 z "},"Ċ":{"ha":793,"x_min":57,"x_max":758,"o":"m 376 1144 l 376 1250 q 410 1285 376 1285 l 510 1285 q 533 1275 525 1285 q 542 1250 542 1265 l 542 1144 q 510 1113 542 1113 l 410 1113 q 386 1122 396 1113 q 376 1144 376 1131 m 128 892 q 282 1013 183 983 q 404 1028 336 1028 q 758 982 603 1028 l 758 829 q 748 831 758 829 q 720 833 738 832 q 679 837 703 835 q 627 841 656 839 q 571 844 599 843 q 454 849 506 849 q 374 842 403 849 q 319 817 346 836 q 281 761 293 799 q 253 508 253 681 q 292 254 253 325 q 450 171 336 171 q 714 179 581 171 l 758 182 l 758 31 q 436 -8 633 -8 q 404 -8 421 -8 q 138 125 218 -7 q 58 517 58 257 q 128 892 58 778 z "},"ċ":{"ha":686,"x_min":51,"x_max":646,"o":"m 313 863 l 313 968 q 346 1003 313 1003 l 446 1003 q 469 993 461 1003 q 478 968 478 983 l 478 863 q 446 831 478 831 l 346 831 q 322 839 331 831 q 313 863 313 847 m 53 369 q 70 556 53 481 q 122 672 88 632 q 197 728 156 711 q 296 744 239 744 q 635 700 500 744 l 635 581 q 427 589 503 589 q 338 587 351 589 q 306 578 324 585 q 279 558 288 572 q 263 519 271 544 q 247 374 247 478 q 260 225 247 271 q 299 165 274 179 q 381 150 325 150 q 607 160 493 150 l 644 163 l 644 40 q 519 1 581 7 q 363 -7 429 -7 l 354 -7 q 296 -7 301 -7 q 124 67 186 -7 q 53 369 53 149 z "},"Č":{"ha":793,"x_min":57,"x_max":758,"o":"m 256 1300 l 386 1300 l 474 1217 l 554 1300 l 685 1300 l 543 1111 l 399 1111 l 256 1300 m 128 892 q 282 1013 183 983 q 404 1028 336 1028 q 758 982 603 1028 l 758 829 q 748 831 758 829 q 720 833 738 832 q 679 837 703 835 q 627 841 656 839 q 571 844 599 843 q 454 849 506 849 q 374 842 403 849 q 319 817 346 836 q 281 761 293 799 q 253 508 253 681 q 292 254 253 325 q 450 171 336 171 q 714 179 581 171 l 758 182 l 758 31 q 436 -8 633 -8 q 404 -8 421 -8 q 138 125 218 -7 q 58 517 58 257 q 128 892 58 778 z "},"č":{"ha":686,"x_min":51,"x_max":646,"o":"m 163 1018 l 292 1018 l 379 935 l 461 1018 l 590 1018 l 449 829 l 304 829 l 163 1018 m 53 369 q 70 556 53 481 q 122 672 88 632 q 197 728 156 711 q 296 744 239 744 q 635 700 500 744 l 635 581 q 427 589 503 589 q 338 587 351 589 q 306 578 324 585 q 279 558 288 572 q 263 519 271 544 q 247 374 247 478 q 260 225 247 271 q 299 165 274 179 q 381 150 325 150 q 607 160 493 150 l 644 163 l 644 40 q 519 1 581 7 q 363 -7 429 -7 l 354 -7 q 296 -7 301 -7 q 124 67 186 -7 q 53 369 53 149 z "},"Ď":{"ha":919,"x_min":83,"x_max":869,"o":"m 228 1292 l 357 1292 l 444 1208 l 526 1292 l 656 1292 l 514 1104 l 369 1104 l 228 1292 m 85 0 l 85 1017 l 517 1017 q 869 504 869 1017 q 718 65 869 188 q 517 0 638 0 l 85 0 m 279 174 l 501 174 q 675 506 675 174 q 594 818 675 758 q 501 844 558 844 l 279 844 l 279 174 z "},"ď":{"ha":843,"x_min":51,"x_max":915,"o":"m 53 349 q 53 432 53 349 q 74 583 53 515 q 121 682 94 651 q 293 749 178 749 q 406 735 343 749 q 517 700 468 722 l 517 1090 l 711 1090 l 711 0 l 550 0 l 517 75 q 397 10 460 29 q 293 -8 335 -8 q 108 87 164 -8 q 53 349 53 182 m 290 580 q 281 572 290 580 q 259 514 271 564 q 247 359 247 464 q 271 206 247 254 q 344 158 294 158 q 517 203 446 158 l 517 568 q 344 596 446 596 q 290 580 310 596 m 915 1085 l 915 992 l 900 806 l 796 806 l 782 992 l 781 1085 l 915 1085 z "},"Đ":{"ha":919,"x_min":-7,"x_max":869,"o":"m -6 472 l -6 564 l 85 564 l 85 1017 q 517 1017 85 1017 q 865 613 833 1017 q 869 476 869 561 q 849 299 869 390 q 786 140 828 208 q 517 0 700 0 l 85 0 l 85 472 l -6 472 m 279 174 l 501 174 q 633 259 593 174 q 672 506 672 344 q 625 775 672 701 q 501 842 583 842 l 279 842 l 279 564 l 433 564 l 433 472 l 279 472 l 279 174 z "},"đ":{"ha":782,"x_min":47,"x_max":797,"o":"m 49 349 q 49 432 49 349 q 69 583 49 515 q 115 682 89 651 q 289 749 174 749 q 401 735 338 749 q 513 700 464 722 l 513 840 l 364 840 l 364 931 l 513 931 l 513 1090 l 706 1090 l 706 931 l 797 931 l 797 840 l 706 840 l 706 0 l 546 0 l 513 75 q 393 10 456 29 q 289 -8 331 -8 q 103 87 158 -8 q 49 349 49 182 m 286 580 q 276 572 286 580 q 255 514 267 564 q 243 359 243 464 q 267 206 243 254 q 339 158 290 158 q 513 203 442 158 l 513 568 q 339 596 440 596 q 286 580 306 596 z "},"Ē":{"ha":788,"x_min":81,"x_max":750,"o":"m 231 1106 l 231 1217 l 636 1217 l 636 1106 l 231 1106 m 81 200 l 81 806 q 156 978 81 932 q 290 1017 218 1017 q 478 1012 296 1017 q 749 994 660 1007 l 749 833 l 347 833 q 283 808 296 833 q 275 756 275 789 l 275 597 l 686 583 l 686 422 l 275 410 l 275 251 q 304 188 275 199 q 361 179 325 179 l 749 179 l 749 19 q 406 0 679 10 l 315 -4 q 290 -4 304 -4 q 251 -2 275 -4 q 194 13 228 0 q 136 46 161 25 q 81 200 81 96 z "},"ē":{"ha":729,"x_min":51,"x_max":688,"o":"m 175 828 l 175 938 l 581 938 l 581 828 l 175 828 m 251 735 q 363 743 300 743 q 460 741 425 743 q 530 733 494 739 q 588 715 565 726 q 631 683 610 703 q 663 635 651 663 q 688 491 688 572 q 664 368 688 410 q 482 289 618 289 l 247 289 q 256 211 247 240 q 286 169 264 182 q 333 152 308 156 q 465 149 357 149 q 674 164 574 149 l 674 32 q 548 3 611 8 q 461 -4 485 -3 q 403 -6 438 -6 q 296 -7 357 -7 q 106 79 158 -7 q 53 359 53 165 q 95 634 53 553 q 251 735 138 715 m 432 429 q 493 485 493 429 q 474 574 493 554 q 399 594 456 594 q 320 591 342 594 q 278 572 299 588 q 253 524 258 556 q 247 463 247 492 q 247 429 247 435 l 432 429 z "},"Ė":{"ha":788,"x_min":81,"x_max":750,"o":"m 368 1138 l 368 1243 q 401 1278 368 1278 l 501 1278 q 525 1268 517 1278 q 533 1243 533 1258 l 533 1138 q 501 1106 533 1106 l 401 1106 q 378 1114 388 1106 q 368 1138 368 1122 m 81 200 l 81 806 q 156 978 81 932 q 290 1017 218 1017 q 478 1012 296 1017 q 749 994 660 1007 l 749 833 l 347 833 q 283 808 296 833 q 275 756 275 789 l 275 597 l 686 583 l 686 422 l 275 410 l 275 251 q 304 188 275 199 q 361 179 325 179 l 749 179 l 749 19 q 406 0 679 10 l 315 -4 q 290 -4 304 -4 q 251 -2 275 -4 q 194 13 228 0 q 136 46 161 25 q 81 200 81 96 z "},"ė":{"ha":729,"x_min":51,"x_max":688,"o":"m 294 860 l 294 965 q 328 1000 294 1000 l 428 1000 q 451 990 443 1000 q 460 965 460 981 l 460 860 q 428 828 460 828 l 328 828 q 303 837 313 828 q 294 860 294 846 m 251 735 q 363 743 300 743 q 460 741 425 743 q 530 733 494 739 q 588 715 565 726 q 631 683 610 703 q 663 635 651 663 q 688 491 688 572 q 664 368 688 410 q 482 289 618 289 l 247 289 q 256 211 247 240 q 286 169 264 182 q 333 152 308 156 q 465 149 357 149 q 674 164 574 149 l 674 32 q 548 3 611 8 q 461 -4 485 -3 q 403 -6 438 -6 q 296 -7 357 -7 q 106 79 158 -7 q 53 359 53 165 q 95 634 53 553 q 251 735 138 715 m 432 429 q 493 485 493 429 q 474 574 493 554 q 399 594 456 594 q 320 591 342 594 q 278 572 299 588 q 253 524 258 556 q 247 463 247 492 q 247 429 247 435 l 432 429 z "},"Ę":{"ha":788,"x_min":81,"x_max":761,"o":"m 760 -239 q 721 -243 742 -243 q 667 -233 700 -243 q 608 -192 633 -222 q 572 -112 572 -149 q 671 19 572 -31 l 749 19 q 692 -104 657 -49 q 760 -133 710 -135 l 760 -239 m 81 200 l 81 806 q 156 978 81 932 q 290 1017 218 1017 q 478 1012 296 1017 q 749 994 660 1007 l 749 833 l 347 833 q 283 808 296 833 q 275 756 275 789 l 275 597 l 686 583 l 686 422 l 275 410 l 275 251 q 304 188 275 199 q 361 179 325 179 l 749 179 l 749 19 q 406 0 679 10 l 315 -4 q 290 -4 304 -4 q 251 -2 275 -4 q 194 13 228 0 q 136 46 161 25 q 81 200 81 96 z "},"ę":{"ha":729,"x_min":51,"x_max":688,"o":"m 685 -228 q 646 -232 667 -232 q 592 -221 625 -232 q 533 -179 558 -210 q 515 -36 472 -106 q 596 32 540 4 l 674 32 q 617 -92 582 -37 q 685 -121 635 -124 l 685 -228 m 251 735 q 363 743 300 743 q 460 741 425 743 q 530 733 494 739 q 588 715 565 726 q 631 683 610 703 q 663 635 651 663 q 688 491 688 572 q 664 368 688 410 q 482 289 618 289 l 247 289 q 256 211 247 240 q 286 169 264 182 q 333 152 308 156 q 465 149 357 149 q 674 164 574 149 l 674 32 q 548 3 611 8 q 461 -4 485 -3 q 403 -6 438 -6 q 296 -7 357 -7 q 106 79 158 -7 q 53 359 53 165 q 95 634 53 553 q 251 735 138 715 m 432 429 q 493 485 493 429 q 474 574 493 554 q 399 594 456 594 q 320 591 342 594 q 278 572 299 588 q 253 524 258 556 q 247 463 247 492 q 247 429 247 435 l 432 429 z "},"Ě":{"ha":788,"x_min":81,"x_max":750,"o":"m 229 1292 l 360 1292 l 447 1208 l 528 1292 l 658 1292 l 517 1104 l 372 1104 l 229 1292 m 81 200 l 81 806 q 156 978 81 932 q 290 1017 218 1017 q 478 1012 296 1017 q 749 994 660 1007 l 749 833 l 347 833 q 283 808 296 833 q 275 756 275 789 l 275 597 l 686 583 l 686 422 l 275 410 l 275 251 q 304 188 275 199 q 361 179 325 179 l 749 179 l 749 19 q 406 0 679 10 l 315 -4 q 290 -4 304 -4 q 251 -2 275 -4 q 194 13 228 0 q 136 46 161 25 q 81 200 81 96 z "},"ě":{"ha":729,"x_min":51,"x_max":688,"o":"m 168 1013 l 299 1013 l 386 929 l 467 1013 l 597 1013 l 456 825 l 311 825 l 168 1013 m 251 735 q 363 743 300 743 q 460 741 425 743 q 530 733 494 739 q 588 715 565 726 q 631 683 610 703 q 663 635 651 663 q 688 491 688 572 q 664 368 688 410 q 482 289 618 289 l 247 289 q 256 211 247 240 q 286 169 264 182 q 333 152 308 156 q 465 149 357 149 q 674 164 574 149 l 674 32 q 548 3 611 8 q 461 -4 485 -3 q 403 -6 438 -6 q 296 -7 357 -7 q 106 79 158 -7 q 53 359 53 165 q 95 634 53 553 q 251 735 138 715 m 432 429 q 493 485 493 429 q 474 574 493 554 q 399 594 456 594 q 320 591 342 594 q 278 572 299 588 q 253 524 258 556 q 247 463 247 492 q 247 429 247 435 l 432 429 z "},"Ĝ":{"ha":853,"x_min":57,"x_max":797,"o":"m 250 1111 l 399 1300 l 543 1300 l 678 1111 l 549 1111 l 467 1194 l 381 1111 l 250 1111 m 92 203 q 81 239 92 203 q 65 347 71 275 q 58 513 58 418 q 66 681 58 608 q 95 822 74 754 q 154 933 117 889 q 390 1028 233 1028 q 591 1019 508 1028 q 781 983 674 1010 l 781 832 q 758 835 779 832 q 701 841 736 838 q 624 847 665 844 q 436 856 524 856 q 289 781 325 856 q 253 508 253 707 q 286 243 253 310 q 428 175 321 175 q 513 191 469 175 q 579 222 557 207 l 601 239 l 601 421 l 460 421 l 460 544 q 701 578 542 578 q 796 575 746 578 l 796 0 l 657 0 l 604 68 q 500 8 556 22 q 244 17 349 -29 q 148 88 183 43 q 92 203 113 132 z "},"ĝ":{"ha":778,"x_min":49,"x_max":758,"o":"m 172 828 l 321 1017 l 465 1017 l 600 828 l 471 828 l 389 911 l 303 828 l 172 828 m 281 207 q 225 175 225 207 q 240 145 225 153 q 281 138 254 138 l 507 138 q 667 83 610 138 q 725 -81 725 28 l 725 -161 q 588 -362 725 -322 q 494 -375 547 -375 l 286 -375 q 74 -256 124 -375 q 56 -161 56 -215 l 56 -68 l 121 0 q 58 79 78 24 q 49 149 49 108 q 70 224 49 189 q 135 274 92 260 q 74 357 93 300 q 54 478 54 414 q 310 740 54 740 l 758 740 l 758 625 l 676 600 q 681 588 676 599 q 685 576 685 578 q 690 564 686 574 q 694 549 693 554 q 698 532 696 543 q 701 510 700 521 q 704 449 704 479 q 698 388 704 419 q 674 322 692 356 q 631 264 657 288 q 451 207 568 207 l 281 207 m 251 -137 q 273 -203 251 -187 q 339 -219 294 -219 l 453 -219 q 517 -199 501 -219 q 532 -142 532 -179 l 532 -87 q 515 -37 532 -54 q 460 -19 499 -21 l 310 -19 l 251 -15 l 251 -137 m 249 478 q 338 364 249 364 l 415 364 q 510 472 510 364 q 488 559 510 535 q 414 583 465 583 l 340 583 q 267 555 286 583 q 249 478 249 526 z "},"Ğ":{"ha":853,"x_min":57,"x_max":797,"o":"m 294 1269 l 375 1269 q 397 1213 375 1235 q 455 1192 418 1192 q 513 1213 492 1192 q 533 1269 533 1233 l 614 1269 q 592 1185 614 1221 q 453 1111 547 1111 q 340 1155 385 1111 q 294 1269 294 1199 m 92 203 q 81 239 92 203 q 65 347 71 275 q 58 513 58 418 q 66 681 58 608 q 95 822 74 754 q 154 933 117 889 q 390 1028 233 1028 q 591 1019 508 1028 q 781 983 674 1010 l 781 832 q 758 835 779 832 q 701 841 736 838 q 624 847 665 844 q 436 856 524 856 q 289 781 325 856 q 253 508 253 707 q 286 243 253 310 q 428 175 321 175 q 513 191 469 175 q 579 222 557 207 l 601 239 l 601 421 l 460 421 l 460 544 q 701 578 542 578 q 796 575 746 578 l 796 0 l 657 0 l 604 68 q 500 8 556 22 q 244 17 349 -29 q 148 88 183 43 q 92 203 113 132 z "},"ğ":{"ha":778,"x_min":49,"x_max":758,"o":"m 226 986 l 307 986 q 329 930 307 951 q 388 908 351 908 q 444 929 424 908 q 465 986 465 950 l 546 986 q 500 871 546 914 q 386 828 454 828 q 272 872 318 828 q 226 986 226 915 m 281 207 q 225 175 225 207 q 240 145 225 153 q 281 138 254 138 l 507 138 q 667 83 610 138 q 725 -81 725 28 l 725 -161 q 588 -362 725 -322 q 494 -375 547 -375 l 286 -375 q 74 -256 124 -375 q 56 -161 56 -215 l 56 -68 l 121 0 q 58 79 78 24 q 49 149 49 108 q 70 224 49 189 q 135 274 92 260 q 74 357 93 300 q 54 478 54 414 q 310 740 54 740 l 758 740 l 758 625 l 676 600 q 681 588 676 599 q 685 576 685 578 q 690 564 686 574 q 694 549 693 554 q 698 532 696 543 q 701 510 700 521 q 704 449 704 479 q 698 388 704 419 q 674 322 692 356 q 631 264 657 288 q 451 207 568 207 l 281 207 m 251 -137 q 273 -203 251 -187 q 339 -219 294 -219 l 453 -219 q 517 -199 501 -219 q 532 -142 532 -179 l 532 -87 q 515 -37 532 -54 q 460 -19 499 -21 l 310 -19 l 251 -15 l 251 -137 m 249 478 q 338 364 249 364 l 415 364 q 510 472 510 364 q 488 559 510 535 q 414 583 465 583 l 340 583 q 267 555 286 583 q 249 478 249 526 z "},"Ġ":{"ha":853,"x_min":57,"x_max":797,"o":"m 369 1143 l 369 1249 q 403 1283 369 1283 l 503 1283 q 526 1274 518 1283 q 535 1249 535 1264 l 535 1143 q 503 1111 535 1111 l 403 1111 q 379 1120 389 1111 q 369 1143 369 1129 m 92 203 q 81 239 92 203 q 65 347 71 275 q 58 513 58 418 q 66 681 58 608 q 95 822 74 754 q 154 933 117 889 q 390 1028 233 1028 q 591 1019 508 1028 q 781 983 674 1010 l 781 832 q 758 835 779 832 q 701 841 736 838 q 624 847 665 844 q 436 856 524 856 q 289 781 325 856 q 253 508 253 707 q 286 243 253 310 q 428 175 321 175 q 513 191 469 175 q 579 222 557 207 l 601 239 l 601 421 l 460 421 l 460 544 q 701 578 542 578 q 796 575 746 578 l 796 0 l 657 0 l 604 68 q 500 8 556 22 q 244 17 349 -29 q 148 88 183 43 q 92 203 113 132 z "},"ġ":{"ha":778,"x_min":49,"x_max":758,"o":"m 307 861 l 307 967 q 340 1001 307 1001 l 440 1001 q 464 992 456 1001 q 472 967 472 982 l 472 861 q 440 829 472 829 l 340 829 q 317 838 326 829 q 307 861 307 847 m 281 207 q 225 175 225 207 q 240 145 225 153 q 281 138 254 138 l 507 138 q 667 83 610 138 q 725 -81 725 28 l 725 -161 q 588 -362 725 -322 q 494 -375 547 -375 l 286 -375 q 74 -256 124 -375 q 56 -161 56 -215 l 56 -68 l 121 0 q 58 79 78 24 q 49 149 49 108 q 70 224 49 189 q 135 274 92 260 q 74 357 93 300 q 54 478 54 414 q 310 740 54 740 l 758 740 l 758 625 l 676 600 q 681 588 676 599 q 685 576 685 578 q 690 564 686 574 q 694 549 693 554 q 698 532 696 543 q 701 510 700 521 q 704 449 704 479 q 698 388 704 419 q 674 322 692 356 q 631 264 657 288 q 451 207 568 207 l 281 207 m 251 -137 q 273 -203 251 -187 q 339 -219 294 -219 l 453 -219 q 517 -199 501 -219 q 532 -142 532 -179 l 532 -87 q 515 -37 532 -54 q 460 -19 499 -21 l 310 -19 l 251 -15 l 251 -137 m 249 478 q 338 364 249 364 l 415 364 q 510 472 510 364 q 488 559 510 535 q 414 583 465 583 l 340 583 q 267 555 286 583 q 249 478 249 526 z "},"Ģ":{"ha":853,"x_min":57,"x_max":797,"o":"m 351 -249 l 351 -140 q 383 -107 351 -107 l 488 -107 q 518 -140 518 -107 l 518 -294 q 501 -358 518 -333 q 461 -389 485 -382 q 409 -397 432 -397 q 375 -394 386 -397 l 358 -390 l 358 -329 q 385 -325 375 -331 q 397 -297 397 -317 l 397 -281 l 383 -281 q 351 -249 351 -281 m 92 203 q 81 239 92 203 q 65 347 71 275 q 58 513 58 418 q 66 681 58 608 q 95 822 74 754 q 154 933 117 889 q 390 1028 233 1028 q 591 1019 508 1028 q 781 983 674 1010 l 781 832 q 758 835 779 832 q 701 841 736 838 q 624 847 665 844 q 436 856 524 856 q 289 781 325 856 q 253 508 253 707 q 286 243 253 310 q 428 175 321 175 q 513 191 469 175 q 579 222 557 207 l 601 239 l 601 421 l 460 421 l 460 544 q 701 578 542 578 q 796 575 746 578 l 796 0 l 657 0 l 604 68 q 500 8 556 22 q 244 17 349 -29 q 148 88 183 43 q 92 203 113 132 z "},"ģ":{"ha":778,"x_min":49,"x_max":758,"o":"m 300 857 l 300 1011 q 317 1074 300 1050 q 356 1106 333 1099 q 408 1114 385 1114 q 443 1111 431 1114 l 460 1107 l 460 1047 q 433 1042 443 1047 q 421 1015 421 1033 l 421 997 l 435 997 q 465 967 465 997 l 465 857 q 435 824 465 824 l 329 824 q 300 857 300 824 m 49 142 q 70 228 49 192 q 135 274 92 264 q 74 357 93 300 q 54 478 54 414 q 310 740 54 740 l 758 740 l 758 625 l 676 600 q 681 588 676 599 q 685 576 685 578 q 690 564 686 574 q 694 549 693 554 q 698 532 696 543 q 701 510 700 521 q 704 449 704 479 q 698 388 704 419 q 674 322 692 356 q 631 264 657 288 q 451 207 568 207 l 281 207 q 225 174 225 207 q 234 150 225 158 q 251 140 243 142 q 281 136 260 139 l 503 110 q 669 49 613 99 q 725 -115 725 0 l 725 -161 q 588 -362 725 -322 q 494 -375 547 -375 l 286 -375 q 74 -256 124 -375 q 56 -161 56 -215 l 56 -60 l 128 7 q 49 142 49 50 m 251 -137 q 273 -203 251 -187 q 338 -218 294 -218 l 453 -218 q 517 -199 501 -218 q 532 -142 532 -179 l 532 -114 q 447 -46 532 -56 l 251 -22 l 251 -137 m 340 592 q 249 474 249 592 q 338 356 249 356 l 415 356 q 510 472 510 356 q 488 565 510 539 q 414 592 465 592 l 340 592 z "},"Ĥ":{"ha":883,"x_min":83,"x_max":822,"o":"m 239 1107 l 389 1294 l 533 1294 l 667 1107 l 539 1107 l 457 1190 l 369 1107 l 239 1107 m 85 0 l 85 1017 l 279 1017 l 279 581 l 628 581 l 628 1017 l 822 1017 l 822 0 l 628 0 l 628 403 l 279 403 l 279 0 l 85 0 z "},"ĥ":{"ha":764,"x_min":-110,"x_max":654,"o":"m -108 1171 l 40 1358 l 185 1358 l 319 1171 l 190 1171 l 108 1254 l 22 1171 l -108 1171 m 4 0 l 4 1088 l 199 1088 l 199 658 q 360 743 297 731 q 433 750 393 750 q 653 492 653 750 l 653 0 l 458 0 l 458 494 q 378 594 458 594 q 283 580 321 594 q 199 531 244 565 l 199 0 l 4 0 z "},"Ħ":{"ha":953,"x_min":19,"x_max":933,"o":"m 21 717 l 21 807 l 108 807 l 108 1017 l 303 1017 l 303 807 l 651 807 l 651 1017 l 846 1017 l 846 807 l 932 807 l 932 717 l 846 717 l 846 0 l 651 0 l 651 403 l 303 403 l 303 0 l 108 0 l 108 717 l 21 717 m 303 581 l 651 581 l 651 717 l 303 717 l 303 581 z "},"ħ":{"ha":783,"x_min":-11,"x_max":732,"o":"m 522 750 q 732 492 732 750 l 732 0 l 536 0 l 536 493 q 515 570 535 546 q 451 594 496 594 q 279 531 361 592 l 279 0 l 83 0 l 83 839 l -11 839 l -11 931 l 83 931 l 83 1088 l 279 1088 l 279 931 l 435 931 l 435 839 l 279 839 l 279 658 q 309 678 288 664 q 341 697 331 692 q 371 713 351 703 q 404 728 390 724 q 438 739 418 733 q 496 750 472 750 q 522 750 519 750 z "},"Ĩ":{"ha":340,"x_min":-57,"x_max":421,"o":"m 264 1232 q 386 1285 317 1232 l 419 1201 q 265 1107 333 1107 q 181 1131 229 1107 q 114 1156 133 1156 q 81 1153 94 1156 q 59 1149 68 1151 q 38 1141 50 1147 q 19 1132 25 1135 q -2 1119 14 1129 q -24 1107 -18 1110 l -57 1183 q 111 1281 32 1281 q 190 1256 144 1279 q 249 1232 236 1232 q 264 1232 261 1232 m 85 0 l 85 1017 l 279 1017 l 279 0 l 85 0 z "},"ĩ":{"ha":319,"x_min":-79,"x_max":400,"o":"m 243 953 q 365 1006 296 953 l 399 922 q 243 828 313 828 q 160 852 208 828 q 92 876 111 876 q 60 874 74 876 q 38 870 46 872 q 17 862 29 868 q -1 853 4 856 q -23 840 -7 850 q -44 828 -39 831 l -78 904 q 90 1001 11 1001 q 169 976 124 1000 q 228 953 215 953 q 243 953 240 953 m 64 0 l 64 738 l 258 738 l 258 0 l 64 0 z "},"Ī":{"ha":340,"x_min":-22,"x_max":385,"o":"m -21 1107 l -21 1217 l 385 1217 l 385 1107 l -21 1107 m 85 0 l 85 1017 l 279 1017 l 279 0 l 85 0 z "},"ī":{"ha":319,"x_min":-43,"x_max":364,"o":"m -42 828 l -42 939 l 364 939 l 364 828 l -42 828 m 64 0 l 64 738 l 258 738 l 258 0 l 64 0 z "},"Į":{"ha":340,"x_min":53,"x_max":279,"o":"m 242 -258 q 201 -262 222 -262 q 147 -252 181 -262 q 89 -211 114 -242 q 53 -132 53 -168 q 153 0 53 -50 l 229 0 q 172 -124 138 -68 q 242 -153 192 -154 l 242 -258 m 85 0 l 85 1017 l 279 1017 l 279 0 l 85 0 z "},"į":{"ha":315,"x_min":25,"x_max":264,"o":"m 214 -258 q 174 -262 196 -262 q 120 -252 153 -262 q 63 -211 88 -242 q 26 -132 26 -168 q 125 0 26 -50 l 201 0 q 144 -124 110 -68 q 214 -153 164 -154 l 214 -258 m 53 847 l 53 969 q 86 1006 53 1006 l 232 1006 q 263 969 263 1006 l 263 847 q 232 815 263 815 l 86 815 q 62 824 71 815 q 53 847 53 832 m 60 0 l 60 738 l 254 738 l 254 0 l 60 0 z "},"İ":{"ha":340,"x_min":83,"x_max":279,"o":"m 99 1139 l 99 1244 q 132 1279 99 1279 l 232 1279 q 256 1269 247 1279 q 264 1244 264 1260 l 264 1139 q 232 1107 264 1107 l 132 1107 q 108 1116 118 1107 q 99 1139 99 1125 m 85 0 l 85 1017 l 279 1017 l 279 0 l 85 0 z "},"ı":{"ha":319,"x_min":63,"x_max":258,"o":"m 64 0 l 64 738 l 258 738 l 258 0 l 64 0 z "},"Ĵ":{"ha":494,"x_min":36,"x_max":550,"o":"m 121 1107 l 271 1294 l 415 1294 l 550 1107 l 421 1107 l 339 1190 l 251 1107 l 121 1107 m 360 25 q 202 -7 307 -7 q 38 32 97 -7 l 40 183 q 112 179 88 179 q 147 181 136 179 q 239 314 238 183 l 239 1017 l 433 1017 l 433 229 q 430 156 433 186 q 409 85 426 125 q 360 25 392 46 z "},"ĵ":{"ha":336,"x_min":-43,"x_max":388,"o":"m -42 828 l 108 1035 l 251 1035 l 386 828 l 264 828 l 174 924 l 82 828 l -42 828 m 75 -375 l 75 738 l 272 738 l 272 -6 q 272 -28 272 -17 q 221 -375 272 -250 l 75 -375 z "},"Ķ":{"ha":872,"x_min":83,"x_max":838,"o":"m 351 -242 l 351 -133 q 382 -100 351 -100 l 488 -100 q 517 -133 517 -100 l 517 -287 q 501 -351 517 -326 q 461 -382 485 -375 q 409 -390 432 -390 q 374 -387 386 -390 l 357 -383 l 357 -322 q 383 -318 374 -324 q 396 -292 396 -310 l 396 -274 l 382 -274 q 351 -242 351 -274 m 85 0 l 85 1017 l 271 1017 l 271 592 l 353 592 l 611 1017 l 838 1017 l 526 507 l 838 0 l 611 0 l 353 419 l 272 419 l 272 0 l 85 0 z "},"ķ":{"ha":774,"x_min":63,"x_max":754,"o":"m 299 -242 l 299 -133 q 331 -100 299 -100 l 436 -100 q 465 -133 465 -100 l 465 -287 q 449 -351 465 -326 q 408 -382 432 -375 q 358 -390 381 -390 q 322 -387 335 -390 l 306 -383 l 306 -322 q 332 -318 322 -324 q 344 -292 344 -310 l 344 -274 l 331 -274 q 299 -242 299 -274 m 64 0 l 64 1086 l 258 1086 l 258 490 l 299 490 l 507 738 l 754 738 l 478 417 l 754 0 l 522 0 l 299 342 l 258 342 l 258 0 l 64 0 z "},"ĸ":{"ha":790,"x_min":63,"x_max":771,"o":"m 64 0 l 64 738 l 258 738 l 258 439 l 329 439 l 536 738 l 769 738 l 504 367 l 743 0 l 515 0 l 325 292 l 260 292 l 258 0 l 64 0 z "},"Ĺ":{"ha":749,"x_min":83,"x_max":714,"o":"m 118 1107 l 244 1300 l 414 1300 l 244 1107 l 118 1107 m 85 197 l 85 1017 l 279 1017 l 279 251 q 308 188 279 199 q 365 179 329 179 l 714 179 l 714 0 l 296 0 q 85 197 85 0 z "},"ĺ":{"ha":435,"x_min":63,"x_max":415,"o":"m 117 1171 l 243 1364 l 413 1364 l 243 1171 l 117 1171 m 64 263 l 64 1088 l 258 1088 l 258 293 q 274 190 258 219 q 322 149 289 161 q 415 119 406 119 l 415 0 l 254 0 q 112 60 160 0 q 64 263 64 121 z "},"Ļ":{"ha":749,"x_min":83,"x_max":714,"o":"m 325 -239 l 325 -129 q 357 -96 325 -96 l 461 -96 q 492 -129 492 -96 l 492 -283 q 475 -347 492 -322 q 435 -378 458 -371 q 383 -386 406 -386 q 347 -383 360 -386 l 332 -379 l 332 -319 q 358 -314 349 -319 q 369 -287 369 -306 l 369 -269 l 357 -269 q 325 -239 325 -269 m 85 197 l 85 1017 l 279 1017 l 279 251 q 308 188 279 199 q 365 179 329 179 l 714 179 l 714 0 l 296 0 q 85 197 85 0 z "},"ļ":{"ha":435,"x_min":63,"x_max":415,"o":"m 156 -239 l 156 -131 q 186 -97 156 -97 l 292 -97 q 321 -131 321 -97 l 321 -285 q 305 -347 321 -324 q 265 -378 289 -371 q 213 -386 236 -386 q 178 -383 190 -386 l 161 -381 l 161 -319 q 188 -314 179 -321 q 200 -287 200 -307 l 200 -271 l 186 -271 q 156 -239 156 -271 m 64 263 l 64 1088 l 258 1088 l 258 293 q 274 190 258 219 q 322 149 289 161 q 415 119 406 119 l 415 0 l 254 0 q 112 60 160 0 q 64 263 64 121 z "},"Ľ":{"ha":749,"x_min":83,"x_max":714,"o":"m 85 197 l 85 1017 l 279 1017 l 279 251 q 308 188 279 199 q 365 179 329 179 l 714 179 l 714 0 l 296 0 q 85 197 85 0 m 365 1072 l 499 1072 l 499 979 l 485 793 l 381 793 l 365 979 l 365 1072 z "},"ľ":{"ha":497,"x_min":63,"x_max":482,"o":"m 64 263 l 64 1088 l 258 1088 l 258 293 q 272 190 258 218 q 322 149 286 163 q 415 119 406 119 l 415 0 l 254 0 q 109 59 154 0 q 64 263 64 118 m 349 1086 l 482 1086 l 482 993 l 468 807 l 364 807 l 349 993 l 349 1086 z "},"Ł":{"ha":792,"x_min":19,"x_max":758,"o":"m 128 1017 l 322 1017 l 322 653 l 479 719 l 478 621 l 322 553 l 322 251 q 351 188 322 199 q 408 179 374 179 l 757 179 l 757 0 l 340 0 q 128 197 128 0 l 128 469 l 19 424 l 19 524 l 128 569 l 128 1017 z "},"ł":{"ha":496,"x_min":14,"x_max":475,"o":"m 119 1088 l 314 1088 l 314 714 l 474 783 l 474 683 l 314 614 l 314 293 q 329 190 314 219 q 378 149 344 161 q 471 119 461 119 l 471 0 l 310 0 q 167 60 215 0 q 119 263 119 121 l 119 532 l 15 486 l 15 586 l 119 631 l 119 1088 z "},"Ń":{"ha":942,"x_min":83,"x_max":881,"o":"m 425 1107 l 550 1300 l 721 1300 l 551 1107 l 425 1107 m 85 0 l 85 1017 l 282 1017 l 685 360 l 685 1017 l 879 1017 l 879 0 l 685 0 l 281 650 l 281 0 l 85 0 z "},"ń":{"ha":764,"x_min":63,"x_max":713,"o":"m 322 833 l 449 1025 l 618 1025 l 449 833 l 322 833 m 64 0 l 64 738 l 219 738 l 258 658 q 419 743 360 732 q 492 750 451 750 q 713 492 713 750 l 713 0 l 518 0 l 518 494 q 436 594 518 594 q 342 580 381 594 q 258 531 303 565 l 258 0 l 64 0 z "},"Ņ":{"ha":942,"x_min":83,"x_max":881,"o":"m 393 -242 l 393 -133 q 425 -100 393 -100 l 531 -100 q 560 -133 560 -100 l 560 -287 q 543 -351 560 -326 q 503 -382 526 -375 q 452 -390 475 -390 q 417 -387 429 -390 l 400 -383 l 400 -322 q 426 -318 417 -324 q 439 -292 439 -310 l 439 -274 l 425 -274 q 393 -242 393 -274 m 85 0 l 85 1017 l 282 1017 l 685 360 l 685 1017 l 879 1017 l 879 0 l 685 0 l 281 650 l 281 0 l 85 0 z "},"ņ":{"ha":764,"x_min":63,"x_max":713,"o":"m 300 -242 l 300 -133 q 332 -100 300 -100 l 436 -100 q 467 -133 467 -100 l 467 -287 q 450 -351 467 -326 q 410 -382 433 -375 q 358 -390 381 -390 q 324 -387 335 -390 l 307 -383 l 307 -322 q 333 -318 324 -324 q 346 -292 346 -310 l 346 -274 l 332 -274 q 300 -242 300 -274 m 64 0 l 64 738 l 219 738 l 258 658 q 419 743 360 732 q 492 750 451 750 q 713 492 713 750 l 713 0 l 518 0 l 518 494 q 436 594 518 594 q 342 580 381 594 q 258 531 303 565 l 258 0 l 64 0 z "},"Ň":{"ha":942,"x_min":83,"x_max":881,"o":"m 274 1294 l 404 1294 l 492 1211 l 572 1294 l 703 1294 l 561 1107 l 417 1107 l 274 1294 m 85 0 l 85 1017 l 282 1017 l 685 360 l 685 1017 l 879 1017 l 879 0 l 685 0 l 281 650 l 281 0 l 85 0 z "},"ň":{"ha":764,"x_min":63,"x_max":713,"o":"m 181 1022 l 310 1022 l 397 939 l 479 1022 l 608 1022 l 468 833 l 324 833 l 181 1022 m 64 0 l 64 738 l 219 738 l 258 658 q 419 743 360 732 q 492 750 451 750 q 713 492 713 750 l 713 0 l 518 0 l 518 494 q 436 594 518 594 q 342 580 381 594 q 258 531 303 565 l 258 0 l 64 0 z "},"Ŋ":{"ha":940,"x_min":83,"x_max":879,"o":"m 85 0 l 85 1017 l 282 1017 l 683 365 l 683 1017 l 878 1017 l 878 -101 q 802 -299 878 -242 q 628 -357 726 -357 q 587 -357 611 -357 q 528 -357 563 -357 l 528 -217 q 555 -212 533 -215 q 584 -209 576 -210 q 610 -203 592 -208 q 635 -194 628 -199 q 653 -179 642 -189 q 671 -158 665 -169 q 683 -89 683 -126 l 683 0 l 281 650 l 279 0 l 85 0 z "},"ŋ":{"ha":774,"x_min":63,"x_max":713,"o":"m 492 750 q 713 492 713 750 l 713 0 l 711 -94 q 658 -262 708 -201 q 549 -344 607 -322 q 439 -372 490 -365 l 389 -267 q 492 -201 469 -235 q 518 -100 517 -162 l 518 494 q 436 594 518 594 q 342 580 381 594 q 258 531 303 565 l 258 0 l 64 0 l 64 738 l 219 738 l 258 658 q 299 685 271 667 q 341 711 326 703 q 381 731 356 719 q 492 750 426 750 z "},"Ō":{"ha":932,"x_min":68,"x_max":886,"o":"m 275 1107 l 275 1217 l 681 1217 l 681 1107 l 275 1107 m 91 251 q 86 276 91 251 q 75 363 81 300 q 69 513 69 425 q 80 680 69 601 q 108 813 90 758 q 157 907 126 868 q 219 968 188 946 q 296 1003 250 990 q 448 1024 368 1024 q 565 1021 528 1024 q 642 1009 601 1018 q 713 983 683 1000 q 772 941 742 967 q 821 876 801 915 q 856 785 840 836 q 886 544 886 682 q 876 333 886 407 q 849 205 865 258 q 803 113 832 151 q 744 52 775 75 q 668 17 713 29 q 397 -3 565 -14 q 272 18 311 1 q 205 53 233 35 q 157 99 176 72 q 119 165 138 126 q 91 251 101 203 m 279 710 q 276 692 279 710 q 268 622 272 674 q 264 493 264 571 q 269 360 264 415 q 288 267 275 306 q 328 208 301 228 q 478 174 375 174 q 624 210 575 174 q 692 501 692 261 q 674 717 692 664 q 642 792 657 769 q 601 826 628 814 q 500 844 558 844 q 419 842 442 844 q 370 833 396 840 q 330 812 344 826 q 301 772 315 797 q 279 710 286 747 z "},"ō":{"ha":778,"x_min":51,"x_max":726,"o":"m 186 828 l 186 939 l 592 939 l 592 828 l 186 828 m 53 354 q 64 515 53 450 q 99 624 75 579 q 164 696 122 669 q 389 744 240 744 q 652 661 579 744 q 725 365 725 578 q 653 72 725 151 q 389 -7 582 -7 q 125 78 200 -7 q 53 354 53 160 m 276 550 q 267 538 276 550 q 253 481 258 525 q 247 363 247 438 q 254 246 247 288 q 280 183 261 204 q 322 156 299 161 q 386 150 346 150 q 447 153 426 150 q 485 167 467 156 q 513 201 504 178 q 531 331 531 251 q 528 447 531 411 q 519 510 526 483 q 503 551 513 536 q 478 575 494 565 q 396 589 450 589 q 317 582 342 589 q 276 550 293 575 z "},"Ő":{"ha":932,"x_min":68,"x_max":886,"o":"m 307 1107 l 432 1300 l 603 1300 l 433 1107 l 307 1107 m 522 1107 l 649 1300 l 819 1300 l 650 1107 l 522 1107 m 91 251 q 86 276 91 251 q 75 363 81 300 q 69 513 69 425 q 80 680 69 601 q 108 813 90 758 q 157 907 126 868 q 219 968 188 946 q 296 1003 250 990 q 448 1024 368 1024 q 565 1021 528 1024 q 642 1009 601 1018 q 713 983 683 1000 q 772 941 742 967 q 821 876 801 915 q 856 785 840 836 q 886 544 886 682 q 876 333 886 407 q 849 205 865 258 q 803 113 832 151 q 744 52 775 75 q 668 17 713 29 q 397 -3 565 -14 q 272 18 311 1 q 205 53 233 35 q 157 99 176 72 q 119 165 138 126 q 91 251 101 203 m 279 710 q 276 692 279 710 q 268 622 272 674 q 264 493 264 571 q 269 360 264 415 q 288 267 275 306 q 328 208 301 228 q 478 174 375 174 q 624 210 575 174 q 692 501 692 261 q 674 717 692 664 q 642 792 657 769 q 601 826 628 814 q 500 844 558 844 q 419 842 442 844 q 370 833 396 840 q 330 812 344 826 q 301 772 315 797 q 279 710 286 747 z "},"ő":{"ha":778,"x_min":51,"x_max":731,"o":"m 218 828 l 343 1019 l 514 1019 l 344 828 l 218 828 m 435 828 l 560 1019 l 731 1019 l 561 828 l 435 828 m 53 354 q 64 515 53 450 q 99 624 75 579 q 164 696 122 669 q 389 744 240 744 q 652 661 579 744 q 725 365 725 578 q 653 72 725 151 q 389 -7 582 -7 q 125 78 200 -7 q 53 354 53 160 m 276 550 q 267 538 276 550 q 253 481 258 525 q 247 363 247 438 q 254 246 247 288 q 280 183 261 204 q 322 156 299 161 q 386 150 346 150 q 447 153 426 150 q 485 167 467 156 q 513 201 504 178 q 531 331 531 251 q 528 447 531 411 q 519 510 526 483 q 503 551 513 536 q 478 575 494 565 q 396 589 450 589 q 317 582 342 589 q 276 550 293 575 z "},"Œ":{"ha":1400,"x_min":68,"x_max":1344,"o":"m 279 710 q 276 692 279 710 q 268 622 272 674 q 264 493 264 571 q 269 360 264 415 q 288 267 275 306 q 328 208 301 228 q 469 174 375 174 q 606 199 563 174 q 670 294 650 224 q 690 472 690 364 q 685 637 690 581 q 669 731 681 693 q 642 792 657 769 q 600 826 628 814 q 499 844 558 844 q 417 842 440 844 q 369 833 394 840 q 330 812 344 826 q 301 772 315 797 q 279 710 286 747 m 91 251 q 86 276 91 251 q 75 363 81 300 q 69 513 69 425 q 80 680 69 601 q 108 813 90 758 q 156 907 126 868 q 218 968 186 946 q 294 1003 250 990 q 453 1024 367 1024 q 582 1019 539 1024 q 747 954 686 1008 q 894 1017 796 1017 q 1078 1012 903 1017 q 1344 994 1254 1007 l 1344 833 l 957 833 q 893 808 906 833 q 885 756 885 789 l 885 597 l 1281 583 l 1281 422 l 885 410 l 885 251 q 914 188 885 199 q 971 179 936 179 l 1344 179 l 1344 19 q 1013 0 1274 10 l 925 -4 q 901 -4 913 -4 q 742 58 790 -4 q 631 8 694 22 q 500 -6 568 -6 q 397 -3 432 -6 q 325 5 363 -1 q 260 23 288 11 q 204 53 232 35 q 157 99 176 72 q 119 165 138 126 q 91 251 101 203 z "},"œ":{"ha":1206,"x_min":51,"x_max":1165,"o":"m 125 78 q 69 190 86 122 q 53 365 53 257 q 69 546 53 472 q 128 664 86 619 q 231 726 169 708 q 389 744 293 744 q 621 682 550 744 q 710 730 656 717 q 838 743 764 743 q 950 740 911 743 q 1028 728 989 738 q 1089 700 1067 718 q 1131 653 1111 682 q 1164 474 1164 599 q 1072 308 1164 347 q 958 289 1026 289 l 725 289 q 725 263 725 285 q 733 213 725 240 q 763 172 740 186 q 881 149 797 149 q 1151 163 1051 149 l 1151 32 q 990 0 1076 4 q 772 -7 878 -7 q 615 50 665 -7 q 389 -7 546 -7 q 125 78 200 -7 m 276 550 q 267 538 276 550 q 253 481 258 525 q 247 363 247 438 q 254 246 247 288 q 280 183 261 204 q 322 155 299 161 q 385 149 346 149 q 445 152 424 149 q 483 166 467 156 q 508 190 500 176 q 522 232 517 204 q 531 358 531 274 q 525 483 531 443 q 503 547 519 522 q 462 580 488 572 q 389 588 436 588 q 317 581 342 588 q 276 550 293 575 m 969 485 q 951 574 969 554 q 876 594 933 594 q 797 590 819 594 q 754 569 774 586 q 730 524 735 553 q 725 469 725 494 q 725 429 725 443 l 908 429 q 969 485 969 429 z "},"Ŕ":{"ha":843,"x_min":71,"x_max":824,"o":"m 360 1104 l 485 1296 l 656 1296 l 486 1104 l 360 1104 m 71 0 l 71 1017 l 515 1017 q 772 851 718 1017 q 793 717 793 788 q 786 605 793 647 q 771 534 779 563 q 747 482 763 506 q 719 447 731 458 q 688 424 707 435 q 631 400 664 411 l 824 0 l 604 0 l 436 385 l 265 404 l 265 0 l 71 0 m 267 557 l 497 557 q 574 585 551 557 q 597 697 597 613 q 572 813 597 782 q 497 844 547 844 l 267 844 l 267 557 z "},"ŕ":{"ha":579,"x_min":63,"x_max":553,"o":"m 257 829 l 382 1021 l 553 1021 l 383 829 l 257 829 m 64 0 l 64 738 l 228 738 l 258 644 q 469 744 363 744 q 551 736 529 744 l 551 549 q 446 553 513 553 q 335 535 379 553 q 258 471 292 518 l 258 0 l 64 0 z "},"Ŗ":{"ha":843,"x_min":71,"x_max":824,"o":"m 332 -237 l 332 -128 q 363 -94 332 -94 l 468 -94 q 499 -128 499 -94 l 499 -282 q 482 -345 499 -321 q 442 -376 465 -369 q 390 -385 413 -385 q 354 -382 367 -385 l 338 -378 l 338 -318 q 365 -312 356 -318 q 376 -286 376 -304 l 376 -268 l 363 -268 q 332 -237 332 -268 m 71 0 l 71 1017 l 515 1017 q 772 851 718 1017 q 793 717 793 788 q 786 605 793 647 q 771 534 779 563 q 747 482 763 506 q 719 447 731 458 q 688 424 707 435 q 631 400 664 411 l 824 0 l 604 0 l 436 385 l 265 404 l 265 0 l 71 0 m 267 557 l 497 557 q 574 585 551 557 q 597 697 597 613 q 572 813 597 782 q 497 844 547 844 l 267 844 l 267 557 z "},"ŗ":{"ha":579,"x_min":57,"x_max":546,"o":"m 67 -242 l 67 -133 q 97 -100 67 -100 l 203 -100 q 233 -133 233 -100 l 233 -287 q 217 -351 233 -326 q 176 -382 200 -375 q 124 -390 147 -390 q 89 -387 101 -390 l 72 -383 l 72 -322 q 100 -318 90 -324 q 111 -292 111 -310 l 111 -274 l 97 -274 q 67 -242 67 -274 m 57 0 l 57 738 l 221 738 l 251 644 q 464 744 356 744 q 546 736 522 744 l 546 549 q 439 553 506 553 q 329 535 372 553 q 251 471 286 518 l 251 0 l 57 0 z "},"Ř":{"ha":843,"x_min":71,"x_max":824,"o":"m 210 1294 l 339 1294 l 426 1211 l 508 1294 l 638 1294 l 497 1107 l 353 1107 l 210 1294 m 71 0 l 71 1017 l 515 1017 q 772 851 718 1017 q 793 717 793 788 q 786 605 793 647 q 771 534 779 563 q 747 482 763 506 q 719 447 731 458 q 688 424 707 435 q 631 400 664 411 l 824 0 l 604 0 l 436 385 l 265 404 l 265 0 l 71 0 m 267 557 l 497 557 q 574 585 551 557 q 597 697 597 613 q 572 813 597 782 q 497 844 547 844 l 267 844 l 267 557 z "},"ř":{"ha":579,"x_min":63,"x_max":553,"o":"m 93 1017 l 224 1017 l 311 933 l 392 1017 l 522 1017 l 381 828 l 236 828 l 93 1017 m 64 0 l 64 738 l 228 738 l 258 644 q 469 744 363 744 q 551 736 529 744 l 551 549 q 446 553 513 553 q 335 535 379 553 q 258 471 292 518 l 258 0 l 64 0 z "},"Ś":{"ha":819,"x_min":68,"x_max":775,"o":"m 363 1108 l 489 1301 l 658 1301 l 489 1108 l 363 1108 m 69 675 l 69 763 q 149 969 69 908 q 344 1025 221 1024 q 415 1025 361 1025 q 572 1014 468 1025 q 738 985 675 1003 l 738 832 q 485 846 579 846 q 385 846 392 846 q 293 829 322 846 q 264 747 264 813 l 264 697 q 288 619 264 639 q 372 600 311 600 l 533 600 q 746 474 692 600 q 774 331 774 410 l 774 263 q 650 19 774 76 q 493 -11 586 -11 q 100 31 242 -11 l 100 183 q 364 168 253 168 q 490 169 475 168 q 523 176 506 171 q 553 192 540 182 q 579 256 579 213 l 579 310 q 560 382 579 358 q 488 406 540 406 l 332 406 q 69 675 69 406 z "},"ś":{"ha":706,"x_min":42,"x_max":665,"o":"m 293 831 l 418 1024 l 589 1024 l 419 831 l 293 831 m 42 482 l 42 546 q 233 744 42 744 q 628 707 563 744 l 628 585 l 293 585 q 247 574 258 585 q 236 533 236 563 l 236 500 q 244 467 236 478 q 263 455 253 457 q 293 453 274 453 l 468 453 q 616 401 568 453 q 664 261 664 349 l 664 186 q 613 38 664 82 q 483 -7 561 -7 q 72 33 133 -7 l 72 154 l 421 154 q 469 201 469 154 l 469 236 q 455 276 469 268 q 421 283 440 283 l 249 283 q 42 482 42 283 z "},"Ŝ":{"ha":819,"x_min":68,"x_max":775,"o":"m 215 1108 l 365 1297 l 510 1297 l 644 1108 l 515 1108 l 433 1192 l 346 1108 l 215 1108 m 69 675 l 69 763 q 149 969 69 908 q 344 1025 221 1024 q 415 1025 361 1025 q 572 1014 468 1025 q 738 985 675 1003 l 738 832 q 485 846 579 846 q 385 846 392 846 q 293 829 322 846 q 264 747 264 813 l 264 697 q 288 619 264 639 q 372 600 311 600 l 533 600 q 746 474 692 600 q 774 331 774 410 l 774 263 q 650 19 774 76 q 493 -11 586 -11 q 100 31 242 -11 l 100 183 q 364 168 253 168 q 490 169 475 168 q 523 176 506 171 q 553 192 540 182 q 579 256 579 213 l 579 310 q 560 382 579 358 q 488 406 540 406 l 332 406 q 69 675 69 406 z "},"ŝ":{"ha":706,"x_min":42,"x_max":665,"o":"m 140 828 l 290 1017 l 435 1017 l 568 828 l 439 828 l 358 911 l 271 828 l 140 828 m 42 482 l 42 546 q 233 744 42 744 q 628 707 563 744 l 628 585 l 293 585 q 247 574 258 585 q 236 533 236 563 l 236 500 q 244 467 236 478 q 263 455 253 457 q 293 453 274 453 l 468 453 q 616 401 568 453 q 664 261 664 349 l 664 186 q 613 38 664 82 q 483 -7 561 -7 q 72 33 133 -7 l 72 154 l 421 154 q 469 201 469 154 l 469 236 q 455 276 469 268 q 421 283 440 283 l 249 283 q 42 482 42 283 z "},"Ş":{"ha":819,"x_min":68,"x_max":775,"o":"m 375 -61 l 506 -61 q 472 -213 506 -169 q 350 -257 439 -257 l 272 -257 l 272 -174 l 333 -153 q 368 -123 361 -142 q 375 -61 375 -104 m 69 675 l 69 763 q 149 969 69 908 q 344 1025 221 1024 q 415 1025 361 1025 q 572 1014 468 1025 q 738 985 675 1003 l 738 832 q 485 846 579 846 q 385 846 392 846 q 293 829 322 846 q 264 747 264 813 l 264 697 q 288 619 264 639 q 372 600 311 600 l 533 600 q 746 474 692 600 q 774 331 774 410 l 774 263 q 650 19 774 76 q 493 -11 586 -11 q 100 31 242 -11 l 100 183 q 364 168 253 168 q 490 169 475 168 q 523 176 506 171 q 553 192 540 182 q 579 256 579 213 l 579 310 q 560 382 579 358 q 488 406 540 406 l 332 406 q 69 675 69 406 z "},"ş":{"ha":706,"x_min":42,"x_max":665,"o":"m 217 -53 l 349 -53 q 315 -205 349 -161 q 193 -249 282 -249 l 114 -249 l 114 -165 l 176 -144 q 210 -115 203 -133 q 217 -53 217 -96 m 42 482 l 42 546 q 233 744 42 744 q 628 707 563 744 l 628 585 l 293 585 q 247 574 258 585 q 236 533 236 563 l 236 500 q 244 467 236 478 q 263 455 253 457 q 293 453 274 453 l 468 453 q 616 401 568 453 q 664 261 664 349 l 664 186 q 613 38 664 82 q 483 -7 561 -7 q 72 33 133 -7 l 72 154 l 421 154 q 469 201 469 154 l 469 236 q 455 276 469 268 q 421 283 440 283 l 249 283 q 42 482 42 283 z "},"Š":{"ha":819,"x_min":68,"x_max":775,"o":"m 215 1297 l 346 1297 l 433 1214 l 514 1297 l 644 1297 l 503 1108 l 358 1108 l 215 1297 m 69 675 l 69 763 q 149 969 69 908 q 344 1025 221 1024 q 415 1025 361 1025 q 572 1014 468 1025 q 738 985 675 1003 l 738 832 q 485 846 579 846 q 385 846 392 846 q 293 829 322 846 q 264 747 264 813 l 264 697 q 288 619 264 639 q 372 600 311 600 l 533 600 q 746 474 692 600 q 774 331 774 410 l 774 263 q 650 19 774 76 q 493 -11 586 -11 q 100 31 242 -11 l 100 183 q 364 168 253 168 q 490 169 475 168 q 523 176 506 171 q 553 192 540 182 q 579 256 579 213 l 579 310 q 560 382 579 358 q 488 406 540 406 l 332 406 q 69 675 69 406 z "},"š":{"ha":706,"x_min":42,"x_max":665,"o":"m 147 1019 l 276 1019 l 364 936 l 446 1019 l 575 1019 l 433 831 l 289 831 l 147 1019 m 42 482 l 42 546 q 233 744 42 744 q 628 707 563 744 l 628 585 l 293 585 q 247 574 258 585 q 236 533 236 563 l 236 500 q 244 467 236 478 q 263 455 253 457 q 293 453 274 453 l 468 453 q 616 401 568 453 q 664 261 664 349 l 664 186 q 613 38 664 82 q 483 -7 561 -7 q 72 33 133 -7 l 72 154 l 421 154 q 469 201 469 154 l 469 236 q 455 276 469 268 q 421 283 440 283 l 249 283 q 42 482 42 283 z "},"Ţ":{"ha":824,"x_min":43,"x_max":796,"o":"m 235 -58 l 365 -58 q 332 -211 365 -167 q 210 -256 299 -256 l 132 -256 l 132 -172 l 193 -151 q 227 -121 219 -139 q 235 -58 235 -103 m 43 838 l 43 1017 l 794 1017 l 794 838 l 513 838 l 513 0 l 318 0 l 318 838 l 43 838 z "},"ţ":{"ha":529,"x_min":21,"x_max":500,"o":"m 182 -60 l 313 -60 q 279 -212 313 -168 q 157 -257 246 -257 l 79 -257 l 79 -174 l 140 -153 q 175 -122 168 -140 q 182 -60 182 -104 m 21 590 l 21 699 l 140 739 l 172 944 l 335 944 l 335 739 l 500 739 l 500 590 l 335 590 l 335 294 q 350 190 335 219 q 397 149 365 161 q 490 119 481 119 l 490 0 l 321 0 q 140 264 140 0 l 140 590 l 21 590 z "},"Ť":{"ha":824,"x_min":43,"x_max":796,"o":"m 199 1294 l 328 1294 l 415 1211 l 497 1294 l 628 1294 l 486 1107 l 342 1107 l 199 1294 m 43 838 l 43 1017 l 794 1017 l 794 838 l 513 838 l 513 0 l 318 0 l 318 838 l 43 838 z "},"ť":{"ha":574,"x_min":21,"x_max":543,"o":"m 21 590 l 21 699 l 140 739 l 172 944 l 335 944 l 335 739 l 500 739 l 500 590 l 335 590 l 335 294 q 350 190 335 219 q 397 149 365 161 q 490 119 481 119 l 490 0 l 321 0 q 140 264 140 0 l 140 590 l 21 590 m 543 1113 l 543 1019 l 528 833 l 425 833 l 410 1019 l 408 1113 l 543 1113 z "},"Ŧ":{"ha":811,"x_min":29,"x_max":782,"o":"m 31 838 l 31 1017 l 782 1017 l 782 838 l 499 838 l 499 601 l 635 601 l 635 511 l 499 511 l 499 0 l 304 0 l 304 511 l 168 511 l 168 601 l 304 601 l 304 838 l 31 838 z "},"ŧ":{"ha":519,"x_min":21,"x_max":500,"o":"m 21 590 l 21 699 l 140 739 l 172 944 l 335 944 l 335 739 l 500 739 l 500 590 l 335 590 l 335 447 l 449 447 l 449 357 l 335 357 l 335 294 q 361 168 335 192 q 426 139 374 157 q 485 121 479 121 l 485 0 l 322 0 q 185 60 229 0 q 140 264 140 121 l 140 357 l 42 357 l 42 447 l 140 447 l 140 590 l 21 590 z "},"Ũ":{"ha":922,"x_min":83,"x_max":861,"o":"m 554 1228 q 678 1282 608 1228 l 711 1199 q 556 1104 624 1104 q 472 1128 519 1104 q 404 1153 424 1153 q 372 1151 385 1153 q 350 1147 358 1149 q 328 1138 342 1144 q 310 1129 315 1132 q 288 1117 304 1126 q 268 1104 272 1107 l 233 1181 q 401 1278 322 1278 q 482 1253 436 1276 q 540 1228 528 1229 q 554 1228 551 1228 m 476 -7 l 457 -7 q 235 28 290 -7 q 176 77 210 44 q 126 157 143 110 q 85 444 85 274 l 85 1017 l 279 1017 l 279 444 q 306 249 279 311 q 399 178 329 193 q 487 172 429 172 q 583 193 544 172 q 665 444 665 238 l 665 1017 l 861 1017 l 861 444 q 797 128 861 226 q 756 72 776 93 q 705 34 736 50 q 651 10 674 18 q 592 -1 629 3 q 476 -7 544 -7 z "},"ũ":{"ha":764,"x_min":51,"x_max":701,"o":"m 458 953 q 582 1006 513 953 l 615 922 q 460 828 529 828 q 376 852 425 828 q 308 876 328 876 q 276 874 289 876 q 254 870 263 872 q 233 862 246 868 q 215 853 219 856 q 194 840 210 850 q 172 828 178 831 l 139 904 q 306 1001 226 1001 q 386 976 340 1000 q 444 953 432 953 q 458 953 457 953 m 53 247 l 53 738 l 247 738 l 247 243 q 329 144 247 144 q 423 158 385 144 q 507 208 461 172 l 507 738 l 701 738 l 701 0 l 544 0 l 507 78 q 472 57 494 71 q 438 35 450 43 q 405 17 425 28 q 367 1 385 7 q 272 -12 324 -12 q 53 247 53 -12 z "},"Ū":{"ha":922,"x_min":83,"x_max":861,"o":"m 269 1107 l 269 1217 l 675 1217 l 675 1107 l 269 1107 m 476 -7 l 457 -7 q 235 28 290 -7 q 176 77 210 44 q 126 157 143 110 q 85 444 85 274 l 85 1017 l 279 1017 l 279 444 q 306 249 279 311 q 399 178 329 193 q 487 172 429 172 q 583 193 544 172 q 665 444 665 238 l 665 1017 l 861 1017 l 861 444 q 797 128 861 226 q 756 72 776 93 q 705 34 736 50 q 651 10 674 18 q 592 -1 629 3 q 476 -7 544 -7 z "},"ū":{"ha":764,"x_min":51,"x_max":701,"o":"m 174 828 l 174 939 l 579 939 l 579 828 l 174 828 m 53 247 l 53 738 l 247 738 l 247 243 q 329 144 247 144 q 423 158 385 144 q 507 208 461 172 l 507 738 l 701 738 l 701 0 l 544 0 l 507 78 q 472 57 494 71 q 438 35 450 43 q 405 17 425 28 q 367 1 385 7 q 272 -12 324 -12 q 53 247 53 -12 z "},"Ŭ":{"ha":922,"x_min":83,"x_max":861,"o":"m 313 1265 l 393 1265 q 415 1209 393 1231 q 474 1188 438 1188 q 531 1208 510 1188 q 551 1265 551 1229 l 632 1265 q 586 1150 632 1193 q 472 1107 540 1107 q 358 1151 404 1107 q 313 1265 313 1194 m 476 -7 l 457 -7 q 235 28 290 -7 q 176 77 210 44 q 126 157 143 110 q 85 444 85 274 l 85 1017 l 279 1017 l 279 444 q 306 249 279 311 q 399 178 329 193 q 487 172 429 172 q 583 193 544 172 q 665 444 665 238 l 665 1017 l 861 1017 l 861 444 q 797 128 861 226 q 756 72 776 93 q 705 34 736 50 q 651 10 674 18 q 592 -1 629 3 q 476 -7 544 -7 z "},"ŭ":{"ha":764,"x_min":51,"x_max":701,"o":"m 222 986 l 303 986 q 324 930 303 951 q 383 908 346 908 q 440 929 419 908 q 461 986 461 950 l 542 986 q 496 871 542 914 q 382 828 450 828 q 268 872 314 828 q 222 986 222 915 m 53 247 l 53 738 l 247 738 l 247 243 q 329 144 247 144 q 423 158 385 144 q 507 208 461 172 l 507 738 l 701 738 l 701 0 l 544 0 l 507 78 q 472 57 494 71 q 438 35 450 43 q 405 17 425 28 q 367 1 385 7 q 272 -12 324 -12 q 53 247 53 -12 z "},"Ů":{"ha":922,"x_min":83,"x_max":861,"o":"m 351 1177 q 341 1193 351 1177 q 332 1249 332 1210 q 351 1320 332 1288 q 402 1372 369 1353 q 483 1392 435 1392 q 573 1350 532 1392 q 614 1249 614 1308 q 573 1148 614 1189 q 483 1107 532 1107 q 402 1126 435 1107 q 351 1177 369 1144 m 474 1308 q 461 1308 474 1308 q 431 1291 449 1308 q 413 1255 413 1274 q 417 1225 413 1236 q 431 1207 422 1214 q 474 1190 449 1190 q 515 1207 499 1190 q 532 1249 532 1224 q 515 1291 532 1274 q 474 1308 499 1308 m 476 -7 l 457 -7 q 235 28 290 -7 q 176 77 210 44 q 126 157 143 110 q 85 444 85 274 l 85 1017 l 279 1017 l 279 444 q 306 249 279 311 q 399 178 329 193 q 487 172 429 172 q 583 193 544 172 q 665 444 665 238 l 665 1017 l 861 1017 l 861 444 q 797 128 861 226 q 756 72 776 93 q 705 34 736 50 q 651 10 674 18 q 592 -1 629 3 q 476 -7 544 -7 z "},"ů":{"ha":764,"x_min":51,"x_max":701,"o":"m 255 898 q 245 914 255 898 q 236 969 236 931 q 255 1041 236 1008 q 306 1093 274 1074 q 377 1113 339 1113 q 448 1093 415 1113 q 499 1041 481 1074 q 518 969 518 1008 q 499 898 518 931 q 448 847 481 865 q 377 828 415 828 q 306 847 339 828 q 255 898 274 865 m 335 1012 q 326 1003 335 1012 q 317 969 317 994 q 335 928 317 944 q 378 911 353 911 q 419 928 403 911 q 436 965 436 944 q 429 1000 436 986 q 383 1029 413 1029 q 335 1012 353 1029 m 53 247 l 53 738 l 247 738 l 247 243 q 329 144 247 144 q 423 158 385 144 q 507 208 461 172 l 507 738 l 701 738 l 701 0 l 544 0 l 507 78 q 472 57 494 71 q 438 35 450 43 q 405 17 425 28 q 367 1 385 7 q 272 -12 324 -12 q 53 247 53 -12 z "},"Ű":{"ha":922,"x_min":83,"x_max":861,"o":"m 301 1107 l 426 1300 l 597 1300 l 428 1107 l 301 1107 m 518 1107 l 643 1300 l 814 1300 l 644 1107 l 518 1107 m 476 -7 l 457 -7 q 235 28 290 -7 q 176 77 210 44 q 126 157 143 110 q 85 444 85 274 l 85 1017 l 279 1017 l 279 444 q 306 249 279 311 q 399 178 329 193 q 487 172 429 172 q 583 193 544 172 q 665 444 665 238 l 665 1017 l 861 1017 l 861 444 q 797 128 861 226 q 756 72 776 93 q 705 34 736 50 q 651 10 674 18 q 592 -1 629 3 q 476 -7 544 -7 z "},"ű":{"ha":764,"x_min":51,"x_max":718,"o":"m 206 828 l 331 1019 l 501 1019 l 332 828 l 206 828 m 422 828 l 547 1019 l 718 1019 l 549 828 l 422 828 m 53 247 l 53 738 l 247 738 l 247 243 q 329 144 247 144 q 423 158 385 144 q 507 208 461 172 l 507 738 l 701 738 l 701 0 l 544 0 l 507 78 q 472 57 494 71 q 438 35 450 43 q 405 17 425 28 q 367 1 385 7 q 272 -12 324 -12 q 53 247 53 -12 z "},"Ų":{"ha":922,"x_min":83,"x_max":861,"o":"m 525 -261 q 485 -267 507 -267 q 431 -256 464 -267 q 374 -214 397 -244 q 338 -135 338 -171 q 436 -3 338 -53 l 513 -3 q 456 -126 421 -71 q 525 -156 475 -157 l 525 -261 m 476 -7 l 457 -7 q 235 28 290 -7 q 176 77 210 44 q 126 157 143 110 q 85 444 85 274 l 85 1017 l 279 1017 l 279 444 q 306 249 279 311 q 399 178 329 193 q 487 172 429 172 q 583 193 544 172 q 665 444 665 238 l 665 1017 l 861 1017 l 861 444 q 797 128 861 226 q 756 72 776 93 q 705 34 736 50 q 651 10 674 18 q 592 -1 629 3 q 476 -7 544 -7 z "},"ų":{"ha":764,"x_min":51,"x_max":701,"o":"m 676 -261 q 637 -265 658 -265 q 582 -255 615 -265 q 525 -214 549 -244 q 489 -135 489 -169 q 588 -1 489 -51 l 664 -1 q 607 -126 572 -71 q 676 -154 626 -157 l 676 -261 m 53 247 l 53 738 l 247 738 l 247 243 q 329 144 247 144 q 423 158 385 144 q 507 208 461 172 l 507 738 l 701 738 l 701 0 l 544 0 l 507 78 q 472 57 494 71 q 438 35 450 43 q 405 17 425 28 q 367 1 385 7 q 272 -12 324 -12 q 53 247 53 -12 z "},"Ŵ":{"ha":1378,"x_min":47,"x_max":1354,"o":"m 499 1104 l 647 1292 l 792 1292 l 926 1104 l 797 1104 l 715 1188 l 629 1104 l 499 1104 m 47 1017 l 254 1017 l 479 263 l 663 1017 l 871 1017 l 800 754 l 961 258 l 1147 1017 l 1353 1017 l 1074 0 l 849 0 l 711 417 l 592 0 l 367 0 l 47 1017 z "},"ŵ":{"ha":1147,"x_min":21,"x_max":1128,"o":"m 371 825 l 521 1013 l 665 1013 l 800 825 l 671 825 l 589 908 l 501 825 l 371 825 m 21 738 l 229 738 l 376 228 l 508 738 l 703 738 l 651 539 l 774 228 l 919 738 l 1128 738 l 889 0 l 672 0 l 561 267 l 478 0 l 257 0 l 21 738 z "},"Ŷ":{"ha":911,"x_min":47,"x_max":886,"o":"m 246 1104 l 396 1292 l 540 1292 l 675 1104 l 546 1104 l 464 1188 l 376 1104 l 246 1104 m 551 0 l 357 0 l 357 315 l 47 1017 l 258 1017 l 457 529 l 675 1017 l 886 1017 l 551 315 l 551 0 z "},"ŷ":{"ha":803,"x_min":22,"x_max":779,"o":"m 186 828 l 336 1017 l 481 1017 l 615 828 l 486 828 l 404 911 l 317 828 l 186 828 m 22 738 l 226 738 l 354 221 q 371 188 361 196 q 386 176 381 179 q 399 170 392 172 q 411 168 407 168 q 422 167 415 168 q 428 167 428 167 l 575 738 l 778 738 l 522 -233 l 421 -375 l 282 -375 l 386 0 q 167 188 217 0 l 22 738 z "},"Ÿ":{"ha":911,"x_min":47,"x_max":886,"o":"m 290 1107 q 274 1107 290 1107 q 233 1131 257 1107 q 208 1183 208 1156 q 219 1231 208 1211 q 283 1269 243 1269 q 347 1247 324 1269 q 371 1190 371 1224 q 347 1131 371 1156 q 290 1107 324 1107 m 587 1131 q 575 1143 587 1131 q 563 1189 563 1156 q 587 1246 563 1222 q 644 1269 611 1269 q 701 1247 678 1269 q 725 1190 725 1224 q 701 1131 725 1156 q 644 1107 678 1107 q 587 1131 611 1107 m 551 0 l 357 0 l 357 315 l 47 1017 l 258 1017 l 457 529 l 675 1017 l 886 1017 l 551 315 l 551 0 z "},"Ź":{"ha":772,"x_min":36,"x_max":738,"o":"m 324 1107 l 450 1300 l 619 1300 l 450 1107 l 324 1107 m 38 0 l 38 179 l 503 838 l 38 838 l 38 1017 l 738 1017 l 738 838 l 294 179 l 738 179 l 738 0 l 38 0 z "},"ź":{"ha":658,"x_min":31,"x_max":628,"o":"m 267 828 l 392 1019 l 563 1019 l 393 828 l 267 828 m 32 574 l 32 738 l 628 738 l 628 574 l 311 165 l 628 165 l 628 1 l 53 1 l 53 164 l 383 574 l 32 574 z "},"Ż":{"ha":772,"x_min":36,"x_max":738,"o":"m 304 1139 l 304 1244 q 338 1279 304 1279 l 438 1279 q 461 1269 453 1279 q 469 1244 469 1260 l 469 1139 q 438 1107 469 1107 l 338 1107 q 314 1116 324 1107 q 304 1139 304 1125 m 38 0 l 38 179 l 503 838 l 38 838 l 38 1017 l 738 1017 l 738 838 l 294 179 l 738 179 l 738 0 l 38 0 z "},"ż":{"ha":658,"x_min":31,"x_max":628,"o":"m 247 860 l 247 965 q 281 1000 247 1000 l 381 1000 q 404 990 396 1000 q 413 965 413 981 l 413 860 q 381 828 413 828 l 281 828 q 256 837 265 828 q 247 860 247 846 m 32 574 l 32 738 l 628 738 l 628 574 l 311 165 l 628 165 l 628 1 l 53 1 l 53 164 l 383 574 l 32 574 z "},"Ž":{"ha":772,"x_min":36,"x_max":738,"o":"m 172 1294 l 303 1294 l 390 1211 l 471 1294 l 601 1294 l 460 1107 l 315 1107 l 172 1294 m 38 0 l 38 179 l 503 838 l 38 838 l 38 1017 l 738 1017 l 738 838 l 294 179 l 738 179 l 738 0 l 38 0 z "},"ž":{"ha":658,"x_min":31,"x_max":628,"o":"m 115 1017 l 246 1017 l 333 933 l 414 1017 l 544 1017 l 403 828 l 258 828 l 115 1017 m 32 574 l 32 738 l 628 738 l 628 574 l 311 165 l 628 165 l 628 1 l 53 1 l 53 164 l 383 574 l 32 574 z "},"ƒ":{"ha":824,"x_min":21,"x_max":804,"o":"m 126 -128 q 256 51 221 -128 q 268 122 261 81 l 331 521 l 210 521 l 235 669 l 354 669 l 360 703 q 640 1111 425 1111 q 790 1082 728 1111 q 803 1076 801 1076 l 785 956 l 701 956 q 589 846 624 956 q 556 703 571 793 l 551 669 l 711 669 l 688 521 l 526 521 l 464 122 q 297 -256 417 -183 q 199 -283 250 -283 q 113 -278 149 -283 q 21 -249 44 -267 l 40 -128 l 126 -128 z "},"ˆ":{"ha":533,"x_min":51,"x_max":482,"o":"m 53 738 l 203 925 l 347 925 l 481 738 l 351 738 l 269 821 l 183 738 l 53 738 z "},"ˇ":{"ha":533,"x_min":51,"x_max":482,"o":"m 53 925 l 182 925 l 269 842 l 351 925 l 481 925 l 340 738 l 196 738 l 53 925 z "},"˘":{"ha":422,"x_min":51,"x_max":372,"o":"m 53 894 l 133 894 q 155 838 133 860 q 213 817 176 817 q 271 838 250 817 q 292 894 292 858 l 372 894 q 326 779 372 822 q 212 736 279 736 q 99 780 144 736 q 53 894 53 824 z "},"˙":{"ha":269,"x_min":51,"x_max":218,"o":"m 53 757 l 53 863 q 86 897 53 897 l 186 897 q 210 888 201 897 q 218 863 218 878 l 218 757 q 186 725 218 725 l 86 725 q 62 734 71 725 q 53 757 53 743 z "},"˚":{"ha":386,"x_min":51,"x_max":335,"o":"m 72 806 q 62 823 72 806 q 53 878 53 839 q 72 949 53 917 q 123 1001 90 982 q 194 1021 156 1021 q 265 1001 232 1021 q 316 949 297 982 q 335 878 335 917 q 316 806 335 839 q 265 755 297 774 q 194 736 232 736 q 123 755 156 736 q 72 806 90 774 m 194 938 q 182 938 194 938 q 151 920 169 938 q 133 882 133 903 q 142 847 133 861 q 190 819 160 819 q 236 836 219 819 q 253 878 253 853 q 236 920 253 903 q 194 938 219 938 z "},"˛":{"ha":290,"x_min":50,"x_max":239,"o":"m 239 -258 q 199 -264 219 -264 q 144 -253 178 -264 q 86 -211 111 -242 q 51 -133 51 -168 q 150 0 51 -50 l 226 0 q 169 -124 135 -69 q 239 -153 189 -156 l 239 -258 z "},"˜":{"ha":582,"x_min":51,"x_max":531,"o":"m 374 863 q 496 915 426 863 l 529 832 q 374 738 443 738 q 290 762 339 738 q 224 786 242 786 q 194 785 206 786 q 174 781 183 783 q 157 776 164 778 q 140 768 150 774 q 124 759 129 763 q 106 749 118 756 q 86 738 93 742 l 53 814 q 221 911 142 911 q 300 886 254 910 q 358 863 346 863 q 374 863 371 863 z "},"˝":{"ha":557,"x_min":21,"x_max":533,"o":"m 21 738 l 147 931 l 317 931 l 147 738 l 21 738 m 238 738 l 363 931 l 533 931 l 364 738 l 238 738 z "},"̸":{"ha":875,"x_min":72,"x_max":803,"o":"m 74 247 l 74 761 q 142 951 74 885 q 329 1017 211 1017 l 557 1017 q 790 864 746 1017 q 803 769 803 821 l 803 247 q 738 63 803 126 q 556 0 674 0 l 328 0 q 141 63 208 0 q 74 247 74 125 m 268 371 q 274 308 268 319 l 546 832 q 514 838 532 838 l 368 838 q 290 808 311 838 q 268 739 268 778 l 268 371 m 372 179 l 507 179 q 583 201 558 179 q 608 278 608 224 l 608 660 q 597 726 608 713 l 319 190 q 372 179 340 179 z "},"Ω":{"ha":1060,"x_min":68,"x_max":993,"o":"m 126 807 q 210 919 160 872 q 344 997 261 967 q 515 1026 426 1026 q 665 1013 603 1026 q 772 974 726 999 q 854 915 818 950 q 915 838 890 879 q 956 747 939 796 q 986 533 986 654 q 956 329 986 413 q 846 176 925 246 l 993 163 l 993 0 l 646 0 l 646 178 q 764 326 736 247 q 792 535 792 406 q 614 838 792 789 q 522 847 576 847 q 417 828 467 847 q 340 778 368 808 q 293 703 311 747 q 263 553 263 629 q 265 444 263 476 q 275 375 267 413 q 300 308 283 338 q 413 178 336 243 l 413 0 l 76 0 l 76 164 l 231 178 q 101 327 133 240 q 68 553 68 414 q 126 807 68 693 z "},"π":{"ha":896,"x_min":21,"x_max":875,"o":"m 21 558 l 21 738 l 808 738 l 808 558 l 682 558 l 682 261 q 706 172 682 194 q 778 150 726 151 l 875 150 l 875 36 q 701 -7 811 -7 q 488 253 488 -7 l 488 558 l 319 558 l 319 0 l 125 0 l 125 558 l 21 558 z "},"Ḃ":{"ha":839,"x_min":83,"x_max":807,"o":"m 347 1136 l 347 1242 q 381 1276 347 1276 l 481 1276 q 504 1267 496 1276 q 513 1242 513 1257 l 513 1136 q 481 1104 513 1104 l 381 1104 q 357 1113 367 1104 q 347 1136 347 1122 m 85 0 l 85 1017 l 504 1017 q 721 941 651 1017 q 790 744 790 865 q 756 603 790 667 q 651 528 721 540 q 785 411 743 511 q 807 299 807 361 q 735 76 807 153 q 507 0 664 0 l 85 0 m 279 172 l 500 172 q 613 307 613 172 q 585 410 613 369 q 500 450 557 450 l 279 450 l 279 172 m 279 614 l 492 614 q 572 644 544 614 q 599 733 599 674 q 568 819 599 793 q 492 844 538 844 l 279 844 l 279 614 z "},"ḃ":{"ha":772,"x_min":56,"x_max":714,"o":"m 71 1211 l 71 1317 q 104 1351 71 1351 l 204 1351 q 228 1342 219 1351 q 236 1317 236 1332 l 236 1211 q 204 1179 236 1179 l 104 1179 q 80 1188 89 1179 q 71 1211 71 1197 m 56 0 l 56 1090 l 249 1090 l 249 700 q 360 735 297 722 q 478 749 424 749 q 576 730 533 749 q 646 680 619 711 q 688 599 672 649 q 714 349 714 513 q 658 89 714 186 q 474 -8 603 -8 q 351 17 413 -8 q 250 75 290 42 l 215 0 l 56 0 m 422 158 q 496 206 472 158 q 519 359 519 254 q 508 514 519 464 q 476 580 496 564 q 422 596 456 596 q 250 568 322 596 l 250 203 q 422 158 321 158 z "},"Ḋ":{"ha":919,"x_min":83,"x_max":869,"o":"m 356 1142 l 356 1247 q 389 1282 356 1282 l 489 1282 q 513 1272 504 1282 q 521 1247 521 1263 l 521 1142 q 489 1110 521 1110 l 389 1110 q 365 1119 374 1110 q 356 1142 356 1128 m 85 0 l 85 1017 l 517 1017 q 869 504 869 1017 q 718 65 869 188 q 517 0 638 0 l 85 0 m 279 174 l 501 174 q 675 506 675 174 q 594 818 675 758 q 501 844 558 844 l 279 844 l 279 174 z "},"ḋ":{"ha":772,"x_min":51,"x_max":711,"o":"m 531 1206 l 531 1311 q 564 1346 531 1346 l 664 1346 q 688 1336 679 1346 q 696 1311 696 1326 l 696 1206 q 664 1174 696 1174 l 564 1174 q 540 1183 549 1174 q 531 1206 531 1192 m 53 349 q 53 432 53 349 q 74 583 53 515 q 121 682 94 651 q 293 749 178 749 q 406 735 343 749 q 517 700 468 722 l 517 1090 l 711 1090 l 711 0 l 550 0 l 517 75 q 415 17 476 42 q 293 -8 354 -8 q 108 87 164 -8 q 53 349 53 182 m 247 349 q 344 158 247 158 q 517 203 446 158 l 517 568 q 344 596 444 596 q 272 556 296 596 q 247 349 247 510 z "},"Ḟ":{"ha":788,"x_min":81,"x_max":750,"o":"m 354 1136 l 354 1242 q 388 1276 354 1276 l 488 1276 q 511 1267 503 1276 q 519 1242 519 1257 l 519 1136 q 488 1104 519 1104 l 388 1104 q 363 1113 372 1104 q 354 1136 354 1122 m 81 0 l 81 803 q 221 1007 81 968 q 276 1017 256 1017 q 478 1012 297 1017 q 749 994 660 1007 l 749 833 l 347 833 q 283 808 296 833 q 275 756 275 789 l 275 597 l 686 583 l 686 422 l 275 410 l 275 0 l 81 0 z "},"ḟ":{"ha":560,"x_min":21,"x_max":540,"o":"m 258 1219 l 258 1325 q 292 1360 258 1360 l 392 1360 q 415 1350 407 1360 q 424 1325 424 1340 l 424 1219 q 392 1188 424 1188 l 292 1188 q 267 1197 276 1188 q 258 1219 258 1206 m 21 589 l 21 714 l 136 738 l 136 875 q 186 1035 136 978 q 347 1092 236 1092 q 540 1058 458 1092 l 540 943 l 407 944 q 335 903 343 946 q 331 829 331 879 l 331 738 l 499 738 l 499 589 l 331 589 l 331 0 l 136 0 l 136 589 l 21 589 z "},"Ṁ":{"ha":1176,"x_min":57,"x_max":1121,"o":"m 504 1139 l 504 1244 q 538 1279 504 1279 l 638 1279 q 660 1269 651 1279 q 669 1244 669 1260 l 669 1139 q 638 1107 669 1107 l 538 1107 q 513 1116 522 1107 q 504 1139 504 1125 m 58 0 l 147 1017 l 418 1017 l 588 322 l 756 1017 l 1025 1017 l 1119 0 l 928 0 l 861 679 l 697 0 l 481 0 l 310 679 l 250 0 l 58 0 z "},"ṁ":{"ha":1215,"x_min":63,"x_max":1165,"o":"m 554 864 l 554 969 q 588 1004 554 1004 l 688 1004 q 711 994 703 1004 q 719 969 719 985 l 719 864 q 688 832 719 832 l 588 832 q 564 840 574 832 q 554 864 554 849 m 707 533 l 708 490 l 708 0 l 514 0 l 514 492 q 492 567 514 542 q 423 592 469 592 q 340 578 376 592 q 258 529 304 564 l 258 0 l 64 0 l 64 738 l 219 738 l 258 658 q 286 678 263 661 q 332 708 310 694 q 397 735 354 722 q 488 749 439 749 q 679 653 631 749 q 944 749 810 749 q 1164 489 1164 749 l 1164 0 l 969 0 l 969 492 q 948 567 969 542 q 888 592 926 592 q 707 533 776 592 z "},"Ṗ":{"ha":836,"x_min":71,"x_max":790,"o":"m 310 1143 l 310 1249 q 343 1283 310 1283 l 443 1283 q 467 1274 458 1283 q 475 1249 475 1264 l 475 1143 q 443 1111 475 1111 l 343 1111 q 319 1120 328 1111 q 310 1143 310 1129 m 71 0 l 71 1017 l 508 1017 q 757 885 694 1017 q 790 726 790 814 q 781 588 790 639 q 755 501 771 536 q 715 442 739 467 q 668 404 692 418 q 536 375 615 375 q 379 388 488 375 q 265 403 271 400 l 265 0 l 71 0 m 265 547 l 493 547 q 569 581 543 547 q 594 701 594 614 q 493 844 593 844 l 265 844 l 265 547 z "},"ṗ":{"ha":772,"x_min":63,"x_max":722,"o":"m 321 868 l 321 974 q 354 1008 321 1008 l 454 1008 q 478 999 469 1008 q 486 974 486 989 l 486 868 q 454 836 486 836 l 354 836 q 330 845 339 836 q 321 868 321 854 m 64 -375 l 64 738 l 224 738 l 257 664 q 359 721 297 696 q 484 746 421 746 q 594 719 547 746 q 669 642 642 693 q 721 372 721 544 q 654 61 721 147 q 481 -11 596 -11 q 368 2 431 -11 q 257 36 306 15 l 257 -375 l 64 -375 m 431 142 q 501 182 478 142 q 526 337 526 228 q 515 494 526 446 q 483 560 504 542 q 431 579 463 579 q 257 535 328 579 l 257 169 q 431 142 329 142 z "},"Ṡ":{"ha":819,"x_min":68,"x_max":775,"o":"m 328 1147 l 328 1253 q 361 1288 328 1288 l 461 1288 q 483 1278 475 1288 q 492 1253 492 1268 l 492 1147 q 461 1115 492 1115 l 361 1115 q 337 1124 346 1115 q 328 1147 328 1133 m 69 675 l 69 763 q 149 969 69 908 q 344 1025 221 1024 q 415 1025 361 1025 q 572 1014 468 1025 q 738 985 675 1003 l 738 832 q 485 846 579 846 q 385 846 392 846 q 293 829 322 846 q 264 747 264 813 l 264 697 q 288 619 264 639 q 372 600 311 600 l 533 600 q 746 474 692 600 q 774 331 774 410 l 774 263 q 650 19 774 76 q 493 -11 586 -11 q 100 31 242 -11 l 100 183 q 364 168 253 168 q 490 169 475 168 q 523 176 506 171 q 553 192 540 182 q 579 256 579 213 l 579 310 q 560 382 579 358 q 488 406 540 406 l 332 406 q 69 675 69 406 z "},"ṡ":{"ha":706,"x_min":42,"x_max":665,"o":"m 285 867 l 285 972 q 318 1007 285 1007 l 418 1007 q 441 997 432 1007 q 450 972 450 988 l 450 867 q 418 835 450 835 l 318 835 q 294 844 303 835 q 285 867 285 853 m 42 482 l 42 546 q 233 744 42 744 q 628 707 563 744 l 628 585 l 293 585 q 247 574 258 585 q 236 533 236 563 l 236 500 q 244 467 236 478 q 263 455 253 457 q 293 453 274 453 l 468 453 q 616 401 568 453 q 664 261 664 349 l 664 186 q 613 38 664 82 q 483 -7 561 -7 q 72 33 133 -7 l 72 154 l 421 154 q 469 201 469 154 l 469 236 q 455 276 469 268 q 421 283 440 283 l 249 283 q 42 482 42 283 z "},"Ṫ":{"ha":824,"x_min":43,"x_max":796,"o":"m 331 1139 l 331 1244 q 364 1279 331 1279 l 464 1279 q 488 1269 479 1279 q 496 1244 496 1260 l 496 1139 q 464 1107 496 1107 l 364 1107 q 340 1116 349 1107 q 331 1139 331 1125 m 43 838 l 43 1017 l 794 1017 l 794 838 l 513 838 l 513 0 l 318 0 l 318 838 l 43 838 z "},"ṫ":{"ha":529,"x_min":21,"x_max":500,"o":"m 160 1060 l 160 1165 q 193 1200 160 1200 l 293 1200 q 317 1190 308 1200 q 325 1165 325 1181 l 325 1060 q 293 1028 325 1028 l 193 1028 q 169 1037 179 1028 q 160 1060 160 1046 m 21 590 l 21 699 l 140 739 l 172 944 l 335 944 l 335 739 l 500 739 l 500 590 l 335 590 l 335 294 q 350 190 335 219 q 397 149 365 161 q 490 119 481 119 l 490 0 l 321 0 q 140 264 140 0 l 140 590 l 21 590 z "},"Ẁ":{"ha":1378,"x_min":47,"x_max":1354,"o":"m 474 1296 l 643 1296 l 769 1104 l 643 1104 l 474 1296 m 47 1017 l 254 1017 l 479 263 l 663 1017 l 871 1017 l 800 754 l 961 258 l 1147 1017 l 1353 1017 l 1074 0 l 849 0 l 711 417 l 592 0 l 367 0 l 47 1017 z "},"ẁ":{"ha":1147,"x_min":21,"x_max":1128,"o":"m 346 1017 l 517 1017 l 642 825 l 515 825 l 346 1017 m 21 738 l 229 738 l 376 228 l 508 738 l 703 738 l 651 539 l 774 228 l 919 738 l 1128 738 l 889 0 l 672 0 l 561 267 l 478 0 l 257 0 l 21 738 z "},"Ẃ":{"ha":1378,"x_min":47,"x_max":1354,"o":"m 643 1104 l 769 1296 l 939 1296 l 769 1104 l 643 1104 m 47 1017 l 254 1017 l 479 263 l 663 1017 l 871 1017 l 800 754 l 961 258 l 1147 1017 l 1353 1017 l 1074 0 l 849 0 l 711 417 l 592 0 l 367 0 l 47 1017 z "},"ẃ":{"ha":1147,"x_min":21,"x_max":1128,"o":"m 515 825 l 642 1017 l 811 1017 l 642 825 l 515 825 m 21 738 l 229 738 l 376 228 l 508 738 l 703 738 l 651 539 l 774 228 l 919 738 l 1128 738 l 889 0 l 672 0 l 561 267 l 478 0 l 257 0 l 21 738 z "},"Ẅ":{"ha":1378,"x_min":47,"x_max":1354,"o":"m 525 1104 q 508 1104 525 1104 q 467 1128 492 1104 q 443 1181 443 1153 q 454 1226 443 1208 q 518 1267 478 1267 q 582 1243 558 1267 q 606 1186 606 1219 q 582 1128 606 1153 q 525 1104 558 1104 m 822 1128 q 809 1141 822 1128 q 797 1186 797 1153 q 821 1243 797 1219 q 878 1267 844 1267 q 936 1243 913 1267 q 960 1186 960 1219 q 936 1128 960 1153 q 879 1104 913 1104 q 822 1128 846 1104 m 47 1017 l 254 1017 l 479 263 l 663 1017 l 871 1017 l 800 754 l 961 258 l 1147 1017 l 1353 1017 l 1074 0 l 849 0 l 711 417 l 592 0 l 367 0 l 47 1017 z "},"ẅ":{"ha":1147,"x_min":21,"x_max":1128,"o":"m 332 866 q 326 875 332 866 q 321 907 321 885 q 332 947 321 929 q 397 988 357 988 q 461 964 438 988 q 485 907 485 940 q 461 849 485 874 q 410 825 438 825 q 363 836 382 825 q 332 866 343 847 m 717 976 q 764 988 736 988 q 815 964 792 988 q 839 907 839 940 q 815 849 839 874 q 758 825 792 825 q 699 849 724 825 q 675 913 675 874 q 717 976 675 953 m 21 738 l 229 738 l 376 228 l 508 738 l 703 738 l 651 539 l 774 228 l 919 738 l 1128 738 l 889 0 l 672 0 l 561 267 l 478 0 l 257 0 l 21 738 z "},"Ỳ":{"ha":911,"x_min":47,"x_max":886,"o":"m 233 1300 l 404 1300 l 531 1107 l 403 1107 l 233 1300 m 551 0 l 357 0 l 357 315 l 47 1017 l 258 1017 l 457 529 l 675 1017 l 886 1017 l 551 315 l 551 0 z "},"ỳ":{"ha":803,"x_min":22,"x_max":779,"o":"m 174 1019 l 344 1019 l 469 828 l 343 828 l 174 1019 m 22 738 l 226 738 l 354 221 q 371 188 361 196 q 386 176 381 179 q 399 170 392 172 q 411 168 407 168 q 422 167 415 168 q 428 167 428 167 l 575 738 l 778 738 l 522 -233 l 421 -375 l 282 -375 l 386 0 q 167 188 217 0 l 22 738 z "},"–":{"ha":713,"x_min":28,"x_max":685,"o":"m 28 317 l 28 482 l 685 482 l 685 317 l 28 317 z "},"—":{"ha":1022,"x_min":28,"x_max":994,"o":"m 28 319 l 28 485 l 994 485 l 994 319 l 28 319 z "},"‘":{"ha":360,"x_min":83,"x_max":276,"o":"m 228 1032 q 268 1028 246 1032 l 268 951 q 267 951 267 951 q 222 906 222 951 l 222 876 l 239 876 q 275 842 275 876 l 275 717 q 239 678 275 678 l 119 678 q 85 717 85 678 l 85 901 q 228 1032 85 1032 z "},"’":{"ha":360,"x_min":83,"x_max":276,"o":"m 131 678 q 92 682 113 678 l 92 758 q 93 758 93 758 q 138 804 138 758 l 138 832 l 121 832 q 85 869 85 832 l 85 993 q 121 1032 85 1032 l 240 1032 q 275 993 275 1032 l 275 808 q 131 678 275 678 z "},"‚":{"ha":360,"x_min":83,"x_max":276,"o":"m 132 -156 q 92 -151 114 -156 l 92 -75 q 93 -75 93 -75 q 138 -29 138 -75 l 138 0 l 121 0 q 85 36 85 0 l 85 160 q 121 200 85 200 l 240 200 q 275 160 275 200 l 275 -24 q 132 -156 275 -156 z "},"“":{"ha":590,"x_min":76,"x_max":515,"o":"m 324 900 q 468 1031 324 1031 q 489 1029 481 1031 l 508 1026 l 508 950 q 507 950 507 950 q 463 904 463 950 l 463 876 l 479 876 q 505 867 494 876 q 515 839 515 857 l 515 715 q 479 676 515 676 l 360 676 q 324 715 324 676 l 324 900 m 219 1031 q 260 1026 239 1031 l 260 950 q 260 950 260 950 q 215 904 215 950 l 215 876 l 232 876 q 258 867 247 876 q 268 839 268 857 l 268 715 q 232 676 268 676 l 111 676 q 76 715 76 676 l 76 900 q 219 1031 76 1031 z "},"”":{"ha":590,"x_min":76,"x_max":515,"o":"m 124 676 q 83 681 106 676 l 83 757 q 85 757 85 757 q 129 803 129 757 l 129 831 l 113 831 q 87 840 97 831 q 76 867 76 850 l 76 992 q 113 1031 76 1031 l 233 1031 q 268 992 268 1031 l 268 807 q 124 676 268 676 m 515 807 q 371 675 515 675 q 350 676 360 675 l 332 681 l 332 757 q 333 757 332 757 q 376 803 376 757 l 376 831 l 361 831 q 334 840 344 831 q 324 867 324 850 l 324 992 q 361 1031 324 1031 l 481 1031 q 515 992 515 1031 l 515 807 z "},"„":{"ha":590,"x_min":76,"x_max":515,"o":"m 124 -156 q 83 -151 106 -156 l 83 -75 q 85 -75 85 -75 q 129 -29 129 -75 l 129 0 l 113 0 q 87 9 97 0 q 76 36 76 18 l 76 160 q 113 200 76 200 l 233 200 q 268 160 268 200 l 268 -24 q 124 -156 268 -156 m 515 -24 q 371 -156 515 -156 q 350 -154 360 -156 l 332 -151 l 332 -75 q 333 -75 332 -75 q 376 -29 376 -75 l 376 0 l 361 0 q 334 9 344 0 q 324 36 324 18 l 324 160 q 361 199 324 199 l 481 199 q 515 160 515 199 l 515 -24 z "},"†":{"ha":611,"x_min":21,"x_max":592,"o":"m 21 629 l 21 781 l 206 797 l 221 1069 l 392 1069 l 407 797 l 590 781 l 590 629 l 407 611 l 390 -100 l 219 -100 l 206 611 l 21 629 z "},"‡":{"ha":632,"x_min":21,"x_max":592,"o":"m 21 203 l 21 354 l 208 375 l 206 611 l 21 629 l 21 781 l 206 797 l 221 1069 l 392 1069 l 407 797 l 590 781 l 590 629 l 407 611 l 403 374 l 590 354 l 590 203 l 397 185 l 390 -100 l 219 -100 l 214 183 l 21 203 z "},"•":{"ha":429,"x_min":89,"x_max":342,"o":"m 90 447 l 90 611 q 136 660 90 660 l 292 660 q 340 611 340 660 l 340 447 q 292 403 340 403 l 136 403 q 103 415 115 403 q 90 447 90 426 z "},"…":{"ha":1121,"x_min":411,"x_max":675,"o":"m 411 32 l 411 157 q 444 192 411 192 l 564 192 q 599 157 599 192 l 599 32 q 564 0 599 0 l 444 0 q 421 9 431 0 q 411 32 411 18 m 449 32 q 458 9 449 18 q 482 0 468 0 l 601 0 q 636 32 636 0 l 636 157 q 601 192 636 192 l 482 192 q 449 157 449 192 l 449 32 m 488 32 l 488 157 q 521 192 488 192 l 640 192 q 675 157 675 192 l 675 32 q 640 0 675 0 l 521 0 q 497 9 506 0 q 488 32 488 18 z "},"‰":{"ha":1915,"x_min":44,"x_max":1872,"o":"m 44 667 l 44 836 q 87 972 44 928 q 232 1017 129 1017 l 372 1017 q 513 972 471 1017 q 556 836 556 928 l 556 667 q 513 529 556 574 q 369 485 471 485 l 229 485 q 87 529 129 485 q 44 667 44 574 m 181 689 q 194 636 181 651 q 247 621 208 621 l 350 621 q 415 650 406 621 q 419 689 419 664 l 419 813 q 405 867 419 853 q 353 881 390 881 l 250 881 q 195 867 210 881 q 181 813 181 853 l 181 689 m 289 0 l 910 1017 l 1049 1017 l 433 0 l 289 0 m 782 185 l 782 354 q 799 454 782 415 q 968 536 833 536 l 1108 536 q 1250 491 1207 536 q 1293 354 1293 446 l 1293 185 q 1250 49 1293 93 q 1106 4 1207 4 l 965 4 q 824 49 865 4 q 782 185 782 93 m 918 208 q 931 156 918 171 q 985 140 944 140 l 1086 140 q 1143 156 1129 140 q 1157 208 1157 171 l 1157 332 q 1128 394 1157 383 q 1089 400 1114 400 l 988 400 q 933 385 947 400 q 918 332 918 371 l 918 208 m 1361 185 l 1361 354 q 1403 491 1361 446 q 1547 536 1446 536 l 1688 536 q 1854 454 1818 536 q 1872 354 1872 415 l 1872 185 q 1830 49 1872 93 q 1685 4 1788 4 l 1544 4 q 1403 49 1446 4 q 1361 185 1361 93 m 1497 208 q 1511 156 1497 171 q 1564 140 1525 140 l 1667 140 q 1723 156 1710 140 q 1736 208 1736 171 l 1736 332 q 1722 386 1736 372 q 1669 400 1707 400 l 1567 400 q 1504 374 1515 400 q 1497 332 1497 358 l 1497 208 z "},"‹":{"ha":494,"x_min":51,"x_max":450,"o":"m 53 492 l 339 774 l 446 668 l 264 492 l 449 310 l 346 203 l 53 492 z "},"›":{"ha":494,"x_min":51,"x_max":450,"o":"m 53 310 l 238 492 l 57 668 l 163 774 l 449 492 l 156 203 l 53 310 z "},"⁄":{"ha":447,"x_min":-96,"x_max":543,"o":"m -96 0 l 401 1046 l 543 1046 l 46 0 l -96 0 z "},"⁰":{"ha":644,"x_min":63,"x_max":583,"o":"m 244 1193 l 408 1193 q 582 1026 582 1193 l 582 690 q 408 525 582 525 l 243 525 q 76 613 110 525 q 64 690 64 646 l 64 1022 q 244 1193 64 1193 m 214 722 q 230 675 214 688 q 279 663 246 663 l 369 663 q 419 675 406 663 q 432 722 432 688 l 432 996 q 419 1041 432 1028 q 374 1054 406 1054 l 276 1054 q 222 1035 232 1054 q 214 996 214 1019 l 214 722 z "},"⁴":{"ha":597,"x_min":17,"x_max":583,"o":"m 365 804 l 365 946 l 399 1015 l 515 1015 l 515 804 l 583 804 l 583 686 l 515 675 l 515 526 l 365 526 l 365 661 l 49 661 l 17 725 l 254 1193 l 408 1193 l 213 804 l 365 804 z "},"⁵":{"ha":578,"x_min":57,"x_max":538,"o":"m 325 661 q 374 676 363 661 q 386 717 386 690 l 386 763 q 383 791 386 781 q 367 812 381 801 q 329 822 354 822 l 236 822 q 186 774 186 822 l 58 774 l 79 1193 l 510 1193 l 510 1054 l 211 1054 l 204 932 q 325 957 238 957 q 376 954 349 957 q 497 904 457 951 q 536 778 536 857 l 536 689 q 486 561 536 603 q 347 519 436 519 q 201 523 258 519 q 58 542 144 526 l 58 661 l 325 661 z "},"⁶":{"ha":608,"x_min":57,"x_max":567,"o":"m 112 1132 q 125 1149 112 1132 q 165 1180 138 1165 q 230 1199 193 1194 q 338 1203 267 1203 q 543 1181 408 1203 l 543 1064 l 297 1064 q 208 958 215 1064 q 207 918 208 943 q 389 939 285 939 q 530 896 493 939 q 567 776 567 853 l 567 683 q 394 525 567 525 l 250 525 q 172 539 204 525 q 71 699 94 574 q 57 868 57 768 q 72 1033 57 968 q 112 1132 86 1099 m 207 806 q 290 664 207 664 l 364 664 q 405 674 393 664 q 417 713 417 685 l 417 758 q 406 796 417 786 q 368 806 396 806 l 207 806 z "},"⁷":{"ha":551,"x_min":15,"x_max":536,"o":"m 15 1056 l 15 1194 l 497 1194 l 536 1131 l 282 525 l 117 525 l 340 1056 l 15 1056 z "},"⁸":{"ha":643,"x_min":69,"x_max":576,"o":"m 69 979 l 69 1038 q 118 1164 69 1128 q 251 1200 167 1200 l 407 1200 q 533 1163 492 1200 q 575 1039 575 1125 l 575 992 q 536 900 578 929 q 503 888 522 890 q 549 857 531 882 q 575 760 575 819 l 575 685 q 490 535 575 561 q 408 524 454 524 l 247 524 q 96 578 131 524 q 69 679 69 621 l 69 743 q 90 811 69 783 q 147 846 111 839 q 96 883 114 860 q 74 927 78 906 q 69 979 69 949 m 425 751 q 374 801 425 801 l 274 801 q 232 790 244 801 q 219 751 219 778 l 219 704 q 231 667 219 678 q 275 657 243 657 l 372 657 q 413 668 401 657 q 425 704 425 679 l 425 751 m 219 981 q 233 940 219 950 q 274 929 247 929 l 371 929 q 415 942 406 929 q 425 981 425 956 l 425 1011 q 411 1056 425 1046 q 367 1067 397 1067 l 279 1067 q 233 1056 246 1067 q 219 1011 219 1044 l 219 981 z "},"⁹":{"ha":608,"x_min":47,"x_max":557,"o":"m 47 949 l 47 1042 q 93 1164 47 1125 q 219 1203 139 1203 l 363 1203 q 442 1189 408 1203 q 543 1026 519 1154 q 557 902 557 956 q 556 815 557 849 q 549 731 556 781 q 531 647 543 681 q 504 588 519 613 q 469 550 489 564 q 386 519 432 525 q 266 514 340 514 q 71 538 192 514 l 71 654 l 315 654 q 404 764 399 654 q 406 806 406 779 q 224 785 328 785 q 84 828 121 785 q 47 949 47 871 m 197 968 q 208 928 197 938 q 247 918 218 918 l 406 918 q 369 1051 406 1024 q 325 1064 351 1064 l 249 1064 q 209 1053 221 1064 q 197 1014 197 1042 l 197 968 z "},"₀":{"ha":644,"x_min":63,"x_max":583,"o":"m 244 392 l 408 392 q 582 225 582 392 l 582 -111 q 408 -278 582 -278 l 243 -278 q 110 -239 157 -278 q 64 -111 64 -200 l 64 219 q 244 392 64 392 m 214 -79 q 230 -127 214 -115 q 279 -139 246 -139 l 369 -139 q 419 -127 406 -139 q 432 -81 432 -115 l 432 194 q 419 240 432 226 q 374 253 406 253 l 276 253 q 222 232 232 253 q 214 194 214 217 l 214 -79 z "},"₁":{"ha":375,"x_min":17,"x_max":308,"o":"m 307 392 l 307 -278 l 157 -278 l 157 256 l 17 224 l 17 317 l 158 392 l 307 392 z "},"₂":{"ha":560,"x_min":32,"x_max":517,"o":"m 33 263 q 32 295 32 263 q 32 347 32 328 l 33 375 q 274 401 183 401 q 405 387 365 401 q 469 344 444 372 q 517 200 517 290 q 274 -139 517 54 l 517 -139 l 517 -278 l 38 -278 l 38 -144 q 276 42 204 -29 q 336 115 308 74 q 364 185 364 156 q 354 232 364 215 q 257 263 333 263 l 33 263 z "},"₃":{"ha":572,"x_min":31,"x_max":510,"o":"m 32 367 q 268 394 110 394 q 332 394 299 394 q 463 349 415 394 q 510 226 510 303 l 510 185 q 431 56 510 83 q 510 -82 510 25 l 510 -114 q 325 -283 510 -283 l 271 -283 q 38 -256 114 -283 l 39 -146 l 263 -144 q 340 -133 319 -144 q 360 -90 360 -122 l 360 -72 q 337 -26 360 -39 q 268 -11 314 -12 l 94 -4 l 94 115 l 268 126 q 340 140 318 128 q 361 183 361 153 l 361 200 q 338 244 361 232 q 268 257 314 257 l 32 257 l 32 367 z "},"₄":{"ha":603,"x_min":17,"x_max":588,"o":"m 369 1 l 369 144 l 403 213 l 519 213 l 519 1 l 588 1 l 588 -117 l 519 -128 l 519 -275 l 369 -275 l 369 -142 l 49 -142 l 17 -76 l 254 392 l 413 392 l 219 1 l 369 1 z "},"₅":{"ha":581,"x_min":57,"x_max":540,"o":"m 513 392 l 513 253 l 213 253 l 206 129 q 326 154 238 154 q 378 153 350 154 q 499 101 460 149 q 539 -24 539 54 l 539 -112 q 488 -240 539 -199 q 349 -282 438 -282 q 203 -278 260 -282 q 58 -260 146 -275 l 58 -140 l 326 -140 q 377 -126 365 -140 q 389 -86 389 -112 l 389 -39 q 386 -11 389 -22 q 370 10 383 0 q 333 19 357 19 l 238 19 q 188 -19 188 19 l 58 -19 l 79 392 l 513 392 z "},"₆":{"ha":608,"x_min":57,"x_max":567,"o":"m 112 329 q 125 346 112 329 q 165 378 138 363 q 233 397 193 393 q 347 401 272 401 q 543 378 421 401 l 543 263 l 297 263 q 208 156 215 263 q 207 115 208 140 q 389 136 285 136 q 530 93 493 136 q 567 -25 567 50 l 567 -118 q 394 -278 567 -278 l 250 -278 q 172 -262 204 -278 q 71 -104 94 -229 q 57 65 57 -35 q 72 231 57 165 q 112 329 86 296 m 207 4 q 290 -139 207 -139 l 365 -139 q 405 -128 393 -139 q 417 -90 417 -117 l 417 -44 q 406 -6 417 -15 q 368 4 396 4 l 207 4 z "},"₇":{"ha":551,"x_min":15,"x_max":536,"o":"m 15 254 l 15 393 l 497 393 l 536 328 l 282 -278 l 117 -278 l 340 254 l 15 254 z "},"₈":{"ha":643,"x_min":69,"x_max":576,"o":"m 69 -60 q 90 10 69 -18 q 147 44 110 38 q 85 97 100 64 q 69 178 69 129 l 69 236 q 118 361 69 325 q 251 397 167 397 l 407 397 q 533 360 492 397 q 575 238 575 322 l 575 190 q 567 140 576 165 q 503 85 549 93 q 549 56 531 81 q 575 -43 575 17 l 575 -118 q 490 -267 575 -240 q 408 -278 454 -278 l 247 -278 q 96 -224 131 -278 q 69 -122 69 -182 l 69 -60 m 425 -51 q 374 0 425 0 l 274 0 q 232 -12 244 0 q 219 -51 219 -24 l 219 -99 q 231 -135 219 -125 q 275 -144 243 -144 l 372 -144 q 413 -134 401 -144 q 425 -99 425 -124 l 425 -51 m 219 178 q 233 138 219 149 q 274 126 247 126 l 371 126 q 415 140 406 126 q 425 178 425 153 l 425 210 q 411 254 425 243 q 367 265 397 265 l 279 265 q 233 254 246 265 q 219 210 219 243 l 219 178 z "},"₉":{"ha":608,"x_min":46,"x_max":557,"o":"m 219 401 l 363 401 q 442 386 410 401 q 543 225 519 353 q 557 54 557 156 q 543 -113 557 -47 q 503 -213 529 -179 q 450 -261 478 -247 q 300 -286 404 -286 q 71 -265 196 -286 l 71 -149 l 315 -149 q 404 -39 399 -149 q 406 3 406 -22 q 224 -18 328 -18 q 84 26 121 -18 q 47 146 47 69 l 47 240 q 93 362 47 322 q 219 401 139 401 m 197 165 q 208 126 197 136 q 247 115 218 115 l 406 115 q 369 249 406 221 q 325 263 351 263 l 249 263 q 209 251 221 263 q 197 211 197 239 l 197 165 z "},"€":{"ha":857,"x_min":21,"x_max":838,"o":"m 252 973 q 270 984 252 973 q 343 1012 288 996 q 466 1028 399 1028 q 645 1014 533 1028 q 832 978 757 1000 l 832 836 q 551 856 628 856 q 445 851 475 856 q 395 840 415 847 q 361 817 375 832 q 340 790 347 803 q 328 753 332 776 q 322 661 322 718 l 647 650 l 647 556 l 322 547 l 322 453 l 647 442 l 647 347 q 368 339 456 343 l 322 336 q 418 168 322 199 q 515 156 460 156 q 785 179 626 156 l 838 186 l 838 47 q 468 -8 706 -8 q 228 69 318 -8 q 128 336 128 156 l 21 347 l 21 442 l 128 453 l 128 547 l 21 558 l 21 647 l 128 661 q 156 847 128 781 q 192 914 167 878 q 252 973 217 950 z "},"ℓ":{"ha":640,"x_min":31,"x_max":576,"o":"m 360 1026 q 514 965 451 1026 q 576 792 576 904 q 451 513 576 656 q 306 378 386 438 l 306 310 q 322 201 306 229 q 363 160 338 172 q 408 145 388 149 q 454 136 429 142 q 531 121 525 119 l 531 1 q 478 0 532 0 q 371 0 425 0 l 317 1 q 162 59 213 1 q 111 253 111 117 l 111 289 q 65 261 96 278 l 32 353 q 111 431 67 383 l 111 817 q 176 972 111 918 q 360 1026 240 1026 m 404 797 q 403 823 404 810 q 393 849 403 836 q 347 869 376 869 q 316 855 326 869 q 306 818 306 840 l 306 581 q 404 797 404 706 z "},"№":{"ha":1536,"x_min":75,"x_max":1494,"o":"m 75 0 l 75 842 q 104 942 75 899 q 283 1026 160 1026 q 446 964 383 1026 q 490 878 481 928 l 690 190 q 710 176 696 172 q 724 194 724 179 l 724 786 q 788 964 724 908 q 957 1019 851 1019 l 1303 1019 q 1451 962 1408 1018 q 1493 768 1493 906 q 1475 633 1493 685 q 1288 529 1438 533 l 1226 529 q 1128 542 1165 531 q 1066 586 1092 554 q 1030 674 1040 618 q 1019 824 1019 731 l 1167 824 q 1196 676 1167 693 q 1235 669 1208 669 l 1279 669 q 1332 686 1318 669 q 1346 771 1346 703 q 1332 857 1346 839 q 1268 875 1318 875 q 1092 878 1157 878 q 1002 873 1028 878 q 956 856 976 868 q 918 763 918 832 l 918 175 q 890 82 918 124 q 706 -7 831 -7 q 554 54 611 -7 q 508 147 518 92 l 306 842 q 294 855 303 853 q 278 850 286 857 q 271 832 271 843 l 271 0 l 75 0 z "},"™":{"ha":979,"x_min":21,"x_max":965,"o":"m 21 906 l 21 1017 l 411 1017 l 411 906 l 281 906 l 281 532 l 153 532 l 153 906 l 21 906 m 435 532 l 488 1017 l 619 1017 l 703 732 l 769 1017 l 906 1017 l 964 532 l 838 532 l 811 788 l 760 532 l 647 532 l 583 788 l 563 532 l 435 532 z "},"℮":{"ha":961,"x_min":63,"x_max":900,"o":"m 482 0 q 177 105 290 0 q 64 368 64 210 q 181 636 64 526 q 312 715 240 689 q 478 740 383 740 q 640 718 572 740 q 771 649 708 696 q 900 358 890 556 l 235 358 q 230 358 233 358 q 224 358 226 358 q 218 343 218 357 l 218 158 q 265 97 218 132 q 482 29 356 29 q 629 62 558 29 q 747 146 700 94 l 825 146 q 666 31 744 61 q 482 0 588 0 m 726 382 l 738 382 q 743 383 742 382 q 744 392 744 383 l 744 576 q 656 667 744 621 q 481 714 568 714 q 376 699 428 714 q 292 662 325 683 q 238 619 258 640 q 218 585 218 597 l 218 394 q 221 384 218 386 q 231 382 224 382 l 726 382 z "},"∂":{"ha":881,"x_min":60,"x_max":796,"o":"m 60 315 q 149 559 60 472 q 385 646 238 646 q 599 567 533 646 q 549 785 594 721 q 406 849 504 849 q 263 827 333 849 q 147 778 192 806 l 115 919 q 263 1001 197 974 q 410 1028 329 1028 q 701 899 607 1028 q 794 538 794 771 q 707 153 794 301 q 585 35 661 78 q 412 -7 510 -7 q 237 27 314 -7 q 110 135 160 61 q 60 315 60 210 m 428 469 q 382 469 428 469 q 294 429 336 469 q 253 330 253 389 q 276 238 253 271 q 414 169 319 169 q 499 200 463 169 q 553 275 535 231 q 586 432 586 361 q 428 469 521 469 z "},"∆":{"ha":992,"x_min":21,"x_max":972,"o":"m 21 0 l 453 1017 l 556 1017 l 971 0 l 21 0 m 288 172 l 746 172 l 518 725 l 288 172 z "},"∏":{"ha":903,"x_min":21,"x_max":883,"o":"m 21 838 l 21 1017 l 883 1017 l 883 838 l 778 838 l 778 0 l 583 0 l 583 838 l 319 838 l 319 0 l 125 0 l 125 838 l 21 838 z "},"∑":{"ha":793,"x_min":42,"x_max":774,"o":"m 42 1017 l 772 1017 l 772 838 l 281 838 l 576 375 l 281 -94 l 772 -94 l 772 -278 l 42 -278 l 42 -94 l 339 375 l 42 838 l 42 1017 z "},"−":{"ha":633,"x_min":28,"x_max":606,"o":"m 28 413 l 28 576 l 606 576 l 606 413 l 28 413 z "},"√":{"ha":915,"x_min":21,"x_max":896,"o":"m 21 333 l 21 513 l 249 513 l 367 265 l 686 1111 l 894 1111 l 476 0 l 286 0 l 115 333 l 21 333 z "},"∞":{"ha":1057,"x_min":51,"x_max":1006,"o":"m 101 306 q 89 323 101 306 q 65 382 76 340 q 53 474 53 424 q 63 563 53 524 q 96 639 72 603 q 288 714 146 714 q 526 582 431 714 q 630 680 565 646 q 769 714 694 714 q 891 694 843 714 q 963 639 939 675 q 1006 474 1006 574 q 957 307 1006 372 q 775 235 903 235 q 635 264 696 235 q 524 368 575 293 q 422 263 478 292 q 292 235 365 235 q 173 253 219 235 q 101 306 126 272 m 208 533 q 205 525 208 533 q 201 506 203 518 q 200 468 200 493 q 207 422 200 443 q 298 375 222 375 q 439 474 374 375 q 349 558 403 531 q 294 574 319 574 q 250 568 268 574 q 222 555 232 563 q 208 533 213 547 m 764 375 q 857 474 857 375 q 840 549 857 524 q 764 574 822 574 q 615 472 681 574 q 764 375 681 375 z "},"∫":{"ha":614,"x_min":21,"x_max":594,"o":"m 21 -128 l 108 -128 q 178 -87 157 -128 q 203 -3 200 -44 q 210 122 208 57 l 210 703 q 425 1111 210 1111 q 578 1083 517 1111 q 593 1076 590 1078 l 593 956 l 510 956 q 421 875 440 956 q 404 703 404 811 l 404 122 q 339 -211 404 -117 q 192 -283 288 -283 q 21 -249 74 -283 l 21 -128 z "},"≈":{"ha":707,"x_min":51,"x_max":656,"o":"m 109 408 q 121 417 109 408 q 174 443 133 426 q 257 460 215 460 q 360 434 299 460 q 450 408 422 408 q 490 409 478 408 q 513 413 501 410 q 533 419 525 417 q 555 428 542 422 q 574 438 568 435 q 597 449 581 440 q 621 463 614 458 l 656 376 q 518 282 568 296 q 459 274 492 274 q 362 300 426 274 q 260 326 297 326 q 196 318 222 326 q 137 295 169 310 q 82 274 104 281 l 53 361 q 109 408 85 390 m 109 660 q 121 669 109 660 q 174 694 133 678 q 257 711 215 711 q 360 685 299 711 q 450 660 422 660 q 490 660 478 660 q 513 665 501 661 q 533 670 525 668 q 555 679 542 672 q 574 689 568 686 q 597 701 581 692 q 621 714 614 710 l 656 626 q 518 533 568 547 q 459 525 492 525 q 362 551 426 525 q 260 578 297 578 q 196 569 222 578 q 137 547 169 561 q 82 525 104 532 l 53 613 q 109 660 85 642 z "},"≠":{"ha":635,"x_min":21,"x_max":615,"o":"m 21 256 l 21 424 l 229 424 l 306 551 l 21 551 l 21 718 l 403 718 l 457 810 l 557 810 l 503 718 l 614 718 l 614 551 l 406 551 l 329 424 l 614 424 l 614 256 l 233 256 l 171 150 l 71 150 l 133 256 l 21 256 z "},"≤":{"ha":625,"x_min":51,"x_max":574,"o":"m 53 113 l 53 261 l 574 261 l 574 113 l 53 113 m 53 511 l 53 690 l 574 876 l 574 696 l 260 601 l 574 494 l 574 314 l 53 511 z "},"≥":{"ha":625,"x_min":51,"x_max":575,"o":"m 53 113 l 53 261 l 574 261 l 574 113 l 53 113 m 53 314 l 53 494 l 367 601 l 53 696 l 53 875 l 574 690 l 574 511 l 53 314 z "},"◊":{"ha":711,"x_min":21,"x_max":692,"o":"m 21 518 l 308 1017 l 411 1017 l 690 518 l 411 0 l 308 0 l 21 518 m 214 518 l 360 250 l 500 518 l 360 772 l 214 518 z "},"ﬀ":{"ha":1104,"x_min":21,"x_max":1085,"o":"m 21 589 l 21 714 l 158 738 l 158 861 q 196 1001 158 939 q 258 1057 217 1036 q 384 1078 300 1078 q 554 1044 468 1078 l 554 928 l 429 929 q 380 919 392 931 q 363 901 368 908 q 356 878 358 893 q 353 821 353 857 l 353 738 l 681 738 l 681 875 q 731 1035 681 978 q 892 1092 781 1092 q 1085 1058 1003 1092 l 1085 943 l 951 944 q 879 903 888 946 q 875 829 875 879 l 875 738 l 1042 738 l 1042 589 l 874 589 l 874 0 l 679 0 l 679 589 l 350 589 l 350 0 l 156 0 l 156 589 l 21 589 z "},"ﬁ":{"ha":871,"x_min":21,"x_max":814,"o":"m 21 589 l 21 714 l 138 738 l 138 793 q 219 1004 138 921 q 446 1092 304 1092 q 615 1081 507 1092 q 763 1053 722 1069 l 763 936 l 508 944 q 360 889 407 947 q 332 785 332 853 l 332 738 l 814 724 l 814 0 l 619 0 l 619 589 l 332 589 l 332 0 l 138 0 l 138 589 l 21 589 z "},"ﬂ":{"ha":1001,"x_min":21,"x_max":982,"o":"m 21 589 l 21 714 l 138 738 l 138 800 q 411 1092 138 1092 l 825 1089 l 825 293 q 839 190 825 218 q 889 149 853 163 q 982 119 972 119 l 982 0 l 821 0 q 676 59 721 0 q 631 263 631 118 l 631 943 l 449 944 q 383 932 408 944 q 332 800 332 908 l 332 738 l 499 738 l 499 589 l 331 589 l 331 0 l 136 0 l 136 589 l 21 589 z "},"ﬃ":{"ha":1399,"x_min":21,"x_max":1338,"o":"m 1021 944 q 856 785 856 944 l 856 738 l 1338 724 l 1338 0 l 1142 0 l 1142 589 l 854 589 l 854 0 l 660 0 l 660 589 l 351 589 l 351 0 l 156 0 l 156 589 l 21 589 l 21 714 l 158 738 l 158 861 q 196 1001 158 939 q 258 1057 217 1036 q 384 1078 300 1078 q 554 1044 468 1078 l 554 928 l 429 929 q 360 888 369 931 q 353 821 354 865 l 351 738 l 661 738 l 661 793 q 697 943 661 876 q 803 1050 733 1010 q 969 1092 874 1092 q 1162 1078 1065 1092 q 1286 1053 1258 1064 l 1286 936 l 1032 944 q 1021 944 1026 944 z "},"ﬄ":{"ha":1529,"x_min":21,"x_max":1510,"o":"m 21 589 l 21 714 l 158 738 l 158 861 q 196 1001 158 939 q 258 1057 217 1036 q 384 1078 300 1078 q 554 1044 468 1078 l 554 928 l 429 929 q 415 929 428 929 q 385 923 401 929 q 363 900 369 917 q 353 821 353 875 l 351 738 l 665 738 l 665 800 q 939 1090 665 1090 l 1353 1088 l 1353 293 q 1367 190 1353 218 q 1417 149 1381 163 q 1510 119 1500 119 l 1510 0 l 1349 0 q 1203 59 1249 0 q 1158 263 1158 118 l 1158 943 l 976 944 q 911 932 935 944 q 860 800 860 908 l 860 738 l 1026 738 l 1026 589 l 858 589 l 858 0 l 664 0 l 664 589 l 351 589 l 351 0 l 156 0 l 156 589 l 21 589 z "},"ﬆ":{"ha":1232,"x_min":42,"x_max":1207,"o":"m 242 738 l 847 738 l 881 943 l 1042 943 l 1042 738 l 1207 738 l 1207 590 l 1042 590 l 1042 293 q 1069 167 1043 190 q 1133 139 1081 157 q 1193 121 1186 121 l 1193 -1 l 1029 -1 q 928 24 967 -1 q 847 263 847 76 l 847 582 l 293 582 q 247 571 258 582 q 236 531 236 560 l 236 497 q 250 457 236 465 q 293 449 264 449 l 468 449 q 581 422 536 449 q 664 258 664 375 l 664 186 q 613 38 664 82 q 483 -7 561 -7 q 235 2 365 -7 q 72 33 106 11 l 72 154 l 421 154 q 469 201 469 154 l 469 232 q 459 269 469 257 q 421 281 449 281 l 249 281 q 42 478 42 281 l 42 543 q 90 685 42 633 q 242 738 139 738 z "}}}
